Commissioner-FlairSemiBold.ufo
<glyph name="numbersign" format="2">
  <advance width="1387.2631578947369"/>
  <unicode hex="0023"/>
  <outline>
    <contour>
      <point x="29.473684210526315" y="265.36842105263156" type="line"/>
      <point x="163.3684210526316" y="274.63157894736844"/>
      <point x="290.2105263157895" y="275.6842105263158"/>
      <point x="400.0" y="275.6842105263158" type="curve"/>
      <point x="883.1578947368421" y="275.6842105263158" type="line"/>
      <point x="992.9473684210526" y="275.6842105263158"/>
      <point x="1119.7894736842104" y="274.63157894736844"/>
      <point x="1253.6842105263158" y="265.36842105263156" type="curve"/>
      <point x="1253.6842105263158" y="480.94736842105266" type="line"/>
      <point x="1119.7894736842104" y="471.6842105263158"/>
      <point x="992.9473684210526" y="470.63157894736844"/>
      <point x="883.1578947368421" y="470.63157894736844" type="curve"/>
      <point x="400.0" y="470.63157894736844" type="line"/>
      <point x="290.2105263157895" y="470.63157894736844"/>
      <point x="163.3684210526316" y="471.6842105263158"/>
      <point x="29.473684210526315" y="480.94736842105266" type="curve"/>
    </contour>
    <contour>
      <point x="201.26315789473685" y="0.0" type="curve"/>
      <point x="438.63157894736844" y="0.0" type="line"/>
      <point x="446.7368421052631" y="137.05263157894737"/>
      <point x="468.63157894736844" y="259.4736842105263"/>
      <point x="500.42105263157896" y="428.5263157894737" type="curve"/>
      <point x="585.7894736842105" y="885.8947368421053" type="line"/>
      <point x="618.5263157894736" y="1067.0526315789473"/>
      <point x="641.3684210526316" y="1181.8947368421052"/>
      <point x="683.7894736842105" y="1327.0526315789473" type="curve"/>
      <point x="448.5263157894737" y="1327.0526315789473" type="line"/>
      <point x="437.3684210526316" y="1177.6842105263156"/>
      <point x="418.63157894736844" y="1063.8947368421052"/>
      <point x="385.89473684210526" y="887.7894736842105" type="curve"/>
      <point x="300.5263157894737" y="428.5263157894737" type="line"/>
      <point x="268.7368421052632" y="257.36842105263156"/>
      <point x="240.73684210526315" y="132.8421052631579"/>
    </contour>
    <contour>
      <point x="133.57894736842104" y="840.1052631578948" type="line"/>
      <point x="267.4736842105263" y="849.3684210526316"/>
      <point x="394.3157894736842" y="850.421052631579"/>
      <point x="504.10526315789474" y="850.421052631579" type="curve"/>
      <point x="987.2631578947369" y="850.421052631579" type="line"/>
      <point x="1097.0526315789473" y="850.421052631579"/>
      <point x="1223.8947368421052" y="849.3684210526316"/>
      <point x="1357.7894736842104" y="840.1052631578948" type="curve"/>
      <point x="1357.7894736842104" y="1055.6842105263158" type="line"/>
      <point x="1223.8947368421052" y="1046.421052631579"/>
      <point x="1097.0526315789473" y="1045.3684210526317"/>
      <point x="987.2631578947369" y="1045.3684210526317" type="curve"/>
      <point x="504.10526315789474" y="1045.3684210526317" type="line"/>
      <point x="394.3157894736842" y="1045.3684210526317"/>
      <point x="267.4736842105263" y="1046.421052631579"/>
      <point x="133.57894736842104" y="1055.6842105263158" type="curve"/>
    </contour>
    <contour>
      <point x="692.8421052631579" y="0.0" type="curve"/>
      <point x="930.2105263157894" y="0.0" type="line"/>
      <point x="938.3157894736842" y="137.05263157894737"/>
      <point x="960.2105263157895" y="259.4736842105263"/>
      <point x="992.0" y="428.5263157894737" type="curve"/>
      <point x="1077.3684210526317" y="885.8947368421053" type="line"/>
      <point x="1110.1052631578948" y="1067.0526315789473"/>
      <point x="1132.9473684210525" y="1181.8947368421052"/>
      <point x="1175.3684210526314" y="1327.0526315789473" type="curve"/>
      <point x="940.1052631578948" y="1327.0526315789473" type="line"/>
      <point x="928.9473684210526" y="1177.6842105263156"/>
      <point x="910.2105263157895" y="1063.8947368421052"/>
      <point x="877.4736842105264" y="887.7894736842105" type="curve"/>
      <point x="792.1052631578947" y="428.5263157894737" type="line"/>
      <point x="760.3157894736842" y="257.36842105263156"/>
      <point x="732.3157894736842" y="132.8421052631579"/>
    </contour>
  </outline>
</glyph>
<glyph name="dollar" format="2">
  <advance width="1141.8947368421052"/>
  <unicode hex="0024"/>
  <outline>
    <contour>
      <point x="570.5263157894736" y="-24.315789473684212" type="curve" smooth="yes"/>
      <point x="922.3157894736842" y="-24.315789473684212"/>
      <point x="1076.421052631579" y="141.3684210526316"/>
      <point x="1076.421052631579" y="385.57894736842104" type="curve" smooth="yes"/>
      <point x="1076.421052631579" y="599.4736842105264"/>
      <point x="972.3157894736842" y="697.578947368421"/>
      <point x="647.4736842105264" y="797.0526315789474" type="curve" smooth="yes"/>
      <point x="431.05263157894734" y="864.9473684210526"/>
      <point x="337.0526315789474" y="896.5263157894736"/>
      <point x="337.0526315789474" y="999.6842105263158" type="curve" smooth="yes"/>
      <point x="337.0526315789474" y="1119.6842105263158"/>
      <point x="460.9473684210526" y="1169.2631578947369"/>
      <point x="595.6842105263158" y="1171.157894736842" type="curve"/>
      <point x="663.578947368421" y="1171.157894736842"/>
      <point x="810.0" y="1135.0526315789473"/>
      <point x="975.2631578947369" y="1059.2631578947369" type="curve"/>
      <point x="997.6842105263158" y="1306.0" type="line"/>
      <point x="895.578947368421" y="1337.4736842105262"/>
      <point x="704.5263157894736" y="1396.2105263157894"/>
      <point x="556.421052631579" y="1396.2105263157894" type="curve" smooth="yes"/>
      <point x="242.10526315789474" y="1396.2105263157894"/>
      <point x="88.84210526315789" y="1230.6315789473683"/>
      <point x="88.84210526315789" y="998.6315789473684" type="curve" smooth="yes"/>
      <point x="88.84210526315789" y="765.7894736842105"/>
      <point x="233.4736842105263" y="674.3157894736842"/>
      <point x="484.63157894736844" y="598.9473684210526" type="curve" smooth="yes"/>
      <point x="698.1052631578948" y="534.7368421052631"/>
      <point x="829.2631578947369" y="497.2631578947368"/>
      <point x="829.2631578947369" y="382.3157894736842" type="curve" smooth="yes"/>
      <point x="829.2631578947369" y="250.10526315789474"/>
      <point x="718.9473684210526" y="198.42105263157893"/>
      <point x="560.0" y="196.52631578947367" type="curve"/>
      <point x="439.3684210526316" y="196.52631578947367"/>
      <point x="273.2631578947368" y="245.68421052631578"/>
      <point x="130.6315789473684" y="311.4736842105263" type="curve"/>
      <point x="109.05263157894737" y="59.578947368421055" type="line"/>
      <point x="211.05263157894737" y="31.157894736842106"/>
      <point x="370.2105263157895" y="-24.315789473684212"/>
    </contour>
    <contour>
      <point x="471.1578947368421" y="-274.0" type="curve"/>
      <point x="697.0526315789473" y="-274.0" type="line"/>
      <point x="683.578947368421" y="-38.0"/>
      <point x="682.5263157894736" y="168.0"/>
      <point x="682.5263157894736" y="384.0" type="curve"/>
      <point x="682.5263157894736" y="948.0" type="line"/>
      <point x="682.5263157894736" y="1164.0"/>
      <point x="683.578947368421" y="1370.0"/>
      <point x="697.0526315789473" y="1606.0" type="curve"/>
      <point x="471.1578947368421" y="1606.0" type="line"/>
      <point x="484.63157894736844" y="1370.0"/>
      <point x="485.6842105263158" y="1164.0"/>
      <point x="485.6842105263158" y="948.0" type="curve"/>
      <point x="485.6842105263158" y="384.0" type="line"/>
      <point x="485.6842105263158" y="168.0"/>
      <point x="484.63157894736844" y="-38.0"/>
    </contour>
  </outline>
</glyph>
<glyph name="ampersand" format="2">
  <advance width="1521.3786407766993"/>
  <unicode hex="0026"/>
  <outline>
    <contour>
      <point x="1146.5825242718447" y="0.0" type="curve"/>
      <point x="1516.6601941747572" y="0.0" type="line"/>
      <point x="1368.1165048543687" y="136.03883495145632"/>
      <point x="1237.5922330097087" y="272.0776699029126"/>
      <point x="1109.0679611650485" y="408.11650485436894" type="curve"/>
      <point x="679.3786407766991" y="858.0970873786408" type="line" smooth="yes"/>
      <point x="580.4271844660194" y="959.8058252427185"/>
      <point x="539.6893203883494" y="1030.0194174757282"/>
      <point x="539.6893203883494" y="1110.9902912621358" type="curve" smooth="yes"/>
      <point x="539.6893203883494" y="1202.9320388349515"/>
      <point x="598.9126213592232" y="1261.3980582524273"/>
      <point x="690.0970873786407" y="1267.6504854368932" type="curve"/>
      <point x="776.5436893203884" y="1261.3980582524273"/>
      <point x="843.2427184466019" y="1202.6796116504856"/>
      <point x="843.2427184466019" y="1119.2233009708737" type="curve" smooth="yes"/>
      <point x="843.2427184466019" y="1015.5533980582526"/>
      <point x="736.3106796116504" y="953.5339805825244"/>
      <point x="633.8834951456311" y="888.0582524271845" type="curve"/>
      <point x="760.6990291262135" y="738.0" type="line"/>
      <point x="880.1553398058253" y="819.747572815534"/>
      <point x="1077.398058252427" y="951.7475728155339"/>
      <point x="1077.398058252427" y="1127.2427184466019" type="curve" smooth="yes"/>
      <point x="1077.398058252427" y="1336.0"/>
      <point x="902.8932038834952" y="1454.504854368932"/>
      <point x="676.8349514563107" y="1454.504854368932" type="curve" smooth="yes"/>
      <point x="456.2718446601942" y="1454.504854368932"/>
      <point x="278.71844660194176" y="1331.0097087378642"/>
      <point x="278.71844660194176" y="1107.2233009708739" type="curve" smooth="yes"/>
      <point x="278.71844660194176" y="968.73786407767"/>
      <point x="350.9514563106796" y="858.7378640776699"/>
      <point x="464.4271844660194" y="738.252427184466" type="curve" smooth="yes"/>
      <point x="907.6310679611651" y="272.0" type="line"/>
      <point x="994.6213592233009" y="182.0"/>
      <point x="1083.6116504854367" y="88.25242718446601"/>
    </contour>
    <contour>
      <point x="524.4660194174758" y="-22.75728155339806" type="curve" smooth="yes"/>
      <point x="686.1941747572815" y="-22.75728155339806"/>
      <point x="827.1844660194175" y="52.71844660194174"/>
      <point x="968.1747572815533" y="186.93203883495147" type="curve"/>
      <point x="994.9320388349514" y="186.93203883495147" type="line"/>
      <point x="987.9417475728155" y="228.19417475728156" type="line"/>
      <point x="851.8834951456311" y="370.25242718446606" type="line"/>
      <point x="757.7087378640775" y="254.11650485436894"/>
      <point x="634.5242718446602" y="191.16504854368935"/>
      <point x="568.3106796116505" y="191.16504854368935" type="curve"/>
      <point x="423.631067961165" y="197.16504854368935"/>
      <point x="333.6893203883495" y="281.126213592233"/>
      <point x="333.6893203883495" y="405.80582524271847" type="curve" smooth="yes"/>
      <point x="333.6893203883495" y="527.7087378640776"/>
      <point x="415.3592233009708" y="618.9126213592233"/>
      <point x="543.7669902912621" y="678.8932038834951" type="curve"/>
      <point x="431.66990291262135" y="834.4854368932039" type="line"/>
      <point x="249.4174757281553" y="754.2330097087379"/>
      <point x="78.44660194174757" y="616.2330097087379"/>
      <point x="78.44660194174757" y="373.747572815534" type="curve" smooth="yes"/>
      <point x="78.44660194174757" y="148.9902912621359"/>
      <point x="227.20388349514562" y="-22.75728155339806"/>
    </contour>
    <contour>
      <point x="1141.8640776699028" y="349.2233009708738" type="line"/>
      <point x="1239.631067961165" y="470.2135922330097"/>
      <point x="1335.902912621359" y="587.7087378640776"/>
      <point x="1443.1844660194176" y="697.9417475728155" type="curve"/>
      <point x="1206.4660194174755" y="851.0873786407766" type="line"/>
      <point x="1145.980582524272" y="723.3398058252427"/>
      <point x="1074.2330097087379" y="609.5922330097088"/>
      <point x="996.9902912621359" y="490.8543689320388" type="curve"/>
    </contour>
  </outline>
</glyph>
<glyph name="quotesingle" format="2">
  <advance width="438.63157894736844"/>
  <unicode hex="0027"/>
  <outline>
    <contour>
      <point x="106.84210526315789" y="819.3684210526316" type="curve"/>
      <point x="299.89473684210526" y="821.3684210526316" type="line"/>
      <point x="307.2631578947368" y="1046.3157894736842"/>
      <point x="320.4210526315789" y="1269.157894736842"/>
      <point x="346.9473684210526" y="1489.0526315789473" type="curve"/>
      <point x="58.736842105263165" y="1482.842105263158" type="line"/>
      <point x="85.26315789473685" y="1264.0"/>
      <point x="99.47368421052632" y="1043.157894736842"/>
    </contour>
  </outline>
</glyph>
<glyph name="parenleft" format="2">
  <advance width="809.0526315789474"/>
  <unicode hex="0028"/>
  <outline>
    <contour>
      <point x="544.1052631578947" y="-258.7368421052632" type="curve"/>
      <point x="757.3684210526316" y="-179.26315789473685" type="line"/>
      <point x="539.2631578947368" y="43.89473684210527"/>
      <point x="364.0" y="285.15789473684214"/>
      <point x="364.0" y="646.9473684210526" type="curve" smooth="yes"/>
      <point x="364.0" y="1009.6842105263158"/>
      <point x="539.2631578947368" y="1250.0"/>
      <point x="757.3684210526316" y="1473.157894736842" type="curve"/>
      <point x="544.1052631578947" y="1552.6315789473683" type="line"/>
      <point x="335.15789473684214" y="1355.4736842105262"/>
      <point x="97.89473684210526" y="1057.578947368421"/>
      <point x="97.89473684210526" y="646.9473684210526" type="curve" smooth="yes"/>
      <point x="97.89473684210526" y="237.26315789473682"/>
      <point x="335.15789473684214" y="-61.57894736842104"/>
    </contour>
  </outline>
</glyph>
<glyph name="asterisk" format="2">
  <advance width="973.8947368421052"/>
  <unicode hex="002A"/>
  <outline>
    <contour>
      <point x="833.6842105263157" y="716.3157894736842" type="curve"/>
      <point x="928.5263157894736" y="878.4210526315788" type="line"/>
      <point x="788.0" y="941.8947368421052"/>
      <point x="650.6315789473684" y="1009.4736842105264"/>
      <point x="515.1578947368421" y="1079.0526315789473" type="curve"/>
      <point x="387.1578947368421" y="1167.3684210526317"/>
      <point x="263.1578947368421" y="1256.7368421052631"/>
      <point x="140.21052631578948" y="1350.2105263157894" type="curve"/>
      <point x="45.368421052631575" y="1188.1052631578948" type="line"/>
      <point x="185.89473684210526" y="1124.6315789473686"/>
      <point x="324.3157894736842" y="1057.0526315789475"/>
      <point x="460.7368421052632" y="985.4736842105264" type="curve"/>
      <point x="586.7368421052631" y="899.1578947368421"/>
      <point x="710.7368421052631" y="808.7368421052632"/>
    </contour>
    <contour>
      <point x="141.26315789473685" y="716.3157894736842" type="line"/>
      <point x="263.1578947368421" y="809.7894736842105"/>
      <point x="388.2105263157894" y="899.1578947368421"/>
      <point x="515.1578947368421" y="987.4736842105262" type="curve"/>
      <point x="650.6315789473684" y="1057.0526315789475"/>
      <point x="789.0526315789474" y="1124.6315789473686"/>
      <point x="928.5263157894736" y="1189.157894736842" type="curve"/>
      <point x="833.6842105263157" y="1350.2105263157894" type="line"/>
      <point x="710.7368421052631" y="1256.7368421052631"/>
      <point x="586.7368421052631" y="1167.3684210526317"/>
      <point x="460.7368421052632" y="1080.0" type="curve"/>
      <point x="323.2631578947369" y="1009.4736842105264"/>
      <point x="185.89473684210526" y="941.8947368421052"/>
      <point x="45.368421052631575" y="878.4210526315788" type="curve"/>
    </contour>
    <contour>
      <point x="392.5263157894737" y="574.3157894736842" type="curve"/>
      <point x="581.3684210526316" y="574.3157894736842" type="line"/>
      <point x="563.7894736842105" y="727.4736842105264"/>
      <point x="551.3684210526316" y="880.6315789473684"/>
      <point x="539.8947368421052" y="1034.7368421052631" type="curve"/>
      <point x="551.3684210526316" y="1186.9473684210527"/>
      <point x="563.7894736842105" y="1340.1052631578948"/>
      <point x="580.3157894736842" y="1493.2631578947369" type="curve"/>
      <point x="392.5263157894737" y="1493.2631578947369" type="line"/>
      <point x="410.10526315789474" y="1340.1052631578948"/>
      <point x="422.5263157894737" y="1186.9473684210527"/>
      <point x="434.0" y="1034.7368421052631" type="curve"/>
      <point x="422.5263157894737" y="880.6315789473684"/>
      <point x="410.10526315789474" y="727.4736842105264"/>
    </contour>
  </outline>
</glyph>
<glyph name="plus" format="2">
  <advance width="1191.578947368421"/>
  <unicode hex="002B"/>
  <outline>
    <contour>
      <point x="468.10526315789474" y="107.89473684210526" type="curve"/>
      <point x="723.4736842105262" y="107.89473684210526" type="line"/>
      <point x="714.2105263157895" y="241.78947368421052"/>
      <point x="713.1578947368421" y="368.63157894736844"/>
      <point x="713.1578947368421" y="478.42105263157896" type="curve"/>
      <point x="713.1578947368421" y="731.0526315789474" type="line"/>
      <point x="713.1578947368421" y="840.8421052631579"/>
      <point x="714.2105263157895" y="967.6842105263158"/>
      <point x="723.4736842105262" y="1101.578947368421" type="curve"/>
      <point x="468.10526315789474" y="1101.578947368421" type="line"/>
      <point x="477.3684210526316" y="967.6842105263158"/>
      <point x="478.42105263157896" y="840.8421052631579"/>
      <point x="478.42105263157896" y="731.0526315789474" type="curve"/>
      <point x="478.42105263157896" y="478.42105263157896" type="line"/>
      <point x="478.42105263157896" y="368.63157894736844"/>
      <point x="477.3684210526316" y="241.78947368421052"/>
    </contour>
    <contour>
      <point x="108.42105263157895" y="480.2105263157895" type="line"/>
      <point x="242.31578947368422" y="489.47368421052636"/>
      <point x="369.1578947368421" y="490.5263157894737"/>
      <point x="478.9473684210526" y="490.5263157894737" type="curve"/>
      <point x="712.6315789473684" y="490.5263157894737" type="line"/>
      <point x="822.421052631579" y="490.5263157894737"/>
      <point x="949.2631578947369" y="489.47368421052636"/>
      <point x="1083.157894736842" y="480.2105263157895" type="curve"/>
      <point x="1083.157894736842" y="729.2631578947368" type="line"/>
      <point x="949.2631578947369" y="720.0"/>
      <point x="822.421052631579" y="718.9473684210526"/>
      <point x="712.6315789473684" y="718.9473684210526" type="curve"/>
      <point x="478.9473684210526" y="718.9473684210526" type="line"/>
      <point x="369.1578947368421" y="718.9473684210526"/>
      <point x="242.31578947368422" y="720.0"/>
      <point x="108.42105263157895" y="729.2631578947368" type="curve"/>
    </contour>
  </outline>
</glyph>
<glyph name="comma" format="2">
  <advance width="489.05263157894734"/>
  <unicode hex="002C"/>
  <outline>
    <contour>
      <point x="36.31578947368421" y="-314.0" type="curve"/>
      <point x="174.42105263157896" y="-310.94736842105266" type="line"/>
      <point x="256.0" y="-219.26315789473685"/>
      <point x="403.0526315789474" y="-20.210526315789473"/>
      <point x="403.0526315789474" y="133.26315789473685" type="curve" smooth="yes"/>
      <point x="403.0526315789474" y="228.6315789473684"/>
      <point x="360.9473684210526" y="301.57894736842104"/>
      <point x="261.1578947368421" y="313.0526315789474" type="curve"/>
      <point x="115.47368421052633" y="302.63157894736844" type="line"/>
      <point x="133.05263157894737" y="222.0"/>
      <point x="140.31578947368422" y="141.36842105263156"/>
      <point x="140.31578947368422" y="67.05263157894737" type="curve"/>
      <point x="140.31578947368422" y="-53.263157894736835"/>
      <point x="98.52631578947368" y="-197.05263157894737"/>
    </contour>
  </outline>
</glyph>
<glyph name="hyphen" format="2">
  <advance width="850.5263157894736"/>
  <unicode hex="002D"/>
  <outline>
    <contour>
      <point x="108.42105263157895" y="474.94736842105266" type="line"/>
      <point x="223.05263157894737" y="484.21052631578954"/>
      <point x="331.6842105263158" y="485.2631578947369"/>
      <point x="425.2631578947368" y="485.2631578947369" type="curve"/>
      <point x="518.8421052631579" y="485.2631578947369"/>
      <point x="627.4736842105264" y="484.21052631578954"/>
      <point x="742.1052631578947" y="474.94736842105266" type="curve"/>
      <point x="742.1052631578947" y="724.0" type="line"/>
      <point x="627.4736842105264" y="714.7368421052632"/>
      <point x="518.8421052631579" y="713.6842105263158"/>
      <point x="425.2631578947368" y="713.6842105263158" type="curve"/>
      <point x="331.6842105263158" y="713.6842105263158"/>
      <point x="223.05263157894737" y="714.7368421052632"/>
      <point x="108.42105263157895" y="724.0" type="curve"/>
    </contour>
  </outline>
</glyph>
<glyph name="slash" format="2">
  <advance width="925.4736842105262"/>
  <unicode hex="002F"/>
  <outline>
    <contour>
      <point x="31.78947368421053" y="0.0" type="curve"/>
      <point x="323.6842105263158" y="0.0" type="line"/>
      <point x="366.6315789473684" y="148.0"/>
      <point x="414.2105263157895" y="274.0"/>
      <point x="487.6842105263158" y="456.0" type="curve"/>
      <point x="684.3157894736842" y="948.0" type="line"/>
      <point x="761.7894736842105" y="1142.0"/>
      <point x="815.4736842105264" y="1272.0"/>
      <point x="893.6842105263158" y="1426.0" type="curve"/>
      <point x="602.8421052631579" y="1426.0" type="line"/>
      <point x="556.9473684210526" y="1272.0"/>
      <point x="507.36842105263156" y="1140.9473684210527"/>
      <point x="431.89473684210526" y="952.0" type="curve"/>
      <point x="233.26315789473682" y="456.0" type="line"/>
      <point x="159.78947368421052" y="274.0"/>
      <point x="106.10526315789474" y="148.0"/>
    </contour>
  </outline>
</glyph>
<glyph name="one" format="2">
  <advance width="902.3157894736842"/>
  <unicode hex="0031"/>
  <outline>
    <contour>
      <point x="117.89473684210527" y="890.2105263157894" type="line"/>
      <point x="265.05263157894734" y="983.4736842105264"/>
      <point x="416.42105263157896" y="1062.1052631578948"/>
      <point x="569.7894736842105" y="1138.7368421052631" type="curve"/>
      <point x="579.2631578947369" y="1382.5263157894738" type="line"/>
      <point x="402.0" y="1294.5263157894738"/>
      <point x="224.6315789473684" y="1207.4736842105262"/>
      <point x="43.26315789473684" y="1136.0" type="curve"/>
    </contour>
    <contour>
      <point x="418.84210526315786" y="0.0" type="curve"/>
      <point x="732.0" y="0.0" type="line"/>
      <point x="716.5263157894736" y="143.68421052631578"/>
      <point x="710.2105263157895" y="268.42105263157896"/>
      <point x="710.2105263157895" y="433.57894736842104" type="curve"/>
      <point x="710.2105263157895" y="896.1052631578947" type="line"/>
      <point x="710.2105263157895" y="1059.7894736842106"/>
      <point x="715.3684210526316" y="1218.7368421052631"/>
      <point x="732.0" y="1374.3157894736842" type="curve"/>
      <point x="579.2631578947369" y="1382.5263157894738" type="line"/>
      <point x="428.2105263157895" y="1261.2631578947369" type="line"/>
      <point x="436.63157894736844" y="1121.6842105263158"/>
      <point x="439.6842105263158" y="983.1578947368421"/>
      <point x="439.6842105263158" y="844.5263157894736" type="curve"/>
      <point x="439.6842105263158" y="433.57894736842104" type="line"/>
      <point x="439.6842105263158" y="268.42105263157896"/>
      <point x="432.3157894736842" y="143.68421052631578"/>
    </contour>
  </outline>
</glyph>
<glyph name="two" format="2">
  <advance width="1130.2105263157894"/>
  <unicode hex="0032"/>
  <outline>
    <contour>
      <point x="89.15789473684211" y="0.0" type="line"/>
      <point x="1036.5263157894738" y="0.0" type="line"/>
      <point x="1036.5263157894738" y="258.63157894736844" type="line"/>
      <point x="896.7368421052631" y="235.68421052631578"/>
      <point x="756.0" y="232.6315789473684"/>
      <point x="616.2105263157895" y="232.6315789473684" type="curve"/>
      <point x="359.4736842105263" y="232.6315789473684" type="line"/>
      <point x="394.42105263157896" y="179.78947368421052" type="line"/>
      <point x="598.5263157894736" y="344.2105263157895" type="line"/>
      <point x="879.3684210526316" y="570.0"/>
      <point x="1017.2631578947369" y="778.0"/>
      <point x="1017.2631578947369" y="994.9473684210526" type="curve" smooth="yes"/>
      <point x="1017.2631578947369" y="1248.1052631578948"/>
      <point x="853.3684210526316" y="1402.5263157894738"/>
      <point x="556.2105263157895" y="1402.5263157894738" type="curve" smooth="yes"/>
      <point x="411.57894736842104" y="1402.5263157894738"/>
      <point x="198.63157894736844" y="1335.0526315789475"/>
      <point x="82.10526315789474" y="1295.2631578947369" type="curve"/>
      <point x="106.73684210526316" y="1030.7368421052631" type="line"/>
      <point x="265.5789473684211" y="1118.421052631579"/>
      <point x="435.5789473684211" y="1172.2105263157896"/>
      <point x="503.57894736842104" y="1172.2105263157896" type="curve"/>
      <point x="660.1052631578948" y="1168.1052631578948"/>
      <point x="738.421052631579" y="1100.9473684210527"/>
      <point x="738.421052631579" y="960.3157894736842" type="curve" smooth="yes"/>
      <point x="738.421052631579" y="776.5263157894736"/>
      <point x="576.5263157894738" y="603.6842105263157"/>
      <point x="315.1578947368421" y="377.36842105263156" type="curve"/>
      <point x="239.78947368421052" y="313.0526315789474"/>
      <point x="164.5263157894737" y="256.10526315789474"/>
      <point x="89.15789473684211" y="203.15789473684208" type="curve"/>
    </contour>
  </outline>
</glyph>
<glyph name="three" format="2">
  <advance width="1158.7961165048544"/>
  <unicode hex="0033"/>
  <outline>
    <contour>
      <point x="557.26213592233" y="-25.009708737864077" type="curve" smooth="yes"/>
      <point x="909.5728155339806" y="-25.009708737864077"/>
      <point x="1073.0873786407767" y="145.24271844660194"/>
      <point x="1073.0873786407767" y="374.2718446601942" type="curve" smooth="yes"/>
      <point x="1073.0873786407767" y="590.7572815533981"/>
      <point x="920.6213592233009" y="695.747572815534"/>
      <point x="776.8737864077669" y="721.747572815534" type="curve"/>
      <point x="776.8737864077669" y="743.26213592233" type="line"/>
      <point x="918.3689320388349" y="774.5048543689321"/>
      <point x="1032.8543689320388" y="881.7281553398058"/>
      <point x="1032.8543689320388" y="1053.7281553398059" type="curve" smooth="yes"/>
      <point x="1032.8543689320388" y="1267.495145631068"/>
      <point x="858.3495145631068" y="1403.2621359223301"/>
      <point x="567.26213592233" y="1403.2621359223301" type="curve" smooth="yes"/>
      <point x="425.747572815534" y="1403.2621359223301"/>
      <point x="217.4757281553398" y="1331.2815533980581"/>
      <point x="104.2135922330097" y="1290.2912621359224" type="curve"/>
      <point x="129.72815533980582" y="1037.0679611650485" type="line"/>
      <point x="286.95145631067965" y="1122.5436893203882"/>
      <point x="456.9514563106796" y="1171.8058252427186"/>
      <point x="523.2038834951456" y="1171.8058252427186" type="curve"/>
      <point x="658.8932038834952" y="1167.5533980582527"/>
      <point x="754.5825242718447" y="1116.5825242718447"/>
      <point x="754.5825242718447" y="999.3980582524272" type="curve" smooth="yes"/>
      <point x="754.5825242718447" y="886.2135922330096"/>
      <point x="668.3883495145631" y="811.7864077669902"/>
      <point x="468.5242718446602" y="807.5339805825242" type="curve"/>
      <point x="420.504854368932" y="807.5339805825242"/>
      <point x="372.73786407766994" y="809.5339805825242"/>
      <point x="326.46601941747576" y="818.5436893203882" type="curve"/>
      <point x="326.46601941747576" y="589.6504854368932" type="line"/>
      <point x="379.24271844660194" y="596.6601941747573"/>
      <point x="430.0194174757282" y="598.6601941747573"/>
      <point x="484.54368932038835" y="598.6601941747573" type="curve"/>
      <point x="682.4077669902913" y="594.4077669902913"/>
      <point x="795.0679611650485" y="528.7184466019418"/>
      <point x="795.0679611650485" y="396.56310679611653" type="curve" smooth="yes"/>
      <point x="795.0679611650485" y="284.3883495145631"/>
      <point x="718.3689320388349" y="208.9514563106796"/>
      <point x="529.7281553398058" y="204.6990291262136" type="curve"/>
      <point x="408.9902912621359" y="204.6990291262136"/>
      <point x="243.2233009708738" y="257.2038834951456"/>
      <point x="100.7378640776699" y="326.4466019417476" type="curve"/>
      <point x="77.2233009708738" y="70.4660194174757" type="line"/>
      <point x="183.2233009708738" y="37.72815533980583"/>
      <point x="347.7281553398058" y="-25.009708737864077"/>
    </contour>
  </outline>
</glyph>
<glyph name="four" format="2">
  <advance width="1219.5533980582525"/>
  <unicode hex="0034"/>
  <outline>
    <contour>
      <point x="661.378640776699" y="0.0" type="curve"/>
      <point x="974.9320388349514" y="0.0" type="line"/>
      <point x="954.9126213592233" y="131.00970873786406"/>
      <point x="952.9126213592233" y="238.77669902912623"/>
      <point x="952.9126213592233" y="396.2912621359223" type="curve"/>
      <point x="952.9126213592233" y="892.7572815533981" type="line"/>
      <point x="952.9126213592233" y="1050.757281553398"/>
      <point x="955.1650485436893" y="1208.757281553398"/>
      <point x="974.9320388349514" y="1374.757281553398" type="curve"/>
      <point x="668.3883495145631" y="1374.757281553398" type="line"/>
      <point x="624.6601941747573" y="1289.7669902912621"/>
      <point x="563.4174757281554" y="1201.0291262135922"/>
      <point x="502.17475728155335" y="1116.0388349514562" type="curve"/>
      <point x="334.19417475728153" y="877.0679611650485" type="line"/>
      <point x="247.45631067961165" y="756.5825242718447"/>
      <point x="132.71844660194174" y="594.8543689320388"/>
      <point x="51.728155339805824" y="499.88349514563106" type="curve"/>
      <point x="51.728155339805824" y="296.6990291262136" type="line"/>
      <point x="782.7184466019418" y="296.6990291262136" type="line"/>
      <point x="897.2427184466019" y="296.6990291262136"/>
      <point x="1063.0291262135922" y="294.44660194174753"/>
      <point x="1167.3009708737866" y="283.18446601941747" type="curve"/>
      <point x="1167.3009708737866" y="544.4271844660194" type="line"/>
      <point x="1063.0291262135922" y="531.1650485436893"/>
      <point x="897.2427184466019" y="529.1650485436893"/>
      <point x="782.7184466019418" y="529.1650485436893" type="curve"/>
      <point x="751.9611650485436" y="524.1165048543689" type="line"/>
      <point x="266.1747572815534" y="524.1165048543689" type="line"/>
      <point x="287.6893203883495" y="447.43689320388347" type="line"/>
      <point x="337.92233009708735" y="532.1747572815534"/>
      <point x="392.9126213592233" y="616.9126213592233"/>
      <point x="453.9029126213592" y="701.6504854368933" type="curve"/>
      <point x="680.1165048543689" y="1022.6019417475728" type="line"/>
      <point x="749.1067961165048" y="1121.0873786407767"/>
      <point x="817.8446601941748" y="1212.8155339805826"/>
      <point x="888.8349514563107" y="1295.5339805825242" type="curve"/>
      <point x="677.6699029126214" y="1255.1650485436892" type="line"/>
      <point x="693.1844660194175" y="1116.1747572815534"/>
      <point x="695.4368932038835" y="979.1844660194175"/>
      <point x="695.4368932038835" y="840.1941747572815" type="curve"/>
      <point x="695.4368932038835" y="436.56310679611653" type="line"/>
      <point x="683.3980582524272" y="396.2912621359223" type="line"/>
      <point x="683.3980582524272" y="238.77669902912623"/>
      <point x="681.3980582524272" y="131.00970873786406"/>
    </contour>
  </outline>
</glyph>
<glyph name="five" format="2">
  <advance width="1161.5339805825245"/>
  <unicode hex="0035"/>
  <outline>
    <contour>
      <point x="551.0097087378641" y="-25.009708737864077" type="curve" smooth="yes"/>
      <point x="903.5728155339806" y="-25.009708737864077"/>
      <point x="1075.8252427184466" y="169.49514563106794"/>
      <point x="1075.8252427184466" y="454.9902912621359" type="curve" smooth="yes"/>
      <point x="1075.8252427184466" y="749.7087378640776"/>
      <point x="890.0970873786407" y="891.7087378640778"/>
      <point x="659.8640776699029" y="891.7087378640778" type="curve" smooth="yes"/>
      <point x="582.3689320388349" y="891.7087378640778"/>
      <point x="497.90291262135923" y="868.7184466019417"/>
      <point x="431.16504854368935" y="838.9708737864078" type="curve"/>
      <point x="409.65048543689323" y="838.9708737864078" type="line"/>
      <point x="409.90291262135923" y="913.9417475728155" type="line"/>
      <point x="411.9029126213592" y="1017.4174757281553"/>
      <point x="418.4077669902913" y="1122.8932038834953"/>
      <point x="429.92233009708735" y="1228.116504854369" type="curve"/>
      <point x="326.873786407767" y="1142.2912621359224" type="line"/>
      <point x="526.1165048543689" y="1142.2912621359224" type="line"/>
      <point x="683.3592233009709" y="1142.2912621359224"/>
      <point x="844.6019417475728" y="1140.5436893203885"/>
      <point x="1002.0970873786408" y="1116.0194174757282" type="curve"/>
      <point x="1002.0970873786408" y="1374.757281553398" type="line"/>
      <point x="137.94174757281553" y="1374.757281553398" type="line"/>
      <point x="155.45631067961165" y="1212.7378640776699"/>
      <point x="157.70873786407768" y="1034.2135922330099"/>
      <point x="157.70873786407768" y="843.6893203883495" type="curve"/>
      <point x="157.70873786407768" y="618.4077669902912" type="line"/>
      <point x="274.81553398058253" y="609.6504854368933" type="line"/>
      <point x="359.7669902912621" y="663.6116504854368"/>
      <point x="457.4757281553398" y="682.3495145631067"/>
      <point x="530.6990291262136" y="682.3495145631067" type="curve"/>
      <point x="685.8834951456311" y="678.0970873786407"/>
      <point x="797.5533980582525" y="614.1359223300971"/>
      <point x="797.5533980582525" y="447.7669902912621" type="curve" smooth="yes"/>
      <point x="797.5533980582525" y="293.378640776699"/>
      <point x="710.3689320388349" y="208.9514563106796"/>
      <point x="525.7281553398058" y="204.6990291262136" type="curve"/>
      <point x="406.9902912621359" y="204.6990291262136"/>
      <point x="242.9708737864078" y="257.2038834951456"/>
      <point x="100.7378640776699" y="326.4466019417476" type="curve"/>
      <point x="77.2233009708738" y="70.4660194174757" type="line"/>
      <point x="182.97087378640776" y="37.72815533980583"/>
      <point x="345.4757281553398" y="-25.009708737864077"/>
    </contour>
  </outline>
</glyph>
<glyph name="seven" format="2">
  <advance width="1087.2631578947369"/>
  <unicode hex="0037"/>
  <outline>
    <contour>
      <point x="182.8421052631579" y="0.0" type="curve"/>
      <point x="517.578947368421" y="0.0" type="line"/>
      <point x="565.2631578947368" y="156.21052631578948"/>
      <point x="626.3157894736842" y="310.2105263157895"/>
      <point x="694.8421052631579" y="464.5263157894737" type="curve"/>
      <point x="812.9473684210526" y="730.2105263157895" type="line"/>
      <point x="883.3684210526316" y="889.2631578947369"/>
      <point x="948.8421052631579" y="1032.2105263157896"/>
      <point x="1018.3157894736842" y="1168.6315789473683" type="curve"/>
      <point x="1018.3157894736842" y="1374.3157894736842" type="line"/>
      <point x="50.0" y="1374.3157894736842" type="line"/>
      <point x="50.0" y="1112.5263157894738" type="line"/>
      <point x="208.0" y="1135.3684210526317"/>
      <point x="364.94736842105266" y="1141.6842105263158"/>
      <point x="520.9473684210526" y="1141.6842105263158" type="curve"/>
      <point x="785.2631578947369" y="1141.6842105263158" type="line"/>
      <point x="714.5263157894736" y="1196.421052631579" type="line"/>
      <point x="684.4210526315791" y="1100.0"/>
      <point x="644.8421052631579" y="1003.4736842105264"/>
      <point x="601.1578947368421" y="907.0526315789474" type="curve"/>
      <point x="422.42105263157896" y="512.2105263157895" type="line"/>
      <point x="346.9473684210526" y="344.10526315789474"/>
      <point x="266.42105263157896" y="170.0"/>
    </contour>
  </outline>
</glyph>
<glyph name="equal" format="2">
  <advance width="1151.578947368421"/>
  <unicode hex="003D"/>
  <outline>
    <contour>
      <point x="118.94736842105263" y="243.89473684210526" type="line"/>
      <point x="252.8421052631579" y="253.1578947368421"/>
      <point x="379.6842105263158" y="254.21052631578948"/>
      <point x="489.4736842105263" y="254.21052631578948" type="curve"/>
      <point x="662.1052631578947" y="254.21052631578948" type="line"/>
      <point x="771.8947368421053" y="254.21052631578948"/>
      <point x="898.7368421052631" y="253.1578947368421"/>
      <point x="1032.6315789473683" y="243.89473684210526" type="curve"/>
      <point x="1032.6315789473683" y="492.94736842105266" type="line"/>
      <point x="898.7368421052631" y="483.6842105263158"/>
      <point x="771.8947368421053" y="482.63157894736844"/>
      <point x="662.1052631578947" y="482.63157894736844" type="curve"/>
      <point x="489.4736842105263" y="482.63157894736844" type="line"/>
      <point x="379.6842105263158" y="482.63157894736844"/>
      <point x="252.8421052631579" y="483.6842105263158"/>
      <point x="118.94736842105263" y="492.94736842105266" type="curve"/>
    </contour>
    <contour>
      <point x="118.94736842105263" y="716.5263157894738" type="line"/>
      <point x="252.8421052631579" y="725.7894736842105"/>
      <point x="379.6842105263158" y="726.8421052631579"/>
      <point x="489.4736842105263" y="726.8421052631579" type="curve"/>
      <point x="662.1052631578947" y="726.8421052631579" type="line"/>
      <point x="771.8947368421053" y="726.8421052631579"/>
      <point x="898.7368421052631" y="725.7894736842105"/>
      <point x="1032.6315789473683" y="716.5263157894738" type="curve"/>
      <point x="1032.6315789473683" y="965.578947368421" type="line"/>
      <point x="898.7368421052631" y="956.3157894736843"/>
      <point x="771.8947368421053" y="955.2631578947369"/>
      <point x="662.1052631578947" y="955.2631578947369" type="curve"/>
      <point x="489.4736842105263" y="955.2631578947369" type="line"/>
      <point x="379.6842105263158" y="955.2631578947369"/>
      <point x="252.8421052631579" y="956.3157894736843"/>
      <point x="118.94736842105263" y="965.578947368421" type="curve"/>
    </contour>
  </outline>
</glyph>
<glyph name="at" format="2">
  <advance width="1778.421052631579"/>
  <unicode hex="0040"/>
  <outline>
    <contour>
      <point x="950.5263157894736" y="-280.8421052631579" type="curve" smooth="yes"/>
      <point x="1120.6315789473686" y="-280.8421052631579"/>
      <point x="1350.421052631579" y="-212.42105263157893"/>
      <point x="1516.6315789473683" y="-143.57894736842104" type="curve"/>
      <point x="1516.6315789473683" y="39.78947368421052" type="line"/>
      <point x="1300.9473684210527" y="-66.63157894736842"/>
      <point x="1075.6842105263158" y="-117.05263157894737"/>
      <point x="950.5263157894736" y="-125.15789473684211" type="curve"/>
      <point x="414.42105263157896" y="-117.05263157894737"/>
      <point x="173.1578947368421" y="236.10526315789474"/>
      <point x="267.36842105263156" y="671.2631578947369" type="curve" smooth="yes"/>
      <point x="342.7368421052632" y="1021.7894736842106"/>
      <point x="582.0" y="1216.2105263157894"/>
      <point x="940.5263157894736" y="1224.3157894736842" type="curve"/>
      <point x="1354.7368421052631" y="1216.2105263157894"/>
      <point x="1593.8947368421052" y="939.4736842105264"/>
      <point x="1514.0" y="537.0526315789474" type="curve" smooth="yes"/>
      <point x="1487.2631578947369" y="402.3157894736842"/>
      <point x="1375.157894736842" y="295.47368421052636"/>
      <point x="1296.2105263157894" y="291.2631578947369" type="curve"/>
      <point x="1207.4736842105262" y="297.3684210526316"/>
      <point x="1177.2631578947367" y="361.57894736842104"/>
      <point x="1200.1052631578948" y="471.57894736842104" type="curve"/>
      <point x="1233.578947368421" y="632.0" type="line"/>
      <point x="1260.6315789473683" y="744.5263157894736"/>
      <point x="1291.7894736842104" y="857.2631578947368"/>
      <point x="1334.0" y="968.6315789473684" type="curve"/>
      <point x="1125.6842105263158" y="957.3684210526316" type="line"/>
      <point x="1092.6315789473683" y="852.6315789473684" type="line"/>
      <point x="1074.2105263157896" y="852.6315789473684" type="line"/>
      <point x="1021.6842105263156" y="929.1578947368421"/>
      <point x="921.578947368421" y="979.578947368421"/>
      <point x="836.5263157894736" y="979.578947368421" type="curve" smooth="yes"/>
      <point x="650.6315789473684" y="979.578947368421"/>
      <point x="516.3157894736842" y="823.6842105263158"/>
      <point x="473.57894736842104" y="614.7368421052631" type="curve" smooth="yes"/>
      <point x="422.5263157894737" y="365.05263157894734"/>
      <point x="527.1578947368421" y="139.68421052631578"/>
      <point x="754.421052631579" y="139.68421052631578" type="curve" smooth="yes"/>
      <point x="826.6315789473684" y="139.68421052631578"/>
      <point x="921.578947368421" y="185.78947368421055"/>
      <point x="999.8947368421053" y="272.5263157894737" type="curve"/>
      <point x="1017.2631578947369" y="272.5263157894737" type="line"/>
      <point x="1049.2631578947369" y="192.21052631578948"/>
      <point x="1141.2631578947369" y="121.78947368421052"/>
      <point x="1296.5263157894738" y="121.78947368421052" type="curve" smooth="yes"/>
      <point x="1401.0526315789475" y="121.78947368421052"/>
      <point x="1627.6842105263158" y="252.94736842105266"/>
      <point x="1677.157894736842" y="504.0" type="curve" smooth="yes"/>
      <point x="1771.578947368421" y="986.421052631579"/>
      <point x="1454.3157894736842" y="1380.0"/>
      <point x="943.578947368421" y="1380.0" type="curve" smooth="yes"/>
      <point x="555.1578947368421" y="1380.0"/>
      <point x="201.68421052631578" y="1171.6842105263158"/>
      <point x="104.31578947368422" y="705.578947368421" type="curve" smooth="yes"/>
      <point x="-4.421052631578945" y="188.73684210526315"/>
      <point x="307.89473684210526" y="-280.8421052631579"/>
    </contour>
    <contour>
      <point x="816.1052631578947" y="327.05263157894734" type="curve"/>
      <point x="698.3157894736842" y="331.05263157894734"/>
      <point x="651.6842105263158" y="443.36842105263156"/>
      <point x="679.7894736842105" y="578.2105263157895" type="curve" smooth="yes"/>
      <point x="705.1578947368421" y="698.3157894736842"/>
      <point x="775.3684210526316" y="783.0526315789474"/>
      <point x="887.8947368421053" y="788.1052631578948" type="curve"/>
      <point x="949.8947368421053" y="786.9473684210527"/>
      <point x="1002.7368421052631" y="755.1578947368421"/>
      <point x="1041.0526315789475" y="713.7894736842105" type="curve"/>
      <point x="981.2631578947369" y="435.36842105263156" type="line"/>
      <point x="929.3684210526317" y="361.0526315789474"/>
      <point x="869.578947368421" y="331.05263157894734"/>
    </contour>
  </outline>
</glyph>
<glyph name="A" format="2">
  <advance width="1425.4736842105262"/>
  <unicode hex="0041"/>
  <anchor x="713.2631578947368" y="0.0" name="bottom"/>
  <anchor x="1394.2105263157894" y="0.0" name="ogonek"/>
  <anchor x="713.2631578947368" y="1426.0" name="top"/>
  <outline>
    <contour>
      <point x="25.157894736842106" y="0.0" type="curve"/>
      <point x="366.0" y="0.0" type="line"/>
      <point x="397.2631578947368" y="154.73684210526315"/>
      <point x="439.6842105263158" y="326.63157894736844"/>
      <point x="486.6315789473684" y="479.4736842105263" type="curve"/>
      <point x="701.7894736842105" y="1178.2105263157896" type="line"/>
      <point x="724.3157894736842" y="1178.2105263157896" type="line"/>
      <point x="937.4736842105262" y="472.42105263157896" type="line"/>
      <point x="981.4736842105262" y="326.5263157894737"/>
      <point x="1027.157894736842" y="155.89473684210526"/>
      <point x="1055.3684210526317" y="0.0" type="curve"/>
      <point x="1401.4736842105262" y="0.0" type="line"/>
      <point x="1335.4736842105262" y="152.0"/>
      <point x="1270.5263157894738" y="324.0"/>
      <point x="1217.8947368421052" y="482.0" type="curve"/>
      <point x="1054.1052631578948" y="972.9473684210526" type="line"/>
      <point x="995.5789473684209" y="1146.842105263158"/>
      <point x="958.2105263157895" y="1277.7894736842106"/>
      <point x="928.1052631578948" y="1426.0" type="curve"/>
      <point x="504.3157894736842" y="1426.0" type="line"/>
      <point x="474.3157894736842" y="1282.0"/>
      <point x="435.89473684210526" y="1150.0"/>
      <point x="376.3157894736842" y="972.9473684210526" type="curve"/>
      <point x="211.57894736842104" y="482.94736842105266" type="line"/>
      <point x="160.0" y="330.0"/>
      <point x="93.26315789473685" y="152.94736842105263"/>
    </contour>
    <contour>
      <point x="370.84210526315786" y="314.42105263157896" type="line"/>
      <point x="1085.0526315789475" y="314.42105263157896" type="line"/>
      <point x="1060.842105263158" y="532.3157894736842" type="line"/>
      <point x="400.3157894736842" y="532.3157894736842" type="line"/>
    </contour>
  </outline>
</glyph>
<glyph name="B" format="2">
  <advance width="1321.3203883495148"/>
  <unicode hex="0042"/>
  <outline>
    <contour>
      <point x="643.0291262135922" y="-11.009708737864077" type="curve"/>
      <point x="1110.0970873786407" y="-11.009708737864077"/>
      <point x="1252.8543689320388" y="162.73786407766988"/>
      <point x="1252.8543689320388" y="397.5145631067961" type="curve" smooth="yes"/>
      <point x="1252.8543689320388" y="611.495145631068"/>
      <point x="1124.8932038834953" y="704.252427184466"/>
      <point x="960.0970873786407" y="739.7669902912621" type="curve"/>
      <point x="960.0970873786407" y="763.0291262135922" type="line"/>
      <point x="1107.106796116505" y="802.0194174757281"/>
      <point x="1217.864077669903" y="913.5145631067961"/>
      <point x="1217.864077669903" y="1095.7669902912621" type="curve" smooth="yes"/>
      <point x="1217.864077669903" y="1306.7572815533981"/>
      <point x="1084.368932038835" y="1434.757281553398"/>
      <point x="720.2718446601942" y="1434.757281553398" type="curve"/>
      <point x="519.2427184466019" y="1434.757281553398"/>
      <point x="315.9417475728156" y="1426.0"/>
      <point x="135.6504854368932" y="1426.0" type="curve"/>
      <point x="150.9126213592233" y="1268.504854368932"/>
      <point x="157.92233009708735" y="1131.009708737864"/>
      <point x="157.92233009708735" y="949.747572815534" type="curve"/>
      <point x="157.92233009708735" y="466.7378640776699" type="line"/>
      <point x="157.92233009708735" y="288.2330097087379"/>
      <point x="150.9126213592233" y="154.9902912621359"/>
      <point x="135.6504854368932" y="0.0" type="curve"/>
      <point x="294.93203883495147" y="0.0"/>
      <point x="432.0" y="-11.009708737864077"/>
    </contour>
    <contour>
      <point x="447.2038834951457" y="225.65048543689318" type="line"/>
      <point x="442.95145631067965" y="319.3592233009709"/>
      <point x="440.69902912621365" y="409.5728155339806"/>
      <point x="440.69902912621365" y="529.0485436893204" type="curve"/>
      <point x="440.69902912621365" y="884.1941747572815" type="line"/>
      <point x="440.69902912621365" y="1008.1747572815534"/>
      <point x="442.95145631067965" y="1103.1456310679612"/>
      <point x="447.2038834951457" y="1201.3592233009708" type="curve"/>
      <point x="698.0" y="1201.3592233009708" type="line" smooth="yes"/>
      <point x="846.6407766990291" y="1201.3592233009708"/>
      <point x="920.0776699029126" y="1140.873786407767"/>
      <point x="920.0776699029126" y="1021.6893203883494" type="curve" smooth="yes"/>
      <point x="920.0776699029126" y="910.2330097087379"/>
      <point x="844.6213592233009" y="825.5533980582525"/>
      <point x="677.26213592233" y="825.5533980582525" type="curve" smooth="yes"/>
      <point x="373.37864077669906" y="825.5533980582525" type="line"/>
      <point x="373.37864077669906" y="611.4368932038834" type="line"/>
      <point x="687.7864077669904" y="611.4368932038834" type="line" smooth="yes"/>
      <point x="857.9029126213592" y="611.4368932038834"/>
      <point x="952.8155339805826" y="553.2038834951455"/>
      <point x="952.8155339805826" y="422.03883495145635" type="curve" smooth="yes"/>
      <point x="952.8155339805826" y="296.3495145631068"/>
      <point x="870.3689320388349" y="225.65048543689318"/>
      <point x="670.0582524271846" y="225.65048543689318" type="curve" smooth="yes"/>
    </contour>
  </outline>
</glyph>
<glyph name="C" format="2">
  <advance width="1366.7368421052633"/>
  <unicode hex="0043"/>
  <anchor x="793.578947368421" y="0.0" name="bottom"/>
  <anchor x="784.1052631578947" y="1426.0" name="top"/>
  <outline>
    <contour>
      <point x="828.7368421052631" y="-25.36842105263158" type="curve" smooth="yes"/>
      <point x="982.5263157894738" y="-25.36842105263158"/>
      <point x="1148.842105263158" y="17.789473684210527"/>
      <point x="1267.8947368421052" y="60.84210526315789" type="curve"/>
      <point x="1250.6315789473683" y="336.7368421052631" type="line"/>
      <point x="1126.5263157894738" y="258.4210526315789"/>
      <point x="973.2631578947369" y="214.3157894736842"/>
      <point x="862.6315789473684" y="214.3157894736842" type="curve"/>
      <point x="542.7368421052631" y="221.36842105263156"/>
      <point x="382.8421052631579" y="441.7894736842105"/>
      <point x="382.8421052631579" y="712.8421052631579" type="curve" smooth="yes"/>
      <point x="382.8421052631579" y="1026.3157894736842"/>
      <point x="572.5263157894736" y="1200.1052631578948"/>
      <point x="799.7894736842105" y="1207.157894736842" type="curve"/>
      <point x="878.7368421052632" y="1207.157894736842"/>
      <point x="1043.4736842105265" y="1169.0526315789473"/>
      <point x="1254.1052631578948" y="1072.7368421052631" type="curve"/>
      <point x="1276.7368421052633" y="1348.7368421052631" type="line"/>
      <point x="1158.6315789473683" y="1392.5263157894735"/>
      <point x="973.8947368421053" y="1454.2105263157894"/>
      <point x="802.8421052631579" y="1454.2105263157894" type="curve" smooth="yes"/>
      <point x="357.1578947368421" y="1454.2105263157894"/>
      <point x="82.10526315789474" y="1142.5263157894738"/>
      <point x="82.10526315789474" y="712.7368421052631" type="curve" smooth="yes"/>
      <point x="82.10526315789474" y="276.5263157894737"/>
      <point x="367.89473684210526" y="-25.36842105263158"/>
    </contour>
  </outline>
</glyph>
<glyph name="D" format="2">
  <advance width="1473.7894736842106"/>
  <unicode hex="0044"/>
  <anchor x="705.2631578947369" y="0.0" name="bottom"/>
  <anchor x="737.8947368421052" y="714.0" name="center"/>
  <anchor x="705.2631578947369" y="1426.0" name="top"/>
  <outline>
    <contour>
      <point x="136.00000000000003" y="0.0" type="curve"/>
      <point x="295.2631578947368" y="0.0"/>
      <point x="444.63157894736844" y="-10.421052631578947"/>
      <point x="639.4736842105264" y="-10.421052631578947" type="curve"/>
      <point x="1192.7368421052631" y="-10.421052631578947"/>
      <point x="1391.6842105263158" y="314.8421052631579"/>
      <point x="1391.6842105263158" y="717.8947368421053" type="curve" smooth="yes"/>
      <point x="1391.6842105263158" y="1167.3684210526317"/>
      <point x="1142.5263157894738" y="1434.3157894736842"/>
      <point x="706.9473684210527" y="1434.3157894736842" type="curve"/>
      <point x="506.2105263157895" y="1434.3157894736842"/>
      <point x="313.36842105263156" y="1426.0"/>
      <point x="136.00000000000003" y="1426.0" type="curve"/>
      <point x="150.5263157894737" y="1268.2105263157894"/>
      <point x="157.8947368421053" y="1131.3684210526317"/>
      <point x="157.8947368421053" y="948.9473684210526" type="curve"/>
      <point x="157.8947368421053" y="466.5263157894737" type="line"/>
      <point x="157.8947368421053" y="288.3157894736842"/>
      <point x="150.5263157894737" y="154.6315789473684"/>
    </contour>
    <contour>
      <point x="454.3157894736842" y="232.52631578947367" type="line"/>
      <point x="449.2631578947368" y="325.36842105263156"/>
      <point x="447.1578947368421" y="416.63157894736844"/>
      <point x="447.1578947368421" y="533.8947368421052" type="curve"/>
      <point x="447.1578947368421" y="883.6842105263158" type="line"/>
      <point x="447.1578947368421" y="1005.1578947368421"/>
      <point x="449.2631578947368" y="1097.4736842105262"/>
      <point x="454.3157894736842" y="1193.4736842105262" type="curve"/>
      <point x="656.9473684210527" y="1193.4736842105262" type="line"/>
      <point x="974.4210526315788" y="1184.3157894736842"/>
      <point x="1090.9473684210527" y="1005.6842105263158"/>
      <point x="1090.9473684210527" y="722.0" type="curve" smooth="yes"/>
      <point x="1090.9473684210527" y="441.7894736842105"/>
      <point x="988.9473684210526" y="242.73684210526315"/>
      <point x="639.3684210526316" y="232.52631578947367" type="curve"/>
    </contour>
  </outline>
</glyph>
<glyph name="F" format="2">
  <advance width="1157.7894736842106"/>
  <unicode hex="0046"/>
  <outline>
    <contour>
      <point x="136.00000000000003" y="0.0" type="curve"/>
      <point x="463.6842105263158" y="0.0" type="line"/>
      <point x="447.1578947368421" y="154.6315789473684"/>
      <point x="440.84210526315786" y="288.3157894736842"/>
      <point x="440.84210526315786" y="466.5263157894737" type="curve"/>
      <point x="440.84210526315786" y="904.0" type="line"/>
      <point x="440.84210526315786" y="1086.421052631579"/>
      <point x="447.1578947368421" y="1223.2631578947369"/>
      <point x="463.6842105263158" y="1381.0526315789473" type="curve"/>
      <point x="463.6842105263158" y="1426.0" type="line"/>
      <point x="136.00000000000003" y="1426.0" type="line"/>
      <point x="150.5263157894737" y="1268.2105263157894"/>
      <point x="157.8947368421053" y="1131.3684210526317"/>
      <point x="157.8947368421053" y="948.9473684210526" type="curve"/>
      <point x="157.8947368421053" y="466.5263157894737" type="line"/>
      <point x="157.8947368421053" y="288.3157894736842"/>
      <point x="150.5263157894737" y="154.6315789473684"/>
    </contour>
    <contour>
      <point x="368.84210526315786" y="586.6315789473684" type="line"/>
      <point x="624.2105263157895" y="586.6315789473684" type="line"/>
      <point x="796.421052631579" y="586.6315789473684"/>
      <point x="912.9473684210527" y="584.5263157894738"/>
      <point x="1039.3684210526317" y="574.1052631578948" type="curve"/>
      <point x="1039.3684210526317" y="834.6315789473684" type="line"/>
      <point x="919.8947368421053" y="821.2631578947368"/>
      <point x="802.421052631579" y="819.1578947368421"/>
      <point x="625.1578947368421" y="819.1578947368421" type="curve"/>
      <point x="368.84210526315786" y="819.1578947368421" type="line"/>
    </contour>
    <contour>
      <point x="385.6842105263158" y="1184.0" type="line"/>
      <point x="617.6842105263158" y="1184.0" type="line"/>
      <point x="812.421052631579" y="1184.0"/>
      <point x="947.578947368421" y="1176.7368421052631"/>
      <point x="1073.7894736842106" y="1161.2631578947369" type="curve"/>
      <point x="1073.7894736842106" y="1426.0" type="line"/>
      <point x="385.6842105263158" y="1426.0" type="line"/>
    </contour>
  </outline>
</glyph>
<glyph name="G" format="2">
  <advance width="1458.2105263157896"/>
  <unicode hex="0047"/>
  <anchor x="793.578947368421" y="0.0" name="bottom"/>
  <anchor x="793.578947368421" y="1426.0" name="top"/>
  <outline>
    <contour>
      <point x="848.8421052631579" y="-24.315789473684212" type="curve" smooth="yes"/>
      <point x="1037.2631578947369" y="-24.315789473684212"/>
      <point x="1247.2631578947369" y="19.473684210526315"/>
      <point x="1351.578947368421" y="46.8421052631579" type="curve"/>
      <point x="1303.7894736842106" y="313.2631578947368" type="line"/>
      <point x="1168.5263157894738" y="239.1578947368421"/>
      <point x="1033.157894736842" y="209.05263157894737"/>
      <point x="873.0526315789474" y="209.05263157894737" type="curve"/>
      <point x="535.0526315789474" y="216.10526315789474"/>
      <point x="380.7368421052631" y="434.7368421052631"/>
      <point x="380.7368421052631" y="712.7368421052631" type="curve" smooth="yes"/>
      <point x="380.7368421052631" y="1030.3157894736842"/>
      <point x="577.8947368421052" y="1201.157894736842"/>
      <point x="805.4736842105262" y="1207.157894736842" type="curve"/>
      <point x="889.578947368421" y="1207.157894736842"/>
      <point x="1065.578947368421" y="1169.0526315789473"/>
      <point x="1292.6315789473683" y="1072.7368421052631" type="curve"/>
      <point x="1315.2631578947369" y="1347.6842105263156" type="line"/>
      <point x="1188.0" y="1391.4736842105262"/>
      <point x="990.9473684210527" y="1454.2105263157894"/>
      <point x="807.578947368421" y="1454.2105263157894" type="curve" smooth="yes"/>
      <point x="361.89473684210526" y="1454.2105263157894"/>
      <point x="82.10526315789474" y="1148.2105263157894"/>
      <point x="82.10526315789474" y="713.7894736842105" type="curve" smooth="yes"/>
      <point x="82.10526315789474" y="287.0526315789474"/>
      <point x="357.1578947368421" y="-24.315789473684212"/>
    </contour>
    <contour>
      <point x="1055.3684210526314" y="46.8421052631579" type="curve"/>
      <point x="1351.578947368421" y="46.8421052631579" type="line"/>
      <point x="1340.2105263157896" y="192.42105263157896"/>
      <point x="1338.1052631578948" y="296.8421052631579"/>
      <point x="1338.1052631578948" y="407.36842105263156" type="curve"/>
      <point x="1338.1052631578948" y="536.8421052631579"/>
      <point x="1344.421052631579" y="628.2105263157895"/>
      <point x="1360.0" y="731.6842105263158" type="curve"/>
      <point x="1043.8947368421052" y="731.6842105263158" type="line"/>
      <point x="1058.421052631579" y="628.2105263157895"/>
      <point x="1066.7368421052631" y="536.8421052631579"/>
      <point x="1066.7368421052631" y="407.36842105263156" type="curve"/>
      <point x="1066.7368421052631" y="296.8421052631579"/>
      <point x="1063.578947368421" y="192.42105263157896"/>
    </contour>
  </outline>
</glyph>
<glyph name="I" format="2">
  <advance width="621.7894736842105"/>
  <unicode hex="0049"/>
  <anchor x="305.6842105263158" y="0.0" name="bottom"/>
  <anchor x="475.2631578947369" y="0.0" name="ogonek"/>
  <anchor x="305.6842105263158" y="1426.0" name="top"/>
  <anchor x="67.68421052631578" y="1426.0" name="topleft"/>
  <outline>
    <contour>
      <point x="141.26315789473685" y="0.0" type="curve"/>
      <point x="480.5263157894737" y="0.0" type="line"/>
      <point x="464.0" y="154.6315789473684"/>
      <point x="457.6842105263158" y="288.3157894736842"/>
      <point x="457.6842105263158" y="466.5263157894737" type="curve"/>
      <point x="457.6842105263158" y="948.9473684210526" type="line"/>
      <point x="457.6842105263158" y="1131.3684210526317"/>
      <point x="464.0" y="1268.2105263157894"/>
      <point x="480.5263157894737" y="1426.0" type="curve"/>
      <point x="141.26315789473685" y="1426.0" type="line"/>
      <point x="155.78947368421052" y="1268.2105263157894"/>
      <point x="163.1578947368421" y="1131.3684210526317"/>
      <point x="163.1578947368421" y="948.9473684210526" type="curve"/>
      <point x="163.1578947368421" y="466.5263157894737" type="line"/>
      <point x="163.1578947368421" y="288.3157894736842"/>
      <point x="155.78947368421052" y="154.6315789473684"/>
    </contour>
  </outline>
</glyph>
<glyph name="J" format="2">
  <advance width="632.5263157894738"/>
  <unicode hex="004A"/>
  <anchor x="319.6842105263158" y="0.0" name="bottom"/>
  <anchor x="319.6842105263158" y="1426.0" name="top"/>
  <outline>
    <contour>
      <point x="15.157894736842108" y="-311.57894736842104" type="curve"/>
      <point x="307.89473684210526" y="-311.57894736842104" type="line"/>
      <point x="382.0" y="-219.47368421052633"/>
      <point x="484.10526315789474" y="-73.57894736842105"/>
      <point x="484.10526315789474" y="136.21052631578948" type="curve" smooth="yes"/>
      <point x="484.10526315789474" y="293.57894736842104"/>
      <point x="468.4210526315789" y="462.9473684210526"/>
      <point x="468.4210526315789" y="641.1578947368421" type="curve"/>
      <point x="468.4210526315789" y="948.9473684210526" type="line"/>
      <point x="468.4210526315789" y="1131.3684210526317"/>
      <point x="474.7368421052631" y="1268.2105263157894"/>
      <point x="491.2631578947368" y="1426.0" type="curve"/>
      <point x="157.26315789473685" y="1426.0" type="line"/>
      <point x="171.78947368421052" y="1268.2105263157894"/>
      <point x="179.1578947368421" y="1131.3684210526317"/>
      <point x="179.1578947368421" y="948.9473684210526" type="curve"/>
      <point x="179.1578947368421" y="611.7894736842105" type="line"/>
      <point x="178.21052631578948" y="151.68421052631578" type="line"/>
      <point x="178.21052631578948" y="-28.736842105263165"/>
      <point x="118.63157894736842" y="-174.8421052631579"/>
    </contour>
  </outline>
</glyph>
<glyph name="K" format="2">
  <advance width="1385.578947368421"/>
  <unicode hex="004B"/>
  <anchor x="710.3157894736843" y="0.0" name="bottom"/>
  <anchor x="710.3157894736843" y="1426.0" name="top"/>
  <outline>
    <contour>
      <point x="969.3684210526316" y="0.0" type="curve"/>
      <point x="1366.7368421052631" y="0.0" type="line"/>
      <point x="1249.6842105263158" y="125.36842105263158"/>
      <point x="1078.6315789473683" y="336.63157894736844"/>
      <point x="955.2631578947369" y="493.4736842105263" type="curve"/>
      <point x="688.7368421052631" y="834.3157894736842" type="line"/>
      <point x="694.0" y="707.3684210526316" type="line"/>
      <point x="932.9473684210527" y="984.7368421052631" type="line"/>
      <point x="1060.3157894736842" y="1132.0"/>
      <point x="1186.6315789473683" y="1277.157894736842"/>
      <point x="1334.3157894736842" y="1426.0" type="curve"/>
      <point x="951.578947368421" y="1426.0" type="line"/>
      <point x="856.5263157894738" y="1286.0"/>
      <point x="781.8947368421053" y="1188.6315789473683"/>
      <point x="692.3157894736843" y="1081.4736842105262" type="curve"/>
      <point x="502.52631578947364" y="854.421052631579" type="line"/>
      <point x="421.6842105263158" y="854.421052631579" type="line"/>
      <point x="421.6842105263158" y="626.1052631578948" type="line"/>
      <point x="505.78947368421046" y="626.1052631578948" type="line"/>
      <point x="720.3157894736843" y="349.89473684210526" type="line"/>
      <point x="803.7894736842105" y="243.57894736842107"/>
      <point x="885.2631578947369" y="134.31578947368422"/>
    </contour>
    <contour>
      <point x="136.00000000000003" y="0.0" type="curve"/>
      <point x="468.94736842105266" y="0.0" type="line"/>
      <point x="452.42105263157896" y="154.6315789473684"/>
      <point x="446.10526315789474" y="288.3157894736842"/>
      <point x="446.10526315789474" y="466.5263157894737" type="curve"/>
      <point x="446.10526315789474" y="948.9473684210526" type="line"/>
      <point x="446.10526315789474" y="1131.3684210526317"/>
      <point x="452.42105263157896" y="1268.2105263157894"/>
      <point x="468.94736842105266" y="1426.0" type="curve"/>
      <point x="136.00000000000003" y="1426.0" type="line"/>
      <point x="150.5263157894737" y="1268.2105263157894"/>
      <point x="157.8947368421053" y="1131.3684210526317"/>
      <point x="157.8947368421053" y="948.9473684210526" type="curve"/>
      <point x="157.8947368421053" y="466.5263157894737" type="line"/>
      <point x="157.8947368421053" y="288.3157894736842"/>
      <point x="150.5263157894737" y="154.6315789473684"/>
    </contour>
  </outline>
</glyph>
<glyph name="L" format="2">
  <advance width="1145.6842105263156"/>
  <unicode hex="004C"/>
  <anchor x="615.8947368421053" y="0.0" name="bottom"/>
  <anchor x="869.2631578947369" y="717.1578947368421" name="center"/>
  <anchor x="442.9473684210526" y="1426.0" name="top"/>
  <anchor x="597.0526315789474" y="996.421052631579" name="topright"/>
  <outline>
    <contour>
      <point x="136.00000000000003" y="0.0" type="curve"/>
      <point x="470.0" y="0.0" type="line"/>
      <point x="470.0" y="45.89473684210526" type="line"/>
      <point x="453.4736842105263" y="200.52631578947367"/>
      <point x="447.1578947368421" y="334.2105263157895"/>
      <point x="447.1578947368421" y="512.421052631579" type="curve"/>
      <point x="447.1578947368421" y="948.9473684210526" type="line"/>
      <point x="447.1578947368421" y="1131.3684210526317"/>
      <point x="453.4736842105263" y="1268.2105263157894"/>
      <point x="470.0" y="1426.0" type="curve"/>
      <point x="136.00000000000003" y="1426.0" type="line"/>
      <point x="150.5263157894737" y="1268.2105263157894"/>
      <point x="157.8947368421053" y="1131.3684210526317"/>
      <point x="157.8947368421053" y="948.9473684210526" type="curve"/>
      <point x="157.8947368421053" y="466.5263157894737" type="line"/>
      <point x="157.8947368421053" y="288.3157894736842"/>
      <point x="150.5263157894737" y="154.6315789473684"/>
    </contour>
    <contour>
      <point x="407.78947368421046" y="0.0" type="line"/>
      <point x="1084.421052631579" y="0.0" type="line"/>
      <point x="1084.421052631579" y="282.6315789473684" type="line"/>
      <point x="939.578947368421" y="261.89473684210526"/>
      <point x="816.5263157894738" y="252.52631578947367"/>
      <point x="604.2105263157895" y="252.52631578947367" type="curve"/>
      <point x="407.78947368421046" y="252.52631578947367" type="line"/>
    </contour>
  </outline>
</glyph>
<glyph name="M" format="2">
  <advance width="1922.1052631578946"/>
  <unicode hex="004D"/>
  <anchor x="960.5263157894736" y="0.0" name="bottom"/>
  <anchor x="960.5263157894736" y="1426.0" name="top"/>
  <outline>
    <contour>
      <point x="87.78947368421052" y="0.0" type="curve"/>
      <point x="407.89473684210526" y="0.0" type="line"/>
      <point x="412.63157894736844" y="214.0"/>
      <point x="426.7368421052632" y="408.3157894736842"/>
      <point x="447.36842105263156" y="576.2105263157895" type="curve"/>
      <point x="491.57894736842104" y="938.5263157894738" type="line"/>
      <point x="511.2631578947368" y="938.5263157894738" type="line"/>
      <point x="662.5263157894736" y="546.9473684210526" type="line"/>
      <point x="732.8421052631578" y="365.3684210526316"/>
      <point x="800.3157894736843" y="159.57894736842104"/>
      <point x="848.4210526315788" y="0.0" type="curve"/>
      <point x="1085.157894736842" y="0.0" type="line"/>
      <point x="1134.1052631578948" y="166.10526315789474"/>
      <point x="1196.6315789473686" y="361.3684210526316"/>
      <point x="1263.578947368421" y="548.8421052631579" type="curve"/>
      <point x="1403.2631578947369" y="938.5263157894738" type="line"/>
      <point x="1422.9473684210527" y="938.5263157894738" type="line"/>
      <point x="1467.157894736842" y="576.2105263157895" type="line"/>
      <point x="1487.7894736842106" y="408.3157894736842"/>
      <point x="1500.9473684210527" y="212.94736842105263"/>
      <point x="1506.7368421052631" y="0.0" type="curve"/>
      <point x="1834.3157894736842" y="0.0" type="line"/>
      <point x="1800.842105263158" y="153.57894736842104"/>
      <point x="1775.4736842105262" y="293.4736842105263"/>
      <point x="1754.421052631579" y="466.5263157894737" type="curve"/>
      <point x="1694.2105263157896" y="944.9473684210526" type="line"/>
      <point x="1672.2105263157896" y="1118.842105263158"/>
      <point x="1659.3684210526317" y="1266.2105263157894"/>
      <point x="1651.7894736842106" y="1426.0" type="curve"/>
      <point x="1320.1052631578948" y="1426.0" type="line"/>
      <point x="1271.1578947368423" y="1247.7894736842104"/>
      <point x="1218.0" y="1094.0"/>
      <point x="1156.5263157894738" y="937.0526315789474" type="curve"/>
      <point x="976.0" y="470.0" type="line"/>
      <point x="956.4210526315788" y="470.0" type="line"/>
      <point x="770.6315789473683" y="937.0526315789474" type="line"/>
      <point x="708.1052631578947" y="1094.0"/>
      <point x="651.7894736842105" y="1248.842105263158"/>
      <point x="602.8421052631579" y="1426.0" type="curve"/>
      <point x="264.9473684210526" y="1426.0" type="line"/>
      <point x="259.36842105263156" y="1264.2105263157894"/>
      <point x="247.57894736842104" y="1116.9473684210527"/>
      <point x="225.57894736842104" y="944.9473684210526" type="curve"/>
      <point x="166.5263157894737" y="466.5263157894737" type="line"/>
      <point x="144.5263157894737" y="293.57894736842104"/>
      <point x="119.15789473684212" y="150.42105263157896"/>
    </contour>
  </outline>
</glyph>
<glyph name="N" format="2">
  <advance width="1513.8947368421052"/>
  <unicode hex="004E"/>
  <anchor x="758.0" y="0.0" name="bottom"/>
  <anchor x="758.0" y="1426.0" name="top"/>
  <outline>
    <contour>
      <point x="136.00000000000003" y="0.0" type="curve"/>
      <point x="452.10526315789474" y="0.0" type="line"/>
      <point x="435.57894736842104" y="154.6315789473684"/>
      <point x="429.2631578947368" y="288.3157894736842"/>
      <point x="429.2631578947368" y="466.5263157894737" type="curve"/>
      <point x="429.2631578947368" y="940.5263157894738" type="line"/>
      <point x="449.89473684210526" y="940.5263157894738" type="line"/>
      <point x="706.2105263157895" y="573.0526315789474" type="line"/>
      <point x="857.6842105263157" y="355.68421052631584"/>
      <point x="977.7894736842105" y="177.26315789473685"/>
      <point x="1079.6842105263156" y="0.0" type="curve"/>
      <point x="1377.8947368421052" y="0.0" type="line"/>
      <point x="1361.3684210526314" y="154.6315789473684"/>
      <point x="1355.0526315789473" y="288.3157894736842"/>
      <point x="1355.0526315789473" y="466.5263157894737" type="curve"/>
      <point x="1355.0526315789473" y="948.9473684210526" type="line"/>
      <point x="1355.0526315789473" y="1131.3684210526317"/>
      <point x="1361.3684210526314" y="1268.2105263157894"/>
      <point x="1377.8947368421052" y="1426.0" type="curve"/>
      <point x="1061.7894736842106" y="1426.0" type="line"/>
      <point x="1076.3157894736842" y="1268.2105263157894"/>
      <point x="1083.6842105263158" y="1131.3684210526317"/>
      <point x="1083.6842105263158" y="948.9473684210526" type="curve"/>
      <point x="1083.6842105263158" y="489.2631578947368" type="line"/>
      <point x="1062.0" y="489.2631578947368" type="line"/>
      <point x="808.8421052631579" y="853.7894736842105" type="line"/>
      <point x="684.7368421052632" y="1031.0526315789475"/>
      <point x="566.0" y="1217.3684210526314"/>
      <point x="443.57894736842104" y="1426.0" type="curve"/>
      <point x="136.00000000000003" y="1426.0" type="line"/>
      <point x="150.5263157894737" y="1268.2105263157894"/>
      <point x="157.8947368421053" y="1131.3684210526317"/>
      <point x="157.8947368421053" y="948.9473684210526" type="curve"/>
      <point x="157.8947368421053" y="466.5263157894737" type="line"/>
      <point x="157.8947368421053" y="288.3157894736842"/>
      <point x="150.5263157894737" y="154.6315789473684"/>
    </contour>
  </outline>
</glyph>
<glyph name="R" format="2">
  <advance width="1380.8349514563106"/>
  <unicode hex="0052"/>
  <anchor x="692.2912621359224" y="0.0" name="bottom"/>
  <anchor x="685.9805825242718" y="1426.0" name="top"/>
  <outline>
    <contour>
      <point x="979.3009708737865" y="0.0" type="curve"/>
      <point x="1355.145631067961" y="0.0" type="line"/>
      <point x="1262.9126213592233" y="107.49514563106796"/>
      <point x="1133.4368932038838" y="280.75728155339806"/>
      <point x="1040.2135922330099" y="413.26213592233006" type="curve"/>
      <point x="838.2718446601942" y="698.2718446601942" type="line"/>
      <point x="730.6407766990292" y="584.9708737864078" type="line"/>
      <point x="1079.864077669903" y="586.7184466019418"/>
      <point x="1212.8932038834953" y="778.1747572815534"/>
      <point x="1212.8932038834953" y="1020.9514563106796" type="curve" smooth="yes"/>
      <point x="1212.8932038834953" y="1323.2621359223301"/>
      <point x="1031.0873786407767" y="1434.757281553398"/>
      <point x="688.5436893203884" y="1434.757281553398" type="curve"/>
      <point x="483.5339805825243" y="1434.757281553398"/>
      <point x="282.69902912621365" y="1426.0"/>
      <point x="135.6504854368932" y="1426.0" type="curve"/>
      <point x="349.6116504854369" y="1196.0582524271845" type="line"/>
      <point x="678.0388349514564" y="1196.0582524271845" type="line" smooth="yes"/>
      <point x="789.4757281553398" y="1196.0582524271845"/>
      <point x="916.6019417475729" y="1169.0291262135925"/>
      <point x="916.6019417475729" y="987.4174757281553" type="curve" smooth="yes"/>
      <point x="916.6019417475729" y="811.0097087378641"/>
      <point x="820.6601941747573" y="752.3106796116505"/>
      <point x="636.5825242718447" y="752.3106796116505" type="curve" smooth="yes"/>
      <point x="389.14563106796123" y="752.3106796116505" type="line"/>
      <point x="389.14563106796123" y="531.7087378640776" type="line"/>
      <point x="719.9029126213592" y="531.7087378640776" type="line"/>
      <point x="547.2427184466019" y="673.2621359223301" type="line"/>
      <point x="788.6796116504854" y="318.6990291262136" type="line"/>
      <point x="856.6407766990291" y="219.2233009708738"/>
      <point x="917.3592233009708" y="118.99029126213591"/>
    </contour>
    <contour>
      <point x="135.6504854368932" y="0.0" type="curve"/>
      <point x="464.7184466019418" y="0.0" type="line"/>
      <point x="447.4563106796117" y="154.9902912621359"/>
      <point x="442.44660194174764" y="288.2330097087379"/>
      <point x="442.44660194174764" y="466.7378640776699" type="curve"/>
      <point x="442.44660194174764" y="904.6990291262136" type="line"/>
      <point x="442.44660194174764" y="1085.9611650485438"/>
      <point x="447.4563106796117" y="1223.4563106796118"/>
      <point x="464.7184466019418" y="1380.9514563106795" type="curve"/>
      <point x="135.6504854368932" y="1426.0" type="line"/>
      <point x="150.9126213592233" y="1268.504854368932"/>
      <point x="157.92233009708735" y="1131.009708737864"/>
      <point x="157.92233009708735" y="949.747572815534" type="curve"/>
      <point x="157.92233009708735" y="466.7378640776699" type="line"/>
      <point x="157.92233009708735" y="288.2330097087379"/>
      <point x="150.9126213592233" y="154.9902912621359"/>
    </contour>
  </outline>
</glyph>
<glyph name="S" format="2">
  <advance width="1193.5533980582525"/>
  <unicode hex="0053"/>
  <anchor x="602.0194174757281" y="0.0" name="bottom"/>
  <anchor x="602.0194174757281" y="1426.0" name="top"/>
  <outline>
    <contour>
      <point x="594.990291262136" y="-25.009708737864077" type="curve" smooth="yes"/>
      <point x="966.8155339805825" y="-25.009708737864077"/>
      <point x="1127.5922330097087" y="148.23300970873785"/>
      <point x="1127.5922330097087" y="402.2912621359223" type="curve" smooth="yes"/>
      <point x="1127.5922330097087" y="634.5631067961165"/>
      <point x="1017.3398058252427" y="731.5728155339806"/>
      <point x="675.5922330097088" y="835.8058252427185" type="curve" smooth="yes"/>
      <point x="478.9514563106796" y="895.7669902912621"/>
      <point x="393.24271844660194" y="942.2330097087378"/>
      <point x="393.24271844660194" y="1049.4174757281553" type="curve" smooth="yes"/>
      <point x="393.24271844660194" y="1159.592233009709"/>
      <point x="494.1553398058253" y="1210.7961165048544"/>
      <point x="614.5631067961165" y="1215.0485436893205" type="curve"/>
      <point x="688.3106796116505" y="1215.0485436893205"/>
      <point x="845.8252427184467" y="1178.5436893203882"/>
      <point x="1021.0873786407767" y="1101.0485436893202" type="curve"/>
      <point x="1044.3495145631068" y="1371.0291262135925" type="line"/>
      <point x="936.0970873786407" y="1399.514563106796"/>
      <point x="736.2912621359222" y="1454.504854368932"/>
      <point x="581.2621359223301" y="1454.504854368932" type="curve" smooth="yes"/>
      <point x="250.9514563106796" y="1454.504854368932"/>
      <point x="88.44660194174757" y="1282.990291262136"/>
      <point x="88.44660194174757" y="1039.6893203883496" type="curve" smooth="yes"/>
      <point x="88.44660194174757" y="793.1650485436893"/>
      <point x="241.6893203883495" y="697.3980582524273"/>
      <point x="504.9126213592233" y="619.6699029126213" type="curve" smooth="yes"/>
      <point x="704.3300970873787" y="560.9514563106796"/>
      <point x="824.7961165048544" y="510.4854368932038"/>
      <point x="824.7961165048544" y="388.31067961165047" type="curve" smooth="yes"/>
      <point x="824.7961165048544" y="265.90291262135923"/>
      <point x="721.8834951456311" y="215.94174757281556"/>
      <point x="592.7378640776699" y="211.68932038834953" type="curve"/>
      <point x="465.242718446602" y="211.68932038834953"/>
      <point x="285.70873786407765" y="258.6990291262136"/>
      <point x="132.46601941747574" y="326.19417475728153" type="curve"/>
      <point x="110.95145631067962" y="54.213592233009706" type="line"/>
      <point x="218.95145631067962" y="27.475728155339805"/>
      <point x="383.2038834951456" y="-25.009708737864077"/>
    </contour>
  </outline>
</glyph>
<glyph name="U" format="2">
  <advance width="1457.6842105263158"/>
  <unicode hex="0055"/>
  <anchor x="730.8421052631579" y="0.0" name="bottom"/>
  <anchor x="941.1578947368421" y="0.0" name="ogonek"/>
  <anchor x="730.8421052631579" y="1426.0" name="top"/>
  <anchor x="1406.421052631579" y="1426.0" name="topright"/>
  <outline>
    <contour>
      <point x="730.9473684210526" y="-25.36842105263158" type="curve" smooth="yes"/>
      <point x="1139.7894736842106" y="-25.36842105263158"/>
      <point x="1324.8421052631577" y="180.0"/>
      <point x="1324.8421052631577" y="542.3157894736842" type="curve" smooth="yes"/>
      <point x="1324.8421052631577" y="617.6842105263158"/>
      <point x="1318.6315789473683" y="790.7368421052631"/>
      <point x="1318.6315789473683" y="948.9473684210526" type="curve"/>
      <point x="1318.6315789473683" y="1131.3684210526317"/>
      <point x="1324.9473684210525" y="1268.2105263157894"/>
      <point x="1341.4736842105262" y="1426.0" type="curve"/>
      <point x="1008.5263157894736" y="1426.0" type="line"/>
      <point x="1023.0526315789474" y="1268.2105263157894"/>
      <point x="1030.421052631579" y="1131.3684210526317"/>
      <point x="1030.421052631579" y="948.9473684210526" type="curve"/>
      <point x="1030.421052631579" y="562.3157894736842" type="line" smooth="yes"/>
      <point x="1030.421052631579" y="335.47368421052636"/>
      <point x="951.4736842105264" y="220.52631578947367"/>
      <point x="729.8947368421053" y="214.3157894736842" type="curve"/>
      <point x="512.5263157894736" y="220.52631578947367"/>
      <point x="426.31578947368416" y="336.42105263157896"/>
      <point x="426.31578947368416" y="561.3684210526316" type="curve" smooth="yes"/>
      <point x="426.31578947368416" y="948.9473684210526" type="line"/>
      <point x="426.31578947368416" y="1131.3684210526317"/>
      <point x="432.6315789473684" y="1268.2105263157894"/>
      <point x="449.1578947368421" y="1426.0" type="curve"/>
      <point x="116.21052631578948" y="1426.0" type="line"/>
      <point x="130.73684210526315" y="1268.2105263157894"/>
      <point x="138.10526315789474" y="1131.3684210526317"/>
      <point x="138.10526315789474" y="948.9473684210526" type="curve"/>
      <point x="138.10526315789474" y="790.7368421052631"/>
      <point x="131.89473684210526" y="621.8947368421053"/>
      <point x="131.89473684210526" y="543.3684210526316" type="curve" smooth="yes"/>
      <point x="131.89473684210526" y="186.31578947368422"/>
      <point x="305.1578947368421" y="-25.36842105263158"/>
    </contour>
  </outline>
</glyph>
<glyph name="V" format="2">
  <advance width="1411.7894736842104"/>
  <unicode hex="0056"/>
  <anchor x="706.8421052631579" y="0.0" name="bottom"/>
  <anchor x="706.8421052631579" y="1426.0" name="top"/>
  <outline>
    <contour>
      <point x="491.57894736842104" y="0.0" type="curve"/>
      <point x="918.7368421052631" y="0.0" type="line"/>
      <point x="954.9473684210526" y="144.94736842105263"/>
      <point x="1000.0" y="313.05263157894734"/>
      <point x="1045.578947368421" y="451.05263157894734" type="curve"/>
      <point x="1191.157894736842" y="900.0" type="line"/>
      <point x="1241.6842105263158" y="1055.0526315789473"/>
      <point x="1317.4736842105262" y="1262.3157894736842"/>
      <point x="1390.6315789473686" y="1426.0" type="curve"/>
      <point x="1025.4736842105265" y="1426.0" type="line"/>
      <point x="984.7368421052632" y="1235.8947368421052"/>
      <point x="929.7894736842105" y="1017.7894736842105"/>
      <point x="875.3684210526316" y="830.8421052631579" type="curve"/>
      <point x="716.9473684210526" y="294.1052631578947" type="line"/>
      <point x="694.4210526315788" y="294.1052631578947" type="line"/>
      <point x="541.3684210526316" y="828.8421052631579" type="line"/>
      <point x="488.10526315789474" y="1014.0"/>
      <point x="428.3157894736842" y="1237.7894736842106"/>
      <point x="389.4736842105263" y="1426.0" type="curve"/>
      <point x="19.157894736842106" y="1426.0" type="line"/>
      <point x="95.26315789473685" y="1260.3157894736842"/>
      <point x="170.0" y="1054.1052631578946"/>
      <point x="219.47368421052633" y="900.0" type="curve"/>
      <point x="364.8421052631579" y="452.0" type="line"/>
      <point x="408.3157894736842" y="317.0526315789474"/>
      <point x="456.42105263157896" y="143.05263157894737"/>
    </contour>
  </outline>
</glyph>
<glyph name="W" format="2">
  <advance width="2079.0526315789475"/>
  <unicode hex="0057"/>
  <anchor x="1032.7368421052631" y="0.0" name="bottom"/>
  <anchor x="1032.7368421052631" y="1426.0" name="top"/>
  <outline>
    <contour>
      <point x="413.0526315789474" y="0.0" type="curve"/>
      <point x="791.1578947368421" y="0.0" type="line"/>
      <point x="818.6315789473684" y="167.3684210526316"/>
      <point x="858.8421052631579" y="368.10526315789474"/>
      <point x="898.6315789473684" y="532.3157894736842" type="curve"/>
      <point x="1014.1052631578947" y="1013.4736842105264" type="line"/>
      <point x="1036.6315789473683" y="1013.4736842105264" type="line"/>
      <point x="1155.157894736842" y="533.3684210526316" type="line"/>
      <point x="1196.0" y="368.10526315789474"/>
      <point x="1236.2105263157896" y="168.31578947368422"/>
      <point x="1264.6315789473683" y="0.0" type="curve"/>
      <point x="1661.6842105263156" y="0.0" type="line"/>
      <point x="1684.1052631578948" y="138.10526315789474"/>
      <point x="1726.6315789473683" y="311.0526315789474"/>
      <point x="1765.3684210526317" y="450.94736842105266" type="curve"/>
      <point x="1889.6842105263158" y="900.0" type="line"/>
      <point x="1932.421052631579" y="1056.9473684210525"/>
      <point x="1993.4736842105262" y="1259.2631578947367"/>
      <point x="2064.0" y="1426.0" type="curve"/>
      <point x="1692.5263157894738" y="1426.0" type="line"/>
      <point x="1663.1578947368423" y="1246.2105263157894"/>
      <point x="1621.0526315789473" y="1032.7368421052631"/>
      <point x="1581.4736842105262" y="857.0526315789474" type="curve"/>
      <point x="1466.5263157894738" y="342.42105263157896" type="line"/>
      <point x="1444.0" y="342.42105263157896" type="line"/>
      <point x="1325.4736842105262" y="855.0526315789474" type="line"/>
      <point x="1282.7368421052631" y="1034.6315789473683"/>
      <point x="1243.4736842105265" y="1244.3157894736842"/>
      <point x="1214.1052631578948" y="1426.0" type="curve"/>
      <point x="862.0" y="1426.0" type="line"/>
      <point x="834.5263157894738" y="1247.157894736842"/>
      <point x="792.3157894736842" y="1030.842105263158"/>
      <point x="752.5263157894736" y="857.0526315789474" type="curve"/>
      <point x="637.0526315789474" y="342.42105263157896" type="line"/>
      <point x="614.5263157894736" y="342.42105263157896" type="line"/>
      <point x="500.52631578947364" y="853.1578947368422" type="line"/>
      <point x="459.99999999999994" y="1032.7368421052631"/>
      <point x="418.8421052631579" y="1244.3157894736842"/>
      <point x="388.52631578947364" y="1426.0" type="curve"/>
      <point x="16.000000000000004" y="1426.0" type="line"/>
      <point x="85.68421052631578" y="1260.1052631578948"/>
      <point x="146.42105263157896" y="1055.0526315789475"/>
      <point x="189.1578947368421" y="898.1052631578947" type="curve"/>
      <point x="310.42105263157896" y="450.0" type="line"/>
      <point x="347.15789473684214" y="313.05263157894734"/>
      <point x="387.6842105263158" y="143.05263157894737"/>
    </contour>
  </outline>
</glyph>
<glyph name="X" format="2">
  <advance width="1422.2105263157894"/>
  <unicode hex="0058"/>
  <outline>
    <contour>
      <point x="39.78947368421053" y="0.0" type="curve"/>
      <point x="410.7368421052631" y="0.0" type="line"/>
      <point x="456.31578947368416" y="112.63157894736842"/>
      <point x="502.63157894736844" y="210.63157894736844"/>
      <point x="554.0" y="304.2105263157895" type="curve"/>
      <point x="679.2631578947369" y="535.2631578947369" type="line"/>
      <point x="701.7894736842105" y="535.2631578947369" type="line"/>
      <point x="835.7894736842105" y="305.1578947368421" type="line"/>
      <point x="889.1578947368421" y="214.42105263157896"/>
      <point x="946.421052631579" y="112.63157894736842"/>
      <point x="995.8947368421053" y="0.0" type="curve"/>
      <point x="1385.578947368421" y="0.0" type="line"/>
      <point x="1269.7894736842106" y="144.73684210526315"/>
      <point x="1178.3157894736842" y="280.84210526315786"/>
      <point x="1080.1052631578946" y="439.05263157894734" type="curve"/>
      <point x="885.8947368421053" y="751.1578947368421" type="line"/>
      <point x="885.8947368421053" y="671.8947368421053" type="line"/>
      <point x="1075.2631578947367" y="1007.8947368421053" type="line"/>
      <point x="1143.6842105263158" y="1129.2631578947369"/>
      <point x="1230.1052631578948" y="1275.7894736842106"/>
      <point x="1344.421052631579" y="1426.0" type="curve"/>
      <point x="972.5263157894736" y="1426.0" type="line"/>
      <point x="922.7368421052631" y="1310.0"/>
      <point x="868.7368421052631" y="1195.2631578947369"/>
      <point x="815.3684210526316" y="1096.5263157894738" type="curve"/>
      <point x="710.421052631579" y="901.6842105263158" type="line"/>
      <point x="687.8947368421053" y="901.6842105263158" type="line"/>
      <point x="578.9473684210526" y="1095.578947368421" type="line"/>
      <point x="523.578947368421" y="1193.3684210526317"/>
      <point x="466.5263157894737" y="1308.2105263157896"/>
      <point x="414.7368421052632" y="1426.0" type="curve"/>
      <point x="37.578947368421055" y="1426.0" type="line"/>
      <point x="157.57894736842104" y="1268.1052631578946"/>
      <point x="239.8947368421053" y="1130.842105263158"/>
      <point x="321.1578947368421" y="994.6315789473684" type="curve"/>
      <point x="496.42105263157896" y="699.4736842105264" type="line"/>
      <point x="496.42105263157896" y="770.3157894736842" type="line"/>
      <point x="297.47368421052636" y="413.7894736842105" type="line"/>
      <point x="213.26315789473685" y="262.42105263157896"/>
      <point x="133.89473684210526" y="131.26315789473685"/>
    </contour>
  </outline>
</glyph>
<glyph name="Y" format="2">
  <advance width="1348.5263157894738"/>
  <unicode hex="0059"/>
  <anchor x="678.4210526315788" y="0.0" name="bottom"/>
  <anchor x="678.4210526315788" y="1426.0" name="top"/>
  <anchor x="40.0" y="1426.0" name="topleft"/>
  <outline>
    <contour>
      <point x="540.0" y="517.8947368421053" type="line"/>
      <point x="815.7894736842105" y="517.8947368421053" type="line"/>
      <point x="1113.3684210526317" y="1069.3684210526317" type="line"/>
      <point x="1176.1052631578948" y="1186.0"/>
      <point x="1244.9473684210525" y="1305.4736842105262"/>
      <point x="1331.578947368421" y="1426.0" type="curve"/>
      <point x="958.3157894736842" y="1426.0" type="line"/>
      <point x="897.6842105263158" y="1253.8947368421052"/>
      <point x="859.1578947368421" y="1164.7368421052631"/>
      <point x="793.4736842105262" y="1030.6315789473683" type="curve"/>
      <point x="690.7368421052631" y="820.1052631578948" type="line"/>
      <point x="666.1052631578947" y="820.1052631578948" type="line"/>
      <point x="561.578947368421" y="1036.421052631579" type="line"/>
      <point x="498.7368421052631" y="1165.6842105263158"/>
      <point x="462.10526315789474" y="1251.8947368421052"/>
      <point x="400.52631578947364" y="1426.0" type="curve"/>
      <point x="17.789473684210527" y="1426.0" type="line"/>
      <point x="118.42105263157895" y="1286.421052631579"/>
      <point x="177.47368421052633" y="1186.9473684210527"/>
      <point x="241.26315789473685" y="1069.3684210526317" type="curve"/>
    </contour>
    <contour>
      <point x="511.8947368421053" y="0.0" type="curve"/>
      <point x="845.8947368421052" y="0.0" type="line"/>
      <point x="829.3684210526316" y="154.6315789473684"/>
      <point x="823.0526315789473" y="288.3157894736842"/>
      <point x="823.0526315789473" y="466.5263157894737" type="curve"/>
      <point x="823.0526315789473" y="760.421052631579" type="line"/>
      <point x="533.7894736842105" y="760.421052631579" type="line"/>
      <point x="533.7894736842105" y="466.5263157894737" type="line"/>
      <point x="533.7894736842105" y="288.3157894736842"/>
      <point x="526.421052631579" y="154.6315789473684"/>
    </contour>
  </outline>
</glyph>
<glyph name="Z" format="2">
  <advance width="1365.3684210526317"/>
  <unicode hex="005A"/>
  <anchor x="683.1578947368421" y="0.0" name="bottom"/>
  <anchor x="683.1578947368421" y="714.0" name="center"/>
  <anchor x="683.1578947368421" y="1426.0" name="top"/>
  <outline>
    <contour>
      <point x="83.6842105263158" y="0.0" type="line"/>
      <point x="1276.9473684210527" y="0.0" type="line"/>
      <point x="1276.9473684210527" y="273.05263157894734" type="line"/>
      <point x="1130.421052631579" y="248.31578947368422"/>
      <point x="893.8947368421052" y="240.94736842105263"/>
      <point x="731.578947368421" y="240.94736842105263" type="curve"/>
      <point x="393.05263157894734" y="240.94736842105263" type="line"/>
      <point x="418.9473684210526" y="142.6315789473684" type="line"/>
      <point x="938.3157894736842" y="806.3157894736842" type="line"/>
      <point x="1046.1052631578948" y="945.578947368421"/>
      <point x="1154.9473684210527" y="1083.7894736842106"/>
      <point x="1266.7368421052631" y="1205.157894736842" type="curve"/>
      <point x="1266.7368421052631" y="1426.0" type="line"/>
      <point x="103.05263157894737" y="1426.0" type="line"/>
      <point x="103.05263157894737" y="1149.6842105263156" type="line"/>
      <point x="288.2105263157895" y="1176.7368421052631"/>
      <point x="462.5263157894737" y="1185.0526315789473"/>
      <point x="616.0" y="1185.0526315789473" type="curve"/>
      <point x="988.3157894736842" y="1185.0526315789473" type="line"/>
      <point x="948.6315789473684" y="1275.7894736842106" type="line"/>
      <point x="451.2631578947369" y="630.421052631579" type="line"/>
      <point x="341.2631578947369" y="487.89473684210526"/>
      <point x="186.73684210526315" y="291.0526315789474"/>
      <point x="83.6842105263158" y="186.5263157894737" type="curve"/>
    </contour>
  </outline>
</glyph>
<glyph name="backslash" format="2">
  <advance width="925.4736842105262"/>
  <unicode hex="005C"/>
  <outline>
    <contour>
      <point x="601.7894736842105" y="0.0" type="curve"/>
      <point x="893.6842105263158" y="0.0" type="line"/>
      <point x="819.3684210526316" y="148.0"/>
      <point x="765.6842105263157" y="274.0"/>
      <point x="692.2105263157895" y="456.0" type="curve"/>
      <point x="493.57894736842104" y="952.0" type="line"/>
      <point x="418.10526315789474" y="1140.9473684210527"/>
      <point x="368.52631578947364" y="1272.0"/>
      <point x="322.6315789473684" y="1426.0" type="curve"/>
      <point x="31.78947368421053" y="1426.0" type="line"/>
      <point x="110.0" y="1272.0"/>
      <point x="163.68421052631578" y="1142.0"/>
      <point x="241.1578947368421" y="948.0" type="curve"/>
      <point x="437.7894736842106" y="456.0" type="line"/>
      <point x="511.2631578947369" y="274.0"/>
      <point x="558.8421052631579" y="148.0"/>
    </contour>
  </outline>
</glyph>
<glyph name="asciicircum" format="2">
  <advance width="1251.578947368421"/>
  <unicode hex="005E"/>
  <outline>
    <contour>
      <point x="917.3684210526316" y="730.1052631578948" type="curve"/>
      <point x="1150.3157894736842" y="733.1578947368421" type="line"/>
      <point x="1027.0526315789473" y="946.2105263157895"/>
      <point x="906.8421052631579" y="1161.2631578947369"/>
      <point x="806.2105263157895" y="1374.3157894736842" type="curve"/>
      <point x="445.3684210526316" y="1374.3157894736842" type="line"/>
      <point x="344.7368421052632" y="1161.2631578947369"/>
      <point x="224.5263157894737" y="950.2105263157895"/>
      <point x="101.26315789473685" y="737.1578947368421" type="curve"/>
      <point x="335.2631578947369" y="737.1578947368421" type="line"/>
      <point x="433.7894736842105" y="874.421052631579"/>
      <point x="524.2105263157895" y="1013.6842105263158"/>
      <point x="614.5263157894736" y="1150.9473684210527" type="curve"/>
      <point x="637.0526315789474" y="1150.9473684210527" type="line"/>
      <point x="727.3684210526316" y="1010.6315789473684"/>
      <point x="818.8421052631579" y="870.421052631579"/>
    </contour>
  </outline>
</glyph>
<glyph name="a" format="2">
  <advance width="1066.0"/>
  <unicode hex="0061"/>
  <anchor x="528.252427184466" y="0.0" name="bottom"/>
  <anchor x="937.5728155339806" y="0.0" name="ogonek"/>
  <anchor x="528.252427184466" y="997.009708737864" name="top"/>
  <outline>
    <contour>
      <point x="370.8932038834952" y="-22.75728155339806" type="curve" smooth="yes"/>
      <point x="492.8932038834952" y="-22.75728155339806"/>
      <point x="620.8543689320388" y="60.504854368932044"/>
      <point x="681.8446601941748" y="125.0291262135922" type="curve"/>
      <point x="702.8543689320388" y="125.0291262135922" type="line"/>
      <point x="740.0970873786408" y="0.0" type="line"/>
      <point x="1001.0679611650486" y="0.0" type="line"/>
      <point x="955.8058252427185" y="122.27184466019418"/>
      <point x="937.0679611650486" y="231.04854368932035"/>
      <point x="937.0679611650486" y="329.32038834951453" type="curve"/>
      <point x="937.0679611650486" y="422.252427184466" type="line" smooth="yes"/>
      <point x="937.0679611650486" y="500.2330097087379"/>
      <point x="943.3203883495146" y="602.9902912621359"/>
      <point x="943.3203883495146" y="667.747572815534" type="curve" smooth="yes"/>
      <point x="943.3203883495146" y="917.514563106796"/>
      <point x="794.7961165048545" y="1022.0194174757281"/>
      <point x="546.2718446601942" y="1022.0194174757281" type="curve" smooth="yes"/>
      <point x="394.4660194174757" y="1022.0194174757281"/>
      <point x="218.44660194174756" y="977.26213592233"/>
      <point x="123.4368932038835" y="951.5145631067961" type="curve"/>
      <point x="134.19417475728156" y="711.0679611650486" type="line"/>
      <point x="267.4174757281553" y="764.8155339805825"/>
      <point x="428.19417475728153" y="805.5728155339806"/>
      <point x="479.18446601941747" y="805.5728155339806" type="curve" smooth="yes"/>
      <point x="593.6893203883495" y="805.5728155339806"/>
      <point x="693.8640776699029" y="765.3398058252426"/>
      <point x="688.3689320388349" y="635.2233009708738" type="curve"/>
      <point x="404.4077669902913" y="592.4660194174756" type="line" smooth="yes"/>
      <point x="251.4757281553398" y="568.9708737864078"/>
      <point x="79.18446601941748" y="496.7378640776699"/>
      <point x="79.18446601941748" y="272.97087378640776" type="curve" smooth="yes"/>
      <point x="79.18446601941748" y="86.52427184466019"/>
      <point x="201.378640776699" y="-22.75728155339806"/>
    </contour>
    <contour>
      <point x="467.0485436893204" y="181.92233009708735" type="curve" smooth="yes"/>
      <point x="400.6019417475728" y="181.92233009708735"/>
      <point x="340.6407766990291" y="212.40776699029126"/>
      <point x="340.6407766990291" y="296.8543689320388" type="curve" smooth="yes"/>
      <point x="340.6407766990291" y="374.56310679611653"/>
      <point x="388.621359223301" y="424.2718446601942"/>
      <point x="471.0485436893204" y="439.7669902912622" type="curve" smooth="yes"/>
      <point x="618.1553398058253" y="466.50485436893206"/>
      <point x="655.1262135922331" y="476.75728155339806"/>
      <point x="681.6116504854369" y="494.75728155339806" type="curve"/>
      <point x="681.6116504854369" y="338.77669902912623" type="line"/>
      <point x="628.1553398058253" y="244.11650485436897"/>
      <point x="528.2524271844661" y="181.92233009708735"/>
    </contour>
  </outline>
</glyph>
<glyph name="b" format="2">
  <advance width="1188.421052631579"/>
  <unicode hex="0062"/>
  <outline>
    <contour>
      <point x="701.3684210526316" y="-25.36842105263158" type="curve" smooth="yes"/>
      <point x="977.578947368421" y="-25.36842105263158"/>
      <point x="1108.6315789473683" y="222.10526315789474"/>
      <point x="1108.6315789473683" y="500.10526315789474" type="curve" smooth="yes"/>
      <point x="1108.6315789473683" y="796.2105263157895"/>
      <point x="964.8421052631578" y="1022.7368421052631"/>
      <point x="698.4210526315788" y="1022.7368421052631" type="curve" smooth="yes"/>
      <point x="588.0" y="1022.7368421052631"/>
      <point x="493.8947368421052" y="965.5789473684212"/>
      <point x="425.2631578947368" y="890.2105263157894" type="curve"/>
      <point x="402.7368421052632" y="890.2105263157894" type="line"/>
      <point x="402.7368421052632" y="986.9473684210526" type="line"/>
      <point x="402.7368421052632" y="1168.5263157894738"/>
      <point x="414.3157894736842" y="1333.8947368421052"/>
      <point x="430.8421052631579" y="1492.6315789473683" type="curve"/>
      <point x="98.10526315789474" y="1461.157894736842" type="line"/>
      <point x="129.26315789473685" y="1305.578947368421"/>
      <point x="140.63157894736844" y="1150.6315789473683"/>
      <point x="140.63157894736844" y="986.9473684210526" type="curve"/>
      <point x="140.63157894736844" y="433.57894736842104" type="line"/>
      <point x="140.63157894736844" y="268.42105263157896"/>
      <point x="133.26315789473685" y="143.68421052631578"/>
      <point x="119.78947368421053" y="0.0" type="curve"/>
      <point x="346.3157894736842" y="0.0" type="line"/>
      <point x="376.5263157894737" y="127.26315789473685" type="line"/>
      <point x="395.89473684210526" y="127.26315789473685" type="line"/>
      <point x="487.47368421052636" y="24.31578947368421"/>
      <point x="598.0" y="-25.36842105263158"/>
    </contour>
    <contour>
      <point x="605.578947368421" y="199.68421052631578" type="curve"/>
      <point x="524.0" y="202.8421052631579"/>
      <point x="455.57894736842104" y="246.52631578947367"/>
      <point x="402.7368421052632" y="324.8421052631579" type="curve"/>
      <point x="402.7368421052632" y="692.2105263157895" type="line"/>
      <point x="458.6315789473684" y="758.6315789473684"/>
      <point x="534.8421052631578" y="792.5263157894738"/>
      <point x="603.6842105263157" y="794.5263157894738" type="curve"/>
      <point x="763.578947368421" y="788.5263157894738"/>
      <point x="840.3157894736842" y="659.7894736842105"/>
      <point x="840.3157894736842" y="498.0" type="curve" smooth="yes"/>
      <point x="840.3157894736842" y="344.10526315789474"/>
      <point x="767.2631578947368" y="205.68421052631578"/>
    </contour>
  </outline>
</glyph>
<glyph name="c" format="2">
  <advance width="974.5263157894736"/>
  <unicode hex="0063"/>
  <anchor x="563.1578947368421" y="0.0" name="bottom"/>
  <anchor x="554.6315789473684" y="996.421052631579" name="top"/>
  <outline>
    <contour>
      <point x="596.421052631579" y="-21.157894736842106" type="curve" smooth="yes"/>
      <point x="710.3157894736842" y="-21.157894736842106"/>
      <point x="823.7894736842105" y="12.31578947368421"/>
      <point x="900.1052631578947" y="32.94736842105263" type="curve"/>
      <point x="885.0526315789474" y="263.89473684210526" type="line"/>
      <point x="806.0" y="220.3157894736842"/>
      <point x="721.4736842105262" y="196.52631578947367"/>
      <point x="659.578947368421" y="196.52631578947367" type="curve" smooth="yes"/>
      <point x="456.6315789473684" y="200.42105263157893"/>
      <point x="344.9473684210526" y="324.0"/>
      <point x="344.9473684210526" y="504.42105263157896" type="curve" smooth="yes"/>
      <point x="344.9473684210526" y="683.6842105263158"/>
      <point x="450.2105263157895" y="791.6842105263158"/>
      <point x="604.6315789473684" y="797.6842105263158" type="curve"/>
      <point x="652.4210526315788" y="797.6842105263158"/>
      <point x="752.9473684210526" y="773.6842105263157"/>
      <point x="879.8947368421053" y="714.6315789473683" type="curve"/>
      <point x="898.5263157894736" y="950.8421052631579" type="line"/>
      <point x="817.2631578947369" y="980.8421052631579"/>
      <point x="692.2105263157895" y="1021.6842105263158"/>
      <point x="575.2631578947369" y="1021.6842105263158" type="curve" smooth="yes"/>
      <point x="251.57894736842107" y="1021.6842105263158"/>
      <point x="77.6842105263158" y="797.578947368421"/>
      <point x="77.6842105263158" y="497.05263157894734" type="curve" smooth="yes"/>
      <point x="77.6842105263158" y="198.5263157894737"/>
      <point x="267.4736842105263" y="-21.157894736842106"/>
    </contour>
  </outline>
</glyph>
<glyph name="d" format="2">
  <advance width="1167.157894736842"/>
  <unicode hex="0064"/>
  <anchor x="628.8421052631579" y="0.0" name="bottom"/>
  <anchor x="585.3684210526316" y="498.2105263157895" name="center"/>
  <anchor x="628.8421052631579" y="1456.5263157894738" name="top"/>
  <anchor x="1123.6842105263158" y="996.421052631579" name="topright"/>
  <outline>
    <contour>
      <point x="487.0526315789474" y="-25.36842105263158" type="curve" smooth="yes"/>
      <point x="590.421052631579" y="-25.36842105263158"/>
      <point x="697.7894736842105" y="29.578947368421055"/>
      <point x="789.3684210526316" y="133.57894736842104" type="curve"/>
      <point x="808.7368421052631" y="133.57894736842104" type="line"/>
      <point x="826.421052631579" y="0.0" type="line"/>
      <point x="1069.578947368421" y="0.0" type="line"/>
      <point x="1054.1052631578946" y="143.68421052631578"/>
      <point x="1047.7894736842104" y="268.42105263157896"/>
      <point x="1047.7894736842104" y="433.57894736842104" type="curve"/>
      <point x="1047.7894736842104" y="986.9473684210526" type="line"/>
      <point x="1047.7894736842104" y="1168.5263157894738"/>
      <point x="1059.3684210526314" y="1333.8947368421052"/>
      <point x="1075.8947368421052" y="1492.6315789473683" type="curve"/>
      <point x="743.1578947368422" y="1461.157894736842" type="line"/>
      <point x="774.3157894736843" y="1305.578947368421"/>
      <point x="785.6842105263158" y="1150.6315789473683"/>
      <point x="785.6842105263158" y="986.9473684210526" type="curve"/>
      <point x="785.6842105263158" y="890.2105263157894" type="line"/>
      <point x="763.1578947368421" y="890.2105263157894" type="line"/>
      <point x="694.5263157894736" y="965.578947368421"/>
      <point x="600.421052631579" y="1022.7368421052631"/>
      <point x="490.0" y="1022.7368421052631" type="curve" smooth="yes"/>
      <point x="223.57894736842104" y="1022.7368421052631"/>
      <point x="79.78947368421052" y="796.2105263157895"/>
      <point x="79.78947368421052" y="500.10526315789474" type="curve" smooth="yes"/>
      <point x="79.78947368421052" y="222.10526315789474"/>
      <point x="210.8421052631579" y="-25.36842105263158"/>
    </contour>
    <contour>
      <point x="582.8421052631579" y="199.68421052631578" type="curve"/>
      <point x="421.1578947368421" y="205.68421052631578"/>
      <point x="348.10526315789474" y="344.10526315789474"/>
      <point x="348.10526315789474" y="498.0" type="curve" smooth="yes"/>
      <point x="348.10526315789474" y="659.7894736842105"/>
      <point x="424.8421052631579" y="788.5263157894738"/>
      <point x="584.7368421052631" y="794.5263157894738" type="curve"/>
      <point x="653.578947368421" y="792.5263157894738"/>
      <point x="729.7894736842105" y="758.6315789473684"/>
      <point x="785.6842105263158" y="692.2105263157895" type="curve"/>
      <point x="785.6842105263158" y="324.8421052631579" type="line"/>
      <point x="732.8421052631578" y="246.52631578947367"/>
      <point x="664.421052631579" y="202.8421052631579"/>
    </contour>
  </outline>
</glyph>
<glyph name="g" format="2">
  <advance width="1099.5339805825242"/>
  <unicode hex="0067"/>
  <anchor x="548.2718446601941" y="-384.0" name="bottom"/>
  <anchor x="548.2718446601941" y="997.009708737864" name="top"/>
  <outline>
    <contour>
      <point x="480.2330097087379" y="-408.504854368932" type="curve" smooth="yes"/>
      <point x="733.5339805825242" y="-408.504854368932"/>
      <point x="1027.3398058252426" y="-303.7669902912621"/>
      <point x="1027.3398058252426" y="-41.4368932038835" type="curve" smooth="yes"/>
      <point x="1027.3398058252426" y="149.126213592233"/>
      <point x="883.5339805825242" y="206.36893203883494"/>
      <point x="623.8252427184466" y="206.36893203883494" type="curve" smooth="yes"/>
      <point x="582.5825242718446" y="206.36893203883494" type="line" smooth="yes"/>
      <point x="459.14563106796123" y="206.36893203883494"/>
      <point x="407.41747572815535" y="217.61165048543688"/>
      <point x="407.41747572815535" y="259.84466019417476" type="curve" smooth="yes"/>
      <point x="407.41747572815535" y="299.3398058252427"/>
      <point x="464.3883495145631" y="314.58252427184465"/>
      <point x="583.0873786407767" y="341.06796116504853" type="curve" smooth="yes"/>
      <point x="767.8058252427185" y="381.8058252427184"/>
      <point x="906.8349514563106" y="479.5339805825243"/>
      <point x="906.8349514563106" y="678.252427184466" type="curve" smooth="yes"/>
      <point x="906.8349514563106" y="789.9805825242719"/>
      <point x="864.6019417475727" y="878.2135922330098"/>
      <point x="770.6601941747573" y="934.2135922330096" type="curve"/>
      <point x="700.6019417475727" y="838.8737864077669" type="line"/>
      <point x="820.5825242718446" y="834.6213592233009"/>
      <point x="934.0582524271845" y="821.6116504854369"/>
      <point x="1060.5436893203882" y="790.5825242718446" type="curve"/>
      <point x="1060.5436893203882" y="999.7669902912621" type="line"/>
      <point x="777.1067961165048" y="999.7669902912621" type="line" smooth="yes"/>
      <point x="648.3106796116505" y="999.7669902912621"/>
      <point x="599.3009708737864" y="1022.0194174757281"/>
      <point x="492.0194174757282" y="1022.0194174757281" type="curve" smooth="yes"/>
      <point x="217.66990291262135" y="1022.0194174757281"/>
      <point x="76.19417475728156" y="880.9902912621359"/>
      <point x="76.19417475728156" y="692.252427184466" type="curve" smooth="yes"/>
      <point x="76.19417475728156" y="510.2718446601942"/>
      <point x="212.89320388349515" y="420.2718446601942"/>
      <point x="287.9611650485437" y="380.7572815533981" type="curve"/>
      <point x="287.9611650485437" y="363.49514563106794" type="line"/>
      <point x="202.69902912621356" y="326.25242718446606"/>
      <point x="166.19417475728153" y="266.4854368932039"/>
      <point x="166.19417475728153" y="200.48543689320388" type="curve" smooth="yes"/>
      <point x="166.19417475728153" y="107.74757281553397"/>
      <point x="235.6893203883495" y="63.72815533980582"/>
      <point x="271.9805825242718" y="53.47572815533981" type="curve"/>
      <point x="271.9805825242718" y="34.466019417475735" type="line"/>
      <point x="214.6990291262136" y="14.46601941747573"/>
      <point x="89.96116504854369" y="-55.029126213592235"/>
      <point x="89.96116504854369" y="-177.26213592233012" type="curve" smooth="yes"/>
      <point x="89.96116504854369" y="-294.2718446601942"/>
      <point x="180.97087378640774" y="-408.504854368932"/>
    </contour>
    <contour>
      <point x="524.2912621359224" y="-216.15533980582526" type="curve"/>
      <point x="377.3592233009709" y="-213.90291262135923"/>
      <point x="321.126213592233" y="-166.42718446601938"/>
      <point x="321.126213592233" y="-115.45631067961165" type="curve" smooth="yes"/>
      <point x="321.126213592233" y="-52.252427184466015"/>
      <point x="434.81553398058253" y="-14.524271844660195"/>
      <point x="507.51456310679606" y="-0.038834951456308886" type="curve"/>
      <point x="547.7281553398059" y="-0.038834951456308886" type="line" smooth="yes"/>
      <point x="726.1165048543689" y="-0.038834951456308886"/>
      <point x="781.3592233009708" y="-31.02912621359223"/>
      <point x="781.3592233009708" y="-86.99029126213591" type="curve" smooth="yes"/>
      <point x="781.3592233009708" y="-144.95145631067962"/>
      <point x="678.4077669902913" y="-207.90291262135923"/>
    </contour>
    <contour>
      <point x="480.5242718446602" y="501.8252427184466" type="curve"/>
      <point x="413.0679611650486" y="526.3106796116505"/>
      <point x="317.41747572815535" y="577.0291262135922"/>
      <point x="317.41747572815535" y="666.4466019417475" type="curve" smooth="yes"/>
      <point x="317.41747572815535" y="757.8640776699029"/>
      <point x="399.3398058252427" y="804.8349514563107"/>
      <point x="488.0194174757282" y="810.8349514563107" type="curve"/>
      <point x="581.4757281553399" y="805.0873786407767"/>
      <point x="670.9126213592233" y="761.8640776699029"/>
      <point x="670.9126213592233" y="656.2135922330098" type="curve" smooth="yes"/>
      <point x="670.9126213592233" y="553.3009708737865"/>
      <point x="557.2233009708739" y="514.8155339805825"/>
    </contour>
  </outline>
</glyph>
<glyph name="n" format="2">
  <advance width="1177.4736842105265"/>
  <unicode hex="006E"/>
  <anchor x="593.2631578947369" y="0.0" name="bottom"/>
  <anchor x="593.2631578947369" y="996.421052631579" name="top"/>
  <outline>
    <contour>
      <point x="129.6842105263158" y="0.0" type="curve"/>
      <point x="434.42105263157896" y="0.0" type="line"/>
      <point x="418.94736842105266" y="143.68421052631578"/>
      <point x="412.63157894736844" y="268.42105263157896"/>
      <point x="412.63157894736844" y="419.89473684210526" type="curve"/>
      <point x="412.63157894736844" y="634.1052631578947" type="line"/>
      <point x="471.5789473684211" y="714.9473684210527"/>
      <point x="575.3684210526316" y="781.8947368421052"/>
      <point x="638.8421052631579" y="781.8947368421052" type="curve" smooth="yes"/>
      <point x="752.2105263157895" y="781.8947368421052"/>
      <point x="789.0526315789474" y="708.2105263157895"/>
      <point x="789.0526315789474" y="559.3684210526316" type="curve"/>
      <point x="789.0526315789474" y="419.89473684210526" type="line"/>
      <point x="789.0526315789474" y="268.42105263157896"/>
      <point x="782.7368421052632" y="143.68421052631578"/>
      <point x="771.3684210526316" y="0.0" type="curve"/>
      <point x="1074.0" y="0.0" type="line"/>
      <point x="1055.3684210526317" y="143.68421052631578"/>
      <point x="1051.157894736842" y="268.42105263157896"/>
      <point x="1051.157894736842" y="433.57894736842104" type="curve"/>
      <point x="1051.157894736842" y="499.2631578947368"/>
      <point x="1057.3684210526317" y="580.7368421052631"/>
      <point x="1057.3684210526317" y="667.7894736842105" type="curve" smooth="yes"/>
      <point x="1057.3684210526317" y="902.1052631578947"/>
      <point x="953.3684210526316" y="1022.7368421052631"/>
      <point x="747.1578947368421" y="1022.7368421052631" type="curve" smooth="yes"/>
      <point x="620.2105263157895" y="1022.7368421052631"/>
      <point x="486.10526315789474" y="929.2631578947368"/>
      <point x="406.7368421052632" y="832.6315789473684" type="curve"/>
      <point x="383.1578947368421" y="832.6315789473684" type="line"/>
      <point x="364.10526315789474" y="1009.7894736842105" type="line"/>
      <point x="106.21052631578948" y="996.421052631579" type="line"/>
      <point x="140.21052631578948" y="838.9473684210526"/>
      <point x="150.5263157894737" y="684.0"/>
      <point x="150.5263157894737" y="533.578947368421" type="curve"/>
      <point x="150.5263157894737" y="433.57894736842104" type="line"/>
      <point x="150.5263157894737" y="268.42105263157896"/>
      <point x="143.1578947368421" y="143.68421052631578"/>
    </contour>
  </outline>
</glyph>
<glyph name="o" format="2">
  <advance width="1195.0526315789473"/>
  <unicode hex="006F"/>
  <anchor x="597.0526315789474" y="0.0" name="bottom"/>
  <anchor x="597.0526315789474" y="498.2105263157895" name="center"/>
  <anchor x="770.2105263157895" y="0.0" name="ogonek"/>
  <anchor x="597.0526315789474" y="996.421052631579" name="top"/>
  <anchor x="1054.9473684210527" y="996.421052631579" name="topright"/>
  <outline>
    <contour>
      <point x="602.1052631578947" y="-25.36842105263158" type="curve" smooth="yes"/>
      <point x="927.3684210526316" y="-25.36842105263158"/>
      <point x="1117.3684210526317" y="202.5263157894737"/>
      <point x="1117.3684210526317" y="502.0" type="curve" smooth="yes"/>
      <point x="1117.3684210526317" y="795.2631578947369"/>
      <point x="939.578947368421" y="1022.7368421052631"/>
      <point x="596.8421052631579" y="1022.7368421052631" type="curve" smooth="yes"/>
      <point x="263.1578947368421" y="1022.7368421052631"/>
      <point x="77.6842105263158" y="800.1052631578947"/>
      <point x="77.6842105263158" y="502.0" type="curve" smooth="yes"/>
      <point x="77.6842105263158" y="223.89473684210526"/>
      <point x="247.3684210526316" y="-25.36842105263158"/>
    </contour>
    <contour>
      <point x="601.0526315789474" y="191.26315789473682" type="curve"/>
      <point x="430.7368421052631" y="198.3157894736842"/>
      <point x="344.9473684210526" y="338.5263157894737"/>
      <point x="344.9473684210526" y="502.0" type="curve" smooth="yes"/>
      <point x="344.9473684210526" y="673.2631578947369"/>
      <point x="432.42105263157896" y="798.0000000000001"/>
      <point x="601.0526315789474" y="806.1052631578948" type="curve"/>
      <point x="761.1578947368421" y="794.8421052631579"/>
      <point x="850.1052631578948" y="680.8421052631578"/>
      <point x="850.1052631578948" y="502.0" type="curve" smooth="yes"/>
      <point x="850.1052631578948" y="335.3684210526316"/>
      <point x="769.3684210526316" y="198.3157894736842"/>
    </contour>
  </outline>
</glyph>
<glyph name="p" format="2">
  <advance width="1198.3157894736842"/>
  <unicode hex="0070"/>
  <outline>
    <contour>
      <point x="128.73684210526318" y="-392.2105263157895" type="curve"/>
      <point x="439.6842105263158" y="-384.0" type="line"/>
      <point x="420.0" y="-240.31578947368422"/>
      <point x="412.63157894736844" y="-115.57894736842105"/>
      <point x="412.63157894736844" y="35.89473684210526" type="curve"/>
      <point x="412.63157894736844" y="114.63157894736841" type="line"/>
      <point x="432.0" y="114.63157894736841" type="line"/>
      <point x="515.2631578947368" y="20.10526315789474"/>
      <point x="616.3157894736842" y="-25.36842105263158"/>
      <point x="711.2631578947369" y="-25.36842105263158" type="curve" smooth="yes"/>
      <point x="987.4736842105264" y="-25.36842105263158"/>
      <point x="1118.5263157894735" y="222.10526315789474"/>
      <point x="1118.5263157894735" y="500.10526315789474" type="curve" smooth="yes"/>
      <point x="1118.5263157894735" y="796.2105263157895"/>
      <point x="974.7368421052631" y="1022.7368421052631"/>
      <point x="708.3157894736842" y="1022.7368421052631" type="curve" smooth="yes"/>
      <point x="588.5263157894736" y="1022.7368421052631"/>
      <point x="486.1052631578947" y="959.3684210526316"/>
      <point x="410.2105263157895" y="871.4736842105264" type="curve"/>
      <point x="387.6842105263158" y="871.4736842105264" type="line"/>
      <point x="373.57894736842104" y="1009.7894736842105" type="line"/>
      <point x="106.21052631578948" y="996.421052631579" type="line"/>
      <point x="140.21052631578948" y="838.9473684210526"/>
      <point x="150.5263157894737" y="684.0"/>
      <point x="150.5263157894737" y="533.578947368421" type="curve"/>
      <point x="150.5263157894737" y="49.578947368421055" type="line"/>
      <point x="150.5263157894737" y="-115.57894736842105"/>
      <point x="143.1578947368421" y="-248.52631578947367"/>
    </contour>
    <contour>
      <point x="615.4736842105264" y="199.68421052631578" type="curve"/>
      <point x="533.8947368421052" y="202.8421052631579"/>
      <point x="465.4736842105263" y="246.52631578947367"/>
      <point x="412.63157894736844" y="324.8421052631579" type="curve"/>
      <point x="412.63157894736844" y="692.2105263157895" type="line"/>
      <point x="468.52631578947364" y="758.6315789473684"/>
      <point x="544.7368421052631" y="792.5263157894738"/>
      <point x="613.578947368421" y="794.5263157894738" type="curve"/>
      <point x="773.4736842105264" y="788.5263157894738"/>
      <point x="850.2105263157895" y="659.7894736842105"/>
      <point x="850.2105263157895" y="498.0" type="curve" smooth="yes"/>
      <point x="850.2105263157895" y="344.10526315789474"/>
      <point x="777.1578947368421" y="205.68421052631578"/>
    </contour>
  </outline>
</glyph>
<glyph name="q" format="2">
  <advance width="1175.2631578947369"/>
  <unicode hex="0071"/>
  <outline>
    <contour>
      <point x="763.8947368421053" y="-392.2105263157895" type="curve"/>
      <point x="1069.578947368421" y="-384.0" type="line"/>
      <point x="1054.1052631578946" y="-240.31578947368422"/>
      <point x="1047.7894736842104" y="-115.57894736842105"/>
      <point x="1047.7894736842104" y="49.578947368421055" type="curve"/>
      <point x="1047.7894736842104" y="533.578947368421" type="line"/>
      <point x="1047.7894736842104" y="688.1052631578947"/>
      <point x="1058.1052631578946" y="848.2105263157895"/>
      <point x="1081.578947368421" y="1009.7894736842105" type="curve"/>
      <point x="824.7368421052632" y="996.421052631579" type="line"/>
      <point x="810.6315789473684" y="871.4736842105264" type="line"/>
      <point x="788.1052631578948" y="871.4736842105264" type="line"/>
      <point x="712.2105263157895" y="959.3684210526316"/>
      <point x="609.7894736842105" y="1022.7368421052631"/>
      <point x="490.0" y="1022.7368421052631" type="curve" smooth="yes"/>
      <point x="223.57894736842104" y="1022.7368421052631"/>
      <point x="79.78947368421052" y="796.2105263157895"/>
      <point x="79.78947368421052" y="500.10526315789474" type="curve" smooth="yes"/>
      <point x="79.78947368421052" y="222.10526315789474"/>
      <point x="210.8421052631579" y="-25.36842105263158"/>
      <point x="487.0526315789474" y="-25.36842105263158" type="curve" smooth="yes"/>
      <point x="582.0" y="-25.36842105263158"/>
      <point x="683.0526315789474" y="20.10526315789474"/>
      <point x="766.3157894736843" y="114.63157894736842" type="curve"/>
      <point x="785.6842105263158" y="114.63157894736842" type="line"/>
      <point x="785.6842105263158" y="35.89473684210526" type="line"/>
      <point x="785.6842105263158" y="-115.57894736842105"/>
      <point x="778.3157894736843" y="-248.52631578947367"/>
    </contour>
    <contour>
      <point x="582.8421052631579" y="199.68421052631578" type="curve"/>
      <point x="421.1578947368421" y="205.68421052631578"/>
      <point x="348.10526315789474" y="344.10526315789474"/>
      <point x="348.10526315789474" y="498.0" type="curve" smooth="yes"/>
      <point x="348.10526315789474" y="659.7894736842105"/>
      <point x="424.8421052631579" y="788.5263157894738"/>
      <point x="584.7368421052631" y="794.5263157894738" type="curve"/>
      <point x="653.578947368421" y="792.5263157894738"/>
      <point x="729.7894736842105" y="758.6315789473684"/>
      <point x="785.6842105263158" y="692.2105263157895" type="curve"/>
      <point x="785.6842105263158" y="324.8421052631579" type="line"/>
      <point x="732.8421052631578" y="246.52631578947367"/>
      <point x="664.421052631579" y="202.8421052631579"/>
    </contour>
  </outline>
</glyph>
<glyph name="r" format="2">
  <advance width="834.3157894736842"/>
  <unicode hex="0072"/>
  <anchor x="267.36842105263156" y="0.0" name="bottom"/>
  <anchor x="469.2631578947368" y="996.421052631579" name="top"/>
  <outline>
    <contour>
      <point x="129.6842105263158" y="0.0" type="curve"/>
      <point x="434.42105263157896" y="0.0" type="line"/>
      <point x="418.94736842105266" y="143.68421052631578"/>
      <point x="412.63157894736844" y="268.42105263157896"/>
      <point x="412.63157894736844" y="419.89473684210526" type="curve"/>
      <point x="412.63157894736844" y="583.2631578947368" type="line"/>
      <point x="481.05263157894734" y="729.6842105263158"/>
      <point x="577.0526315789474" y="757.6842105263158"/>
      <point x="640.421052631579" y="757.6842105263158" type="curve" smooth="yes"/>
      <point x="674.421052631579" y="757.6842105263158"/>
      <point x="727.0526315789473" y="743.4736842105262"/>
      <point x="772.5263157894736" y="728.421052631579" type="curve"/>
      <point x="795.3684210526316" y="1004.6315789473684" type="line"/>
      <point x="761.3684210526316" y="1018.8421052631579"/>
      <point x="721.1578947368421" y="1022.7368421052631"/>
      <point x="689.6842105263158" y="1022.7368421052631" type="curve" smooth="yes"/>
      <point x="603.6842105263158" y="1022.7368421052631"/>
      <point x="496.3157894736842" y="974.2105263157895"/>
      <point x="403.89473684210526" y="819.3684210526316" type="curve"/>
      <point x="381.2631578947368" y="819.3684210526316" type="line"/>
      <point x="364.10526315789474" y="1009.7894736842105" type="line"/>
      <point x="106.21052631578948" y="996.421052631579" type="line"/>
      <point x="140.21052631578948" y="838.9473684210526"/>
      <point x="150.5263157894737" y="684.0"/>
      <point x="150.5263157894737" y="533.578947368421" type="curve"/>
      <point x="150.5263157894737" y="433.57894736842104" type="line"/>
      <point x="150.5263157894737" y="268.42105263157896"/>
      <point x="143.1578947368421" y="143.68421052631578"/>
    </contour>
  </outline>
</glyph>
<glyph name="s" format="2">
  <advance width="926.2912621359224"/>
  <unicode hex="0073"/>
  <anchor x="466.77669902912623" y="0.0" name="bottom"/>
  <anchor x="466.77669902912623" y="997.009708737864" name="top"/>
  <outline>
    <contour>
      <point x="455.495145631068" y="-25.009708737864077" type="curve" smooth="yes"/>
      <point x="739.3203883495146" y="-25.009708737864077"/>
      <point x="858.3495145631068" y="105.49514563106796"/>
      <point x="858.3495145631068" y="297.00970873786406" type="curve" smooth="yes"/>
      <point x="858.3495145631068" y="475.96116504854365"/>
      <point x="754.8932038834952" y="526.9902912621359"/>
      <point x="544.8543689320388" y="585.242718446602" type="curve" smooth="yes"/>
      <point x="395.18446601941747" y="626.4660194174758"/>
      <point x="364.6990291262136" y="655.4563106796116"/>
      <point x="364.6990291262136" y="712.1747572815534" type="curve" smooth="yes"/>
      <point x="364.6990291262136" y="781.8640776699029"/>
      <point x="435.63106796116506" y="804.3495145631068"/>
      <point x="499.82524271844653" y="808.3495145631068" type="curve"/>
      <point x="549.8252427184466" y="808.3495145631068"/>
      <point x="658.8349514563107" y="781.8446601941747"/>
      <point x="781.3398058252427" y="722.0970873786408" type="curve"/>
      <point x="798.6019417475728" y="959.5339805825244" type="line"/>
      <point x="719.5922330097087" y="982.2718446601942"/>
      <point x="566.2912621359224" y="1021.7669902912621"/>
      <point x="449.2621359223301" y="1021.7669902912621" type="curve" smooth="yes"/>
      <point x="234.4466019417476" y="1021.7669902912621"/>
      <point x="95.68932038834951" y="906.252427184466"/>
      <point x="95.68932038834951" y="706.9902912621359" type="curve" smooth="yes"/>
      <point x="95.68932038834951" y="529.0291262135922"/>
      <point x="197.14563106796118" y="459.495145631068"/>
      <point x="369.43689320388347" y="414.73786407766994" type="curve" smooth="yes"/>
      <point x="536.368932038835" y="371.00970873786406"/>
      <point x="591.8446601941748" y="350.5242718446602"/>
      <point x="591.8446601941748" y="289.80582524271847" type="curve" smooth="yes"/>
      <point x="591.8446601941748" y="201.88349514563106"/>
      <point x="520.1553398058252" y="189.88349514563106"/>
      <point x="437.47572815533977" y="185.88349514563106" type="curve"/>
      <point x="345.9805825242718" y="185.88349514563106"/>
      <point x="219.20388349514565" y="224.89320388349515"/>
      <point x="109.70873786407766" y="278.8932038834951" type="curve"/>
      <point x="92.69902912621359" y="39.47572815533981" type="line"/>
      <point x="174.95145631067962" y="18.233009708737864"/>
      <point x="295.9611650485437" y="-25.009708737864077"/>
    </contour>
  </outline>
</glyph>
<glyph name="u" format="2">
  <advance width="1146.421052631579"/>
  <unicode hex="0075"/>
  <anchor x="570.0" y="0.0" name="bottom"/>
  <anchor x="1030.3157894736842" y="0.0" name="ogonek"/>
  <anchor x="570.0" y="996.421052631579" name="top"/>
  <anchor x="1096.0" y="996.421052631579" name="topright"/>
  <outline>
    <contour>
      <point x="422.94736842105266" y="-25.36842105263158" type="curve" smooth="yes"/>
      <point x="539.8947368421053" y="-25.36842105263158"/>
      <point x="674.0" y="68.10526315789474"/>
      <point x="753.3684210526316" y="164.73684210526315" type="curve"/>
      <point x="776.9473684210527" y="164.73684210526315" type="line"/>
      <point x="790.3157894736843" y="0.0" type="line"/>
      <point x="1036.6315789473683" y="0.0" type="line"/>
      <point x="1021.1578947368421" y="143.68421052631578"/>
      <point x="1014.8421052631578" y="268.42105263157896"/>
      <point x="1014.8421052631578" y="433.57894736842104" type="curve"/>
      <point x="1014.8421052631578" y="544.1052631578947" type="line"/>
      <point x="1014.8421052631578" y="726.1052631578947"/>
      <point x="1023.2631578947368" y="852.7368421052631"/>
      <point x="1038.7368421052631" y="996.421052631579" type="curve"/>
      <point x="733.0526315789474" y="996.421052631579" type="line"/>
      <point x="745.3684210526316" y="852.7368421052631"/>
      <point x="752.7368421052631" y="726.1052631578947"/>
      <point x="752.7368421052631" y="575.6842105263158" type="curve"/>
      <point x="752.7368421052631" y="357.99999999999994" type="line"/>
      <point x="693.7894736842105" y="277.15789473684214"/>
      <point x="590.0" y="210.21052631578945"/>
      <point x="531.2631578947368" y="210.21052631578945" type="curve" smooth="yes"/>
      <point x="417.89473684210526" y="210.21052631578945"/>
      <point x="381.05263157894734" y="283.8947368421052"/>
      <point x="381.05263157894734" y="432.7368421052632" type="curve"/>
      <point x="381.05263157894734" y="575.6842105263158" type="line"/>
      <point x="381.05263157894734" y="726.1052631578947"/>
      <point x="387.36842105263156" y="860.9473684210526"/>
      <point x="400.7368421052631" y="1004.6315789473684" type="curve"/>
      <point x="95.05263157894737" y="996.421052631579" type="line"/>
      <point x="109.47368421052632" y="852.7368421052631"/>
      <point x="118.94736842105263" y="726.1052631578948"/>
      <point x="118.94736842105263" y="544.1052631578947" type="curve"/>
      <point x="118.94736842105263" y="475.57894736842104"/>
      <point x="114.84210526315789" y="416.63157894736844"/>
      <point x="114.84210526315789" y="329.57894736842104" type="curve" smooth="yes"/>
      <point x="114.84210526315789" y="95.26315789473685"/>
      <point x="216.73684210526315" y="-25.36842105263158"/>
    </contour>
  </outline>
</glyph>
<glyph name="v" format="2">
  <advance width="1083.578947368421"/>
  <unicode hex="0076"/>
  <outline>
    <contour>
      <point x="386.84210526315786" y="0.0" type="curve"/>
      <point x="695.8947368421052" y="0.0" type="line"/>
      <point x="730.3157894736842" y="125.05263157894737"/>
      <point x="773.1578947368421" y="249.1578947368421"/>
      <point x="817.9999999999999" y="374.2105263157895" type="curve"/>
      <point x="881.7894736842105" y="552.3157894736842" type="line"/>
      <point x="934.6315789473683" y="699.3684210526316"/>
      <point x="989.4736842105262" y="849.3684210526316"/>
      <point x="1057.578947368421" y="996.421052631579" type="curve"/>
      <point x="751.1578947368421" y="996.421052631579" type="line"/>
      <point x="719.8947368421053" y="856.7368421052631"/>
      <point x="679.3684210526316" y="712.6315789473684"/>
      <point x="635.8947368421052" y="563.6842105263158" type="curve"/>
      <point x="554.7368421052631" y="283.6842105263158" type="line"/>
      <point x="532.2105263157894" y="283.6842105263158" type="line"/>
      <point x="451.05263157894734" y="563.6842105263158" type="line"/>
      <point x="407.57894736842104" y="712.6315789473684"/>
      <point x="368.10526315789474" y="856.7368421052631"/>
      <point x="335.7894736842105" y="1004.6315789473684" type="curve"/>
      <point x="26.0" y="996.421052631579" type="line"/>
      <point x="91.36842105263159" y="850.3157894736842"/>
      <point x="147.1578947368421" y="700.3157894736842"/>
      <point x="200.0" y="554.2105263157895" type="curve"/>
      <point x="263.7894736842105" y="377.1578947368421" type="line"/>
      <point x="307.6842105263158" y="254.0"/>
      <point x="351.3684210526316" y="125.05263157894737"/>
    </contour>
  </outline>
</glyph>
<glyph name="w" format="2">
  <advance width="1654.2105263157896"/>
  <unicode hex="0077"/>
  <anchor x="826.9473684210526" y="0.0" name="bottom"/>
  <anchor x="826.9473684210526" y="996.421052631579" name="top"/>
  <outline>
    <contour>
      <point x="343.89473684210526" y="0.0" type="curve"/>
      <point x="649.7894736842105" y="0.0" type="line"/>
      <point x="675.3684210526316" y="129.4736842105263"/>
      <point x="709.8947368421052" y="270.7368421052632"/>
      <point x="742.7368421052631" y="396.3157894736842" type="curve"/>
      <point x="807.4736842105264" y="642.5263157894738" type="line"/>
      <point x="827.8947368421052" y="642.5263157894738" type="line"/>
      <point x="893.6842105263158" y="399.2631578947369" type="line"/>
      <point x="928.5263157894736" y="273.6842105263158"/>
      <point x="967.1578947368421" y="129.4736842105263"/>
      <point x="994.7368421052632" y="0.0" type="curve"/>
      <point x="1313.157894736842" y="0.0" type="line"/>
      <point x="1342.7368421052631" y="122.0"/>
      <point x="1379.4736842105262" y="252.10526315789474"/>
      <point x="1420.421052631579" y="381.1578947368421" type="curve"/>
      <point x="1476.3157894736842" y="556.2105263157895" type="line"/>
      <point x="1523.2631578947369" y="702.3157894736842"/>
      <point x="1571.157894736842" y="848.3157894736842"/>
      <point x="1632.421052631579" y="996.421052631579" type="curve"/>
      <point x="1320.6315789473686" y="996.421052631579" type="line"/>
      <point x="1296.0000000000002" y="866.1052631578947"/>
      <point x="1260.6315789473683" y="701.3684210526316"/>
      <point x="1224.842105263158" y="557.2631578947369" type="curve"/>
      <point x="1154.2105263157894" y="273.0526315789474" type="line"/>
      <point x="1133.6842105263158" y="273.0526315789474" type="line"/>
      <point x="1063.0526315789473" y="554.2105263157895" type="line"/>
      <point x="1027.2631578947369" y="700.3157894736842"/>
      <point x="990.6315789473683" y="854.3157894736842"/>
      <point x="962.0" y="996.421052631579" type="curve"/>
      <point x="697.578947368421" y="996.421052631579" type="line"/>
      <point x="668.0" y="847.4736842105264"/>
      <point x="633.2631578947369" y="699.4736842105264"/>
      <point x="597.4736842105264" y="552.3157894736842" type="curve"/>
      <point x="528.7368421052631" y="273.0526315789474" type="line"/>
      <point x="508.2105263157895" y="273.0526315789474" type="line"/>
      <point x="437.4736842105263" y="547.578947368421" type="line"/>
      <point x="399.6842105263158" y="693.6842105263158"/>
      <point x="361.15789473684214" y="859.4736842105264"/>
      <point x="332.6315789473684" y="1004.6315789473684" type="curve"/>
      <point x="21.789473684210524" y="996.421052631579" type="line"/>
      <point x="84.10526315789474" y="847.3684210526316"/>
      <point x="132.10526315789474" y="704.3157894736842"/>
      <point x="178.94736842105263" y="556.2105263157895" type="curve"/>
      <point x="234.73684210526315" y="379.1578947368421" type="line"/>
      <point x="275.57894736842104" y="251.1578947368421"/>
      <point x="313.36842105263156" y="125.05263157894737"/>
    </contour>
  </outline>
</glyph>
<glyph name="x" format="2">
  <advance width="1128.421052631579"/>
  <unicode hex="0078"/>
  <outline>
    <contour>
      <point x="33.15789473684211" y="0.0" type="curve"/>
      <point x="353.7894736842105" y="0.0" type="line"/>
      <point x="388.10526315789474" y="81.15789473684211"/>
      <point x="416.84210526315786" y="138.42105263157896"/>
      <point x="458.2105263157895" y="218.5263157894737" type="curve"/>
      <point x="539.2631578947369" y="369.7894736842105" type="line"/>
      <point x="557.6842105263158" y="369.7894736842105" type="line"/>
      <point x="648.5263157894736" y="210.5263157894737" type="line"/>
      <point x="691.8947368421052" y="134.5263157894737"/>
      <point x="722.6315789473684" y="75.15789473684211"/>
      <point x="758.9473684210527" y="0.0" type="curve"/>
      <point x="1100.5263157894735" y="0.0" type="line"/>
      <point x="996.6315789473684" y="132.31578947368422"/>
      <point x="938.9473684210526" y="213.4736842105263"/>
      <point x="873.3684210526316" y="309.6842105263158" type="curve"/>
      <point x="714.3157894736842" y="545.2631578947369" type="line"/>
      <point x="727.8947368421052" y="486.7368421052632" type="line"/>
      <point x="870.1052631578948" y="702.0" type="line"/>
      <point x="936.7368421052631" y="803.1578947368421"/>
      <point x="978.5263157894736" y="865.2631578947369"/>
      <point x="1076.2105263157896" y="996.421052631579" type="curve"/>
      <point x="753.578947368421" y="996.421052631579" type="line"/>
      <point x="719.2631578947369" y="914.2105263157895"/>
      <point x="688.421052631579" y="854.8421052631579"/>
      <point x="647.7894736842105" y="777.4736842105264" type="curve"/>
      <point x="568.421052631579" y="633.0526315789474" type="line"/>
      <point x="548.8421052631579" y="633.0526315789474" type="line"/>
      <point x="467.36842105263156" y="778.6315789473684" type="line"/>
      <point x="425.6842105263158" y="854.9473684210526"/>
      <point x="391.6842105263158" y="920.6315789473684"/>
      <point x="354.5263157894737" y="1004.6315789473684" type="curve"/>
      <point x="31.68421052631579" y="996.421052631579" type="line"/>
      <point x="126.31578947368422" y="871.3684210526316"/>
      <point x="176.10526315789474" y="797.1578947368421"/>
      <point x="240.5263157894737" y="697.1578947368421" type="curve"/>
      <point x="377.4736842105263" y="482.94736842105266" type="line"/>
      <point x="376.5263157894737" y="543.3684210526316" type="line"/>
      <point x="238.8421052631579" y="313.7894736842105" type="line"/>
      <point x="176.42105263157896" y="210.52631578947367"/>
      <point x="129.78947368421052" y="137.3684210526316"/>
    </contour>
  </outline>
</glyph>
<glyph name="y" format="2">
  <advance width="1087.3684210526314"/>
  <unicode hex="0079"/>
  <anchor x="851.578947368421" y="0.0" name="bottom"/>
  <anchor x="546.3157894736842" y="996.421052631579" name="top"/>
  <outline>
    <contour>
      <point x="217.89473684210526" y="-392.2105263157895" type="curve"/>
      <point x="530.6315789473684" y="-384.0" type="line"/>
      <point x="574.0" y="-240.0"/>
      <point x="636.9473684210526" y="-73.78947368421052"/>
      <point x="735.7894736842105" y="180.21052631578948" type="curve"/>
      <point x="844.6315789473684" y="460.3157894736842" type="line"/>
      <point x="941.4736842105262" y="711.3684210526316"/>
      <point x="990.421052631579" y="834.421052631579"/>
      <point x="1061.3684210526314" y="996.421052631579" type="curve"/>
      <point x="757.0526315789473" y="996.421052631579" type="line"/>
      <point x="724.8421052631579" y="849.3684210526316"/>
      <point x="683.3684210526316" y="707.3684210526316"/>
      <point x="637.8947368421053" y="558.421052631579" type="curve"/>
      <point x="550.8421052631579" y="275.2631578947368" type="line"/>
      <point x="528.3157894736842" y="275.2631578947368" type="line"/>
      <point x="449.0526315789474" y="558.5263157894736" type="line"/>
      <point x="406.52631578947364" y="710.5263157894736"/>
      <point x="367.89473684210526" y="852.6315789473684"/>
      <point x="334.7368421052631" y="1004.6315789473684" type="curve"/>
      <point x="26.0" y="996.421052631579" type="line"/>
      <point x="89.15789473684211" y="854.421052631579"/>
      <point x="145.05263157894737" y="702.421052631579"/>
      <point x="196.94736842105263" y="558.3157894736842" type="curve"/>
      <point x="260.7368421052631" y="378.3157894736842" type="line"/>
      <point x="308.63157894736844" y="245.26315789473685"/>
      <point x="359.4736842105263" y="103.26315789473684"/>
      <point x="396.8421052631579" y="-33.78947368421053" type="curve"/>
      <point x="408.3157894736842" y="18.31578947368421" type="line"/>
      <point x="356.2105263157895" y="-116.10526315789474"/>
      <point x="293.8947368421053" y="-257.7894736842105"/>
    </contour>
  </outline>
</glyph>
<glyph name="z" format="2">
  <advance width="1020.8421052631579"/>
  <unicode hex="007A"/>
  <anchor x="507.4736842105263" y="0.0" name="bottom"/>
  <anchor x="507.4736842105263" y="498.2105263157895" name="center"/>
  <anchor x="507.4736842105263" y="996.421052631579" name="top"/>
  <outline>
    <contour>
      <point x="66.94736842105263" y="0.0" type="line"/>
      <point x="957.6842105263158" y="0.0" type="line"/>
      <point x="957.6842105263158" y="224.10526315789474" type="line"/>
      <point x="836.0" y="204.31578947368422"/>
      <point x="671.7894736842105" y="194.94736842105263"/>
      <point x="572.8421052631579" y="194.94736842105263" type="curve"/>
      <point x="354.2105263157895" y="194.94736842105263" type="line"/>
      <point x="382.1052631578947" y="136.94736842105263" type="line"/>
      <point x="655.7894736842105" y="494.2105263157895" type="line"/>
      <point x="740.6315789473684" y="604.6315789473684"/>
      <point x="852.3157894736843" y="737.3684210526316"/>
      <point x="927.8947368421052" y="819.0526315789473" type="curve"/>
      <point x="927.8947368421052" y="996.421052631579" type="line"/>
      <point x="74.3157894736842" y="996.421052631579" type="line"/>
      <point x="74.3157894736842" y="767.0526315789474" type="line"/>
      <point x="206.94736842105263" y="790.9473684210526"/>
      <point x="375.2631578947369" y="800.421052631579"/>
      <point x="473.2631578947369" y="800.421052631579" type="curve"/>
      <point x="673.2631578947369" y="800.421052631579" type="line"/>
      <point x="638.2105263157895" y="875.3684210526316" type="line"/>
      <point x="354.9473684210526" y="503.2631578947368" type="line"/>
      <point x="275.0526315789474" y="397.6842105263158"/>
      <point x="175.1578947368421" y="277.47368421052636"/>
      <point x="66.94736842105263" y="156.52631578947367" type="curve"/>
    </contour>
  </outline>
</glyph>
<glyph name="currency" format="2">
  <advance width="1288.421052631579"/>
  <unicode hex="00A4"/>
  <outline>
    <contour>
      <point x="641.2631578947369" y="204.21052631578948" type="curve" smooth="yes"/>
      <point x="906.7368421052631" y="204.21052631578948"/>
      <point x="1096.1052631578948" y="360.63157894736844"/>
      <point x="1096.1052631578948" y="642.1052631578947" type="curve" smooth="yes"/>
      <point x="1096.1052631578948" y="897.578947368421"/>
      <point x="907.6842105263158" y="1076.7368421052631"/>
      <point x="645.2631578947369" y="1076.7368421052631" type="curve" smooth="yes"/>
      <point x="378.8421052631579" y="1076.7368421052631"/>
      <point x="190.42105263157896" y="901.8947368421052"/>
      <point x="190.42105263157896" y="642.1052631578947" type="curve" smooth="yes"/>
      <point x="190.42105263157896" y="361.6842105263158"/>
      <point x="378.8421052631579" y="204.21052631578948"/>
    </contour>
    <contour>
      <point x="242.21052631578948" y="58.31578947368421" type="line"/>
      <point x="329.6842105263158" y="159.1578947368421"/>
      <point x="418.2105263157895" y="249.78947368421052"/>
      <point x="495.7894736842105" y="327.36842105263156" type="curve"/>
      <point x="330.63157894736844" y="492.5263157894737" type="line"/>
      <point x="253.05263157894737" y="414.9473684210526"/>
      <point x="162.42105263157896" y="326.4210526315789"/>
      <point x="61.57894736842105" y="238.94736842105263" type="curve"/>
    </contour>
    <contour>
      <point x="642.3157894736842" y="419.7894736842105" type="curve"/>
      <point x="519.7894736842105" y="428.0"/>
      <point x="424.9473684210526" y="496.63157894736844"/>
      <point x="424.9473684210526" y="641.0526315789474" type="curve" smooth="yes"/>
      <point x="424.9473684210526" y="773.4736842105264"/>
      <point x="520.7368421052632" y="854.0"/>
      <point x="644.2105263157895" y="862.2105263157895" type="curve"/>
      <point x="767.7894736842105" y="854.0"/>
      <point x="861.578947368421" y="771.3684210526316"/>
      <point x="861.578947368421" y="641.0526315789474" type="curve" smooth="yes"/>
      <point x="861.578947368421" y="496.63157894736844"/>
      <point x="766.7368421052631" y="428.0"/>
    </contour>
    <contour>
      <point x="332.7368421052632" y="791.4736842105264" type="curve"/>
      <point x="493.6842105263158" y="952.421052631579" type="line"/>
      <point x="416.10526315789474" y="1030.0"/>
      <point x="327.57894736842104" y="1120.6315789473683"/>
      <point x="240.10526315789474" y="1221.4736842105262" type="curve"/>
      <point x="63.68421052631579" y="1045.0526315789475" type="line"/>
      <point x="164.52631578947367" y="957.578947368421"/>
      <point x="255.1578947368421" y="869.0526315789474"/>
    </contour>
    <contour>
      <point x="1048.3157894736844" y="60.42105263157895" type="curve"/>
      <point x="1224.7368421052631" y="236.8421052631579" type="line"/>
      <point x="1123.8947368421052" y="324.31578947368416"/>
      <point x="1033.2631578947369" y="412.8421052631579"/>
      <point x="955.6842105263158" y="490.42105263157896" type="curve"/>
      <point x="794.7368421052631" y="329.4736842105263" type="line"/>
      <point x="872.3157894736842" y="251.89473684210526"/>
      <point x="960.8421052631579" y="161.26315789473685"/>
    </contour>
    <contour>
      <point x="957.7894736842105" y="789.3684210526316" type="line"/>
      <point x="1035.3684210526317" y="866.9473684210526"/>
      <point x="1126.0" y="955.4736842105262"/>
      <point x="1226.842105263158" y="1042.9473684210527" type="curve"/>
      <point x="1046.2105263157896" y="1223.578947368421" type="line"/>
      <point x="958.7368421052631" y="1122.7368421052631"/>
      <point x="870.2105263157895" y="1032.1052631578948"/>
      <point x="792.6315789473684" y="954.5263157894736" type="curve"/>
    </contour>
  </outline>
</glyph>
<glyph name="yen" format="2">
  <advance width="1290.2105263157894"/>
  <unicode hex="00A5"/>
  <outline>
    <contour>
      <point x="515.0526315789473" y="504.42105263157896" type="line"/>
      <point x="779.3684210526316" y="504.42105263157896" type="line"/>
      <point x="1061.0526315789475" y="1032.842105263158" type="line"/>
      <point x="1119.7894736842106" y="1143.3684210526317"/>
      <point x="1185.4736842105262" y="1263.7894736842106"/>
      <point x="1267.0526315789473" y="1374.3157894736842" type="curve"/>
      <point x="920.9473684210527" y="1374.3157894736842" type="line"/>
      <point x="860.1052631578948" y="1212.2105263157896"/>
      <point x="822.4210526315788" y="1133.2631578947369"/>
      <point x="761.3684210526316" y="1005.6842105263158" type="curve"/>
      <point x="659.578947368421" y="793.0526315789474" type="line"/>
      <point x="634.9473684210526" y="793.0526315789474" type="line"/>
      <point x="536.2105263157894" y="1003.6842105263158" type="line"/>
      <point x="475.2631578947368" y="1132.1052631578948"/>
      <point x="439.57894736842104" y="1210.1052631578948"/>
      <point x="379.7894736842105" y="1374.3157894736842" type="curve"/>
      <point x="21.052631578947366" y="1374.3157894736842" type="line"/>
      <point x="134.42105263157893" y="1204.6315789473683"/>
      <point x="177.47368421052633" y="1131.2631578947369"/>
      <point x="231.26315789473685" y="1031.7894736842106" type="curve"/>
    </contour>
    <contour>
      <point x="489.05263157894734" y="0.0" type="curve"/>
      <point x="807.3684210526316" y="0.0" type="line"/>
      <point x="786.6315789473683" y="148.6315789473684"/>
      <point x="785.5789473684209" y="277.36842105263156"/>
      <point x="785.5789473684209" y="447.57894736842104" type="curve"/>
      <point x="785.5789473684209" y="729.1578947368421" type="line"/>
      <point x="509.89473684210526" y="729.1578947368421" type="line"/>
      <point x="509.89473684210526" y="447.57894736842104" type="line"/>
      <point x="509.89473684210526" y="277.36842105263156"/>
      <point x="508.84210526315786" y="148.6315789473684"/>
    </contour>
    <contour>
      <point x="148.73684210526315" y="241.4736842105263" type="line"/>
      <point x="282.63157894736844" y="250.73684210526315"/>
      <point x="409.4736842105263" y="251.78947368421052"/>
      <point x="519.2631578947368" y="251.78947368421052" type="curve"/>
      <point x="775.0526315789473" y="251.78947368421052" type="line"/>
      <point x="884.8421052631578" y="251.78947368421052"/>
      <point x="1011.6842105263157" y="250.73684210526315"/>
      <point x="1145.578947368421" y="241.4736842105263" type="curve"/>
      <point x="1145.578947368421" y="420.2105263157894" type="line"/>
      <point x="1011.6842105263157" y="416.2105263157894"/>
      <point x="884.8421052631578" y="415.1578947368421"/>
      <point x="775.0526315789473" y="415.1578947368421" type="curve"/>
      <point x="519.2631578947368" y="415.1578947368421" type="line"/>
      <point x="409.4736842105263" y="415.1578947368421"/>
      <point x="282.63157894736844" y="416.2105263157894"/>
      <point x="148.73684210526315" y="420.2105263157894" type="curve"/>
    </contour>
    <contour>
      <point x="148.73684210526315" y="558.3157894736842" type="line"/>
      <point x="282.63157894736844" y="562.3157894736842"/>
      <point x="409.4736842105263" y="563.3684210526316"/>
      <point x="519.2631578947368" y="563.3684210526316" type="curve"/>
      <point x="775.0526315789473" y="563.3684210526316" type="line"/>
      <point x="884.8421052631578" y="563.3684210526316"/>
      <point x="1011.6842105263157" y="562.3157894736842"/>
      <point x="1145.578947368421" y="558.3157894736842" type="curve"/>
      <point x="1145.578947368421" y="737.0526315789473" type="line"/>
      <point x="1011.6842105263157" y="727.7894736842105"/>
      <point x="884.8421052631578" y="726.7368421052631"/>
      <point x="775.0526315789473" y="726.7368421052631" type="curve"/>
      <point x="519.2631578947368" y="726.7368421052631" type="line"/>
      <point x="409.4736842105263" y="726.7368421052631"/>
      <point x="282.63157894736844" y="727.7894736842105"/>
      <point x="148.73684210526315" y="737.0526315789473" type="curve"/>
    </contour>
  </outline>
</glyph>
<glyph name="ordfeminine" format="2">
  <advance width="803.5339805825242"/>
  <unicode hex="00AA"/>
  <outline>
    <contour>
      <point x="283.45631067961165" y="660.73786407767" type="curve" smooth="yes"/>
      <point x="376.95145631067953" y="660.73786407767"/>
      <point x="470.67961165048547" y="722.990291262136"/>
      <point x="523.6699029126213" y="794.4854368932039" type="curve"/>
      <point x="538.4271844660193" y="794.4854368932039" type="line"/>
      <point x="567.6699029126213" y="677.2427184466019" type="line"/>
      <point x="758.3300970873786" y="677.2427184466019" type="line"/>
      <point x="725.3203883495145" y="770.7572815533981"/>
      <point x="710.3300970873786" y="855.0291262135922"/>
      <point x="710.3300970873786" y="928.0388349514564" type="curve"/>
      <point x="710.3300970873786" y="999.2427184466019" type="line" smooth="yes"/>
      <point x="710.3300970873786" y="1057.980582524272"/>
      <point x="714.5825242718446" y="1136.485436893204"/>
      <point x="714.5825242718446" y="1184.990291262136" type="curve" smooth="yes"/>
      <point x="714.5825242718446" y="1374.2524271844661"/>
      <point x="602.8155339805825" y="1454.504854368932"/>
      <point x="425.5339805825243" y="1454.504854368932" type="curve" smooth="yes"/>
      <point x="309.24271844660194" y="1454.504854368932"/>
      <point x="179.72815533980582" y="1418.252427184466"/>
      <point x="103.4757281553398" y="1398.504854368932" type="curve"/>
      <point x="111.98058252427185" y="1211.378640776699" type="line"/>
      <point x="214.21359223300968" y="1258.368932038835"/>
      <point x="337.9805825242718" y="1288.873786407767"/>
      <point x="373.4757281553398" y="1288.873786407767" type="curve" smooth="yes"/>
      <point x="476.71844660194176" y="1288.873786407767"/>
      <point x="538.1747572815534" y="1261.126213592233"/>
      <point x="532.6796116504854" y="1169.7087378640776" type="curve"/>
      <point x="304.97087378640776" y="1124.7184466019417" type="line" smooth="yes"/>
      <point x="207.51456310679612" y="1105.7281553398057"/>
      <point x="69.47572815533981" y="1044.757281553398"/>
      <point x="69.47572815533981" y="869.2427184466019" type="curve" smooth="yes"/>
      <point x="69.47572815533981" y="751.747572815534"/>
      <point x="143.96116504854368" y="660.73786407767"/>
    </contour>
    <contour>
      <point x="365.30097087378635" y="817.1067961165049" type="curve" smooth="yes"/>
      <point x="304.6019417475728" y="817.1067961165049"/>
      <point x="255.63106796116506" y="845.5922330097088"/>
      <point x="255.63106796116506" y="913.3009708737865" type="curve" smooth="yes"/>
      <point x="255.63106796116506" y="984.757281553398"/>
      <point x="318.83495145631065" y="1013.2427184466019"/>
      <point x="381.7864077669903" y="1026.7378640776699" type="curve" smooth="yes"/>
      <point x="481.2038834951456" y="1049.47572815534"/>
      <point x="506.93203883495147" y="1060.7184466019419"/>
      <point x="528.1747572815533" y="1074.9708737864078" type="curve"/>
      <point x="528.1747572815534" y="915.5339805825242" type="line"/>
      <point x="490.69902912621365" y="850.8349514563107"/>
      <point x="415.5145631067962" y="817.1067961165049"/>
    </contour>
  </outline>
</glyph>
<glyph name="registered" format="2">
  <advance width="1151.3684210526317"/>
  <unicode hex="00AE"/>
  <outline>
    <contour>
      <point x="580.7368421052631" y="488.8421052631579" type="curve" smooth="yes"/>
      <point x="906.3157894736842" y="488.8421052631579"/>
      <point x="1087.157894736842" y="703.3684210526316"/>
      <point x="1087.157894736842" y="992.1052631578947" type="curve" smooth="yes"/>
      <point x="1087.157894736842" y="1268.6315789473683"/>
      <point x="917.4736842105264" y="1493.2631578947369"/>
      <point x="573.4736842105264" y="1493.2631578947369" type="curve" smooth="yes"/>
      <point x="234.6315789473684" y="1493.2631578947369"/>
      <point x="64.21052631578948" y="1271.578947368421"/>
      <point x="64.21052631578948" y="991.0526315789474" type="curve" smooth="yes"/>
      <point x="64.21052631578948" y="725.7894736842105"/>
      <point x="223.78947368421052" y="488.8421052631579"/>
    </contour>
    <contour>
      <point x="359.2631578947369" y="721.2631578947369" type="curve"/>
      <point x="495.89473684210526" y="721.2631578947369" type="line"/>
      <point x="487.6842105263158" y="785.2631578947369"/>
      <point x="485.57894736842104" y="839.2631578947369"/>
      <point x="485.57894736842104" y="909.2631578947369" type="curve"/>
      <point x="485.57894736842104" y="1093.2631578947369" type="line"/>
      <point x="485.57894736842104" y="1159.0526315789473"/>
      <point x="487.6842105263158" y="1211.8947368421052"/>
      <point x="494.84210526315786" y="1272.7368421052631" type="curve"/>
      <point x="356.10526315789474" y="1291.2631578947369" type="line"/>
      <point x="365.3684210526316" y="1227.2631578947369"/>
      <point x="366.42105263157896" y="1171.2631578947369"/>
      <point x="366.42105263157896" y="1101.2631578947369" type="curve"/>
      <point x="366.42105263157896" y="909.2631578947369" type="line"/>
      <point x="366.42105263157896" y="839.2631578947369"/>
      <point x="365.3684210526316" y="785.2631578947369"/>
    </contour>
    <contour>
      <point x="579.6842105263158" y="579.3684210526316" type="curve"/>
      <point x="287.1578947368421" y="586.5263157894736"/>
      <point x="162.10526315789474" y="760.6315789473684"/>
      <point x="162.10526315789474" y="991.0526315789474" type="curve" smooth="yes"/>
      <point x="162.10526315789474" y="1231.2631578947369"/>
      <point x="294.3157894736842" y="1396.6315789473686"/>
      <point x="574.5263157894736" y="1403.7894736842106" type="curve"/>
      <point x="856.8421052631579" y="1396.6315789473686"/>
      <point x="988.3157894736842" y="1230.0"/>
      <point x="988.3157894736842" y="992.1052631578947" type="curve" smooth="yes"/>
      <point x="988.3157894736842" y="747.7894736842106"/>
      <point x="848.421052631579" y="586.5263157894736"/>
    </contour>
    <contour>
      <point x="689.0526315789474" y="721.2631578947369" type="curve"/>
      <point x="848.8421052631578" y="721.2631578947369" type="line"/>
      <point x="811.0526315789474" y="765.2631578947369"/>
      <point x="765.3684210526316" y="830.3157894736842"/>
      <point x="725.6842105263158" y="887.3684210526316" type="curve"/>
      <point x="646.3157894736842" y="1001.4736842105264" type="line"/>
      <point x="598.9473684210526" y="957.7894736842105" type="line"/>
      <point x="742.1052631578947" y="957.7894736842105"/>
      <point x="792.9473684210526" y="1034.842105263158"/>
      <point x="792.9473684210526" y="1130.0" type="curve" smooth="yes"/>
      <point x="792.9473684210526" y="1245.157894736842"/>
      <point x="714.9473684210526" y="1295.3684210526317"/>
      <point x="578.7368421052631" y="1295.3684210526317" type="curve"/>
      <point x="487.1578947368421" y="1295.3684210526317"/>
      <point x="414.7368421052632" y="1291.2631578947369"/>
      <point x="356.10526315789474" y="1291.2631578947369" type="curve"/>
      <point x="447.57894736842104" y="1195.157894736842" type="line"/>
      <point x="573.578947368421" y="1195.157894736842" type="line" smooth="yes"/>
      <point x="608.8421052631579" y="1195.157894736842"/>
      <point x="668.6315789473684" y="1192.2105263157896"/>
      <point x="668.6315789473684" y="1117.3684210526317" type="curve" smooth="yes"/>
      <point x="668.6315789473684" y="1047.4736842105262"/>
      <point x="622.5263157894736" y="1025.7894736842106"/>
      <point x="554.9473684210526" y="1025.7894736842106" type="curve" smooth="yes"/>
      <point x="461.89473684210526" y="1025.7894736842106" type="line"/>
      <point x="461.89473684210526" y="945.3684210526316" type="line"/>
      <point x="596.1052631578947" y="945.3684210526316" type="line"/>
      <point x="523.2631578947369" y="990.421052631579" type="line"/>
      <point x="609.3684210526316" y="860.3157894736842" type="line"/>
      <point x="638.0" y="817.3684210526316"/>
      <point x="666.7368421052631" y="772.2105263157895"/>
    </contour>
  </outline>
</glyph>
<glyph name="micro" format="2">
  <advance width="1142.2105263157896"/>
  <unicode hex="00B5"/>
  <outline>
    <contour>
      <point x="97.15789473684211" y="-392.2105263157895" type="curve"/>
      <point x="408.10526315789474" y="-384.0" type="line"/>
      <point x="388.42105263157896" y="-240.31578947368422"/>
      <point x="381.0526315789474" y="-115.57894736842105"/>
      <point x="381.0526315789474" y="35.89473684210526" type="curve" smooth="yes"/>
      <point x="381.0526315789474" y="66.42105263157895" type="line"/>
      <point x="269.7894736842105" y="66.42105263157895" type="line"/>
      <point x="312.5263157894737" y="4.105263157894736"/>
      <point x="376.8421052631579" y="-25.36842105263158"/>
      <point x="467.15789473684214" y="-25.36842105263158" type="curve" smooth="yes"/>
      <point x="568.3157894736842" y="-25.36842105263158"/>
      <point x="691.7894736842105" y="70.21052631578948"/>
      <point x="759.578947368421" y="166.8421052631579" type="curve"/>
      <point x="783.1578947368421" y="166.8421052631579" type="line"/>
      <point x="825.578947368421" y="0.0" type="line"/>
      <point x="1077.8947368421052" y="0.0" type="line"/>
      <point x="1033.3684210526317" y="122.84210526315789"/>
      <point x="1014.8421052631579" y="231.89473684210526"/>
      <point x="1014.8421052631579" y="329.7894736842105" type="curve"/>
      <point x="1014.8421052631579" y="544.1052631578947" type="line"/>
      <point x="1014.8421052631579" y="725.1578947368421"/>
      <point x="1029.2631578947369" y="853.6842105263157"/>
      <point x="1022.0" y="996.421052631579" type="curve"/>
      <point x="733.0526315789474" y="996.421052631579" type="line"/>
      <point x="745.3684210526317" y="852.7368421052631"/>
      <point x="752.7368421052632" y="726.1052631578947"/>
      <point x="752.7368421052632" y="575.6842105263158" type="curve"/>
      <point x="752.7368421052632" y="357.99999999999994" type="line"/>
      <point x="693.7894736842105" y="277.15789473684214"/>
      <point x="590.0" y="210.21052631578945"/>
      <point x="531.2631578947369" y="210.21052631578945" type="curve" smooth="yes"/>
      <point x="417.89473684210526" y="210.21052631578945"/>
      <point x="381.0526315789474" y="283.8947368421052"/>
      <point x="381.0526315789474" y="432.7368421052632" type="curve"/>
      <point x="381.0526315789474" y="575.6842105263158" type="line"/>
      <point x="381.0526315789474" y="726.1052631578947"/>
      <point x="393.36842105263156" y="860.9473684210526"/>
      <point x="390.3157894736842" y="1004.6315789473684" type="curve"/>
      <point x="95.05263157894737" y="996.421052631579" type="line"/>
      <point x="109.47368421052632" y="852.7368421052631"/>
      <point x="118.94736842105263" y="726.1052631578948"/>
      <point x="118.94736842105263" y="544.1052631578947" type="curve"/>
      <point x="118.94736842105263" y="49.578947368421055" type="line"/>
      <point x="118.94736842105263" y="-115.57894736842105"/>
      <point x="111.57894736842105" y="-248.52631578947367"/>
    </contour>
  </outline>
</glyph>
<glyph name="paragraph" format="2">
  <advance width="1140.842105263158"/>
  <unicode hex="00B6"/>
  <outline>
    <contour>
      <point x="437.36842105263156" y="574.421052631579" type="curve" smooth="yes"/>
      <point x="478.42105263157896" y="574.421052631579" type="line"/>
      <point x="478.42105263157896" y="1426.0" type="line"/>
      <point x="437.36842105263156" y="1426.0" type="line"/>
      <point x="200.42105263157896" y="1426.0"/>
      <point x="53.684210526315795" y="1250.421052631579"/>
      <point x="53.684210526315795" y="1006.7368421052631" type="curve" smooth="yes"/>
      <point x="53.684210526315795" y="777.0526315789474"/>
      <point x="185.3684210526316" y="574.421052631579"/>
    </contour>
    <contour>
      <point x="431.2631578947368" y="-351.1578947368421" type="curve"/>
      <point x="622.421052631579" y="-351.1578947368421" type="line"/>
      <point x="612.1052631578948" y="-115.15789473684211"/>
      <point x="611.0526315789474" y="90.84210526315789"/>
      <point x="611.0526315789474" y="306.8421052631579" type="curve"/>
      <point x="611.0526315789474" y="768.0" type="line"/>
      <point x="611.0526315789474" y="984.0"/>
      <point x="612.1052631578948" y="1190.0"/>
      <point x="625.578947368421" y="1426.0" type="curve"/>
      <point x="445.7894736842105" y="1426.0" type="line"/>
      <point x="445.7894736842105" y="1190.0"/>
      <point x="445.7894736842105" y="984.0"/>
      <point x="445.7894736842105" y="768.0" type="curve"/>
      <point x="445.7894736842105" y="306.8421052631579" type="line"/>
      <point x="445.7894736842105" y="90.84210526315789"/>
      <point x="444.7368421052632" y="-115.15789473684211"/>
    </contour>
    <contour>
      <point x="757.578947368421" y="-351.1578947368421" type="curve"/>
      <point x="948.7368421052631" y="-351.1578947368421" type="line"/>
      <point x="935.2631578947369" y="-115.15789473684211"/>
      <point x="934.2105263157895" y="90.84210526315789"/>
      <point x="934.2105263157895" y="306.8421052631579" type="curve"/>
      <point x="934.2105263157895" y="768.0" type="line"/>
      <point x="934.2105263157895" y="984.0"/>
      <point x="935.2631578947369" y="1190.0"/>
      <point x="948.7368421052631" y="1426.0" type="curve"/>
      <point x="754.421052631579" y="1426.0" type="line"/>
      <point x="767.8947368421052" y="1190.0"/>
      <point x="768.9473684210526" y="984.0"/>
      <point x="768.9473684210526" y="768.0" type="curve"/>
      <point x="768.9473684210526" y="306.8421052631579" type="line"/>
      <point x="768.9473684210526" y="90.84210526315789"/>
      <point x="767.8947368421052" y="-115.15789473684211"/>
    </contour>
    <contour>
      <point x="527.1578947368421" y="1271.2631578947369" type="line"/>
      <point x="720.8421052631579" y="1271.2631578947369" type="line"/>
      <point x="830.6315789473684" y="1271.2631578947369"/>
      <point x="957.4736842105264" y="1270.2105263157896"/>
      <point x="1091.3684210526317" y="1260.9473684210527" type="curve"/>
      <point x="1091.3684210526317" y="1426.0" type="line"/>
      <point x="957.4736842105264" y="1426.0"/>
      <point x="830.6315789473684" y="1426.0"/>
      <point x="720.8421052631579" y="1426.0" type="curve"/>
      <point x="527.1578947368421" y="1426.0" type="line"/>
    </contour>
  </outline>
</glyph>
<glyph name="AE" format="2">
  <advance width="1985.3398058252428"/>
  <unicode hex="00C6"/>
  <anchor x="1087.6310679611652" y="0.0" name="bottom"/>
  <anchor x="1087.6310679611652" y="1426.0" name="top"/>
  <outline>
    <contour>
      <point x="11.223300970873787" y="0.0" type="curve"/>
      <point x="354.29126213592235" y="0.0" type="line"/>
      <point x="412.4854368932039" y="156.97087378640774"/>
      <point x="483.6893203883495" y="326.69902912621365"/>
      <point x="557.9029126213593" y="480.17475728155335" type="curve"/>
      <point x="899.2233009708738" y="1193.7864077669904" type="line"/>
      <point x="947.495145631068" y="1193.7864077669904" type="line"/>
      <point x="1137.1650485436894" y="1193.7864077669904" type="line"/>
      <point x="1166.6990291262139" y="1426.0" type="line"/>
      <point x="717.3009708737864" y="1426.0" type="line"/>
      <point x="662.3300970873787" y="1277.495145631068"/>
      <point x="602.0970873786408" y="1146.4854368932038"/>
      <point x="516.8737864077669" y="974.0" type="curve"/>
      <point x="272.93203883495147" y="484.0" type="line"/>
      <point x="196.95145631067962" y="330.252427184466"/>
      <point x="102.46601941747574" y="151.74757281553397"/>
    </contour>
    <contour>
      <point x="415.8640776699029" y="314.13592233009706" type="line"/>
      <point x="1068.854368932039" y="314.13592233009706" type="line"/>
      <point x="1043.8252427184468" y="532.5825242718446" type="line"/>
      <point x="445.6504854368931" y="532.5825242718446" type="line"/>
    </contour>
    <contour>
      <point x="923.2233009708738" y="0.0" type="curve"/>
      <point x="1252.0388349514562" y="0.0" type="line"/>
      <point x="1252.0388349514562" y="45.04854368932039" type="line"/>
      <point x="1234.7766990291261" y="200.03883495145632"/>
      <point x="1228.0194174757282" y="335.02912621359224"/>
      <point x="1228.0194174757282" y="511.7864077669903" type="curve"/>
      <point x="1228.0194174757282" y="904.6990291262136" type="line"/>
      <point x="1228.0194174757282" y="1085.9611650485438"/>
      <point x="1234.7766990291261" y="1223.4563106796118"/>
      <point x="1252.0388349514562" y="1380.9514563106795" type="curve"/>
      <point x="1252.0388349514562" y="1426.0" type="line"/>
      <point x="923.2233009708738" y="1426.0" type="line"/>
      <point x="938.485436893204" y="1268.504854368932"/>
      <point x="945.495145631068" y="1131.009708737864"/>
      <point x="945.495145631068" y="949.747572815534" type="curve"/>
      <point x="945.495145631068" y="466.7378640776699" type="line"/>
      <point x="945.495145631068" y="288.2330097087379"/>
      <point x="938.485436893204" y="154.9902912621359"/>
    </contour>
    <contour>
      <point x="1195.2427184466019" y="0.0" type="line"/>
      <point x="1882.6213592233012" y="0.0" type="line"/>
      <point x="1882.6213592233012" y="262.9708737864078" type="line"/>
      <point x="1747.1456310679612" y="243.45631067961165"/>
      <point x="1603.6699029126214" y="239.20388349514565"/>
      <point x="1440.6990291262136" y="239.20388349514565" type="curve"/>
      <point x="1195.2427184466019" y="239.20388349514565" type="line"/>
    </contour>
    <contour>
      <point x="1162.9514563106798" y="606.6601941747572" type="line"/>
      <point x="1427.9223300970873" y="606.6601941747572" type="line"/>
      <point x="1599.9029126213595" y="606.6601941747572"/>
      <point x="1716.6407766990292" y="604.4077669902912"/>
      <point x="1843.126213592233" y="595.1456310679611" type="curve"/>
      <point x="1843.126213592233" y="848.8349514563106" type="line"/>
      <point x="1722.6407766990294" y="835.8252427184466"/>
      <point x="1605.9029126213595" y="833.5728155339806"/>
      <point x="1427.9223300970875" y="833.5728155339806" type="curve"/>
      <point x="1162.9514563106798" y="833.5728155339806" type="line"/>
    </contour>
    <contour>
      <point x="1178.9708737864078" y="1186.7961165048544" type="line"/>
      <point x="1419.1844660194176" y="1186.7961165048544" type="line"/>
      <point x="1613.9029126213593" y="1186.7961165048544"/>
      <point x="1749.6310679611652" y="1180.0388349514562"/>
      <point x="1875.611650485437" y="1163.0291262135922" type="curve"/>
      <point x="1875.611650485437" y="1426.0" type="line"/>
      <point x="1178.9708737864078" y="1426.0" type="line"/>
    </contour>
  </outline>
</glyph>
<glyph name="multiply" format="2">
  <advance width="1154.3157894736842"/>
  <unicode hex="00D7"/>
  <outline>
    <contour>
      <point x="882.5263157894736" y="124.0" type="curve"/>
      <point x="1057.8947368421052" y="299.36842105263156" type="line"/>
      <point x="957.0526315789474" y="387.7894736842105"/>
      <point x="866.421052631579" y="477.36842105263156"/>
      <point x="788.9473684210526" y="554.9473684210526" type="curve"/>
      <point x="527.3684210526316" y="816.5263157894736" type="line"/>
      <point x="449.7894736842105" y="894.0"/>
      <point x="360.2105263157895" y="984.6315789473684"/>
      <point x="271.7894736842105" y="1085.4736842105262" type="curve"/>
      <point x="96.42105263157895" y="910.1052631578947" type="line"/>
      <point x="197.26315789473685" y="821.6842105263158"/>
      <point x="287.89473684210526" y="732.1052631578948"/>
      <point x="365.36842105263156" y="654.5263157894736" type="curve"/>
      <point x="626.9473684210526" y="392.94736842105266" type="line"/>
      <point x="704.5263157894736" y="315.4736842105263"/>
      <point x="794.1052631578948" y="224.8421052631579"/>
    </contour>
    <contour>
      <point x="271.7894736842105" y="124.0" type="line"/>
      <point x="360.2105263157895" y="224.8421052631579"/>
      <point x="449.7894736842105" y="315.4736842105263"/>
      <point x="527.3684210526316" y="392.94736842105266" type="curve"/>
      <point x="788.9473684210526" y="654.5263157894736" type="line"/>
      <point x="866.421052631579" y="732.1052631578948"/>
      <point x="957.0526315789474" y="821.6842105263158"/>
      <point x="1057.8947368421052" y="910.1052631578947" type="curve"/>
      <point x="882.5263157894736" y="1085.4736842105262" type="line"/>
      <point x="794.1052631578948" y="984.6315789473684"/>
      <point x="704.5263157894736" y="894.0"/>
      <point x="626.9473684210526" y="816.5263157894736" type="curve"/>
      <point x="365.36842105263156" y="554.9473684210526" type="line"/>
      <point x="287.89473684210526" y="477.36842105263156"/>
      <point x="197.26315789473685" y="387.7894736842105"/>
      <point x="96.42105263157895" y="299.36842105263156" type="curve"/>
    </contour>
  </outline>
</glyph>
<glyph name="Thorn" format="2">
  <advance width="1291.3398058252428"/>
  <unicode hex="00DE"/>
  <outline>
    <contour>
      <point x="135.6504854368932" y="0.0" type="curve"/>
      <point x="464.71844660194176" y="0.0" type="line"/>
      <point x="447.4563106796117" y="154.9902912621359"/>
      <point x="442.4466019417476" y="288.2330097087379"/>
      <point x="442.4466019417476" y="466.7378640776699" type="curve"/>
      <point x="442.4466019417476" y="949.747572815534" type="line"/>
      <point x="442.4466019417476" y="1131.009708737864"/>
      <point x="447.4563106796117" y="1268.504854368932"/>
      <point x="464.71844660194176" y="1426.0" type="curve"/>
      <point x="135.6504854368932" y="1426.0" type="line"/>
      <point x="150.9126213592233" y="1268.504854368932"/>
      <point x="157.92233009708735" y="1131.009708737864"/>
      <point x="157.92233009708735" y="949.747572815534" type="curve"/>
      <point x="157.92233009708735" y="466.7378640776699" type="line"/>
      <point x="157.92233009708735" y="288.2330097087379"/>
      <point x="150.9126213592233" y="154.9902912621359"/>
    </contour>
    <contour>
      <point x="711.6504854368932" y="285.1844660194174" type="curve"/>
      <point x="1087.106796116505" y="285.1844660194174"/>
      <point x="1223.378640776699" y="482.4466019417476"/>
      <point x="1223.378640776699" y="758.73786407767" type="curve" smooth="yes"/>
      <point x="1223.378640776699" y="1078.5825242718447"/>
      <point x="1051.3398058252428" y="1201.0679611650485"/>
      <point x="711.0485436893204" y="1201.0679611650485" type="curve"/>
      <point x="585.3592233009709" y="1201.0679611650485"/>
      <point x="486.40776699029135" y="1196.8155339805826"/>
      <point x="407.16504854368935" y="1196.8155339805826" type="curve"/>
      <point x="407.16504854368935" y="966.6213592233009" type="line"/>
      <point x="691.0291262135922" y="966.6213592233009" type="line" smooth="yes"/>
      <point x="802.4660194174758" y="966.6213592233009"/>
      <point x="929.8446601941748" y="936.0970873786407"/>
      <point x="929.8446601941748" y="754.7184466019418" type="curve" smooth="yes"/>
      <point x="929.8446601941748" y="587.0679611650486"/>
      <point x="843.4174757281554" y="516.3495145631067"/>
      <point x="647.5728155339806" y="516.3495145631067" type="curve" smooth="yes"/>
      <point x="407.16504854368935" y="516.3495145631067" type="line"/>
      <point x="407.16504854368935" y="289.43689320388347" type="line"/>
      <point x="482.91262135922335" y="289.43689320388347"/>
      <point x="614.1553398058253" y="285.1844660194174"/>
    </contour>
  </outline>
</glyph>
<glyph name="germandbls" format="2">
  <advance width="1222.0"/>
  <unicode hex="00DF"/>
  <outline>
    <contour>
      <point x="717.0526315789474" y="-10.105263157894736" type="curve" smooth="yes"/>
      <point x="981.0526315789474" y="-10.105263157894736"/>
      <point x="1142.2105263157894" y="159.78947368421052"/>
      <point x="1142.2105263157894" y="411.89473684210526" type="curve" smooth="yes"/>
      <point x="1142.2105263157894" y="639.4736842105264"/>
      <point x="1008.421052631579" y="751.3684210526316"/>
      <point x="875.3684210526316" y="802.421052631579" type="curve"/>
      <point x="875.3684210526316" y="823.8947368421053" type="line"/>
      <point x="975.8947368421053" y="869.2631578947369"/>
      <point x="1068.2105263157894" y="968.6315789473684"/>
      <point x="1068.2105263157894" y="1135.2631578947369" type="curve" smooth="yes"/>
      <point x="1068.2105263157894" y="1358.1052631578948"/>
      <point x="903.2631578947369" y="1493.2631578947369"/>
      <point x="642.5263157894736" y="1493.2631578947369" type="curve" smooth="yes"/>
      <point x="351.89473684210526" y="1493.2631578947369"/>
      <point x="169.36842105263156" y="1329.0526315789473"/>
      <point x="169.36842105263156" y="1029.8947368421052" type="curve" smooth="yes"/>
      <point x="169.36842105263156" y="863.7894736842105"/>
      <point x="180.8421052631579" y="698.7368421052631"/>
      <point x="180.8421052631579" y="533.578947368421" type="curve"/>
      <point x="180.8421052631579" y="433.57894736842104" type="line"/>
      <point x="180.8421052631579" y="268.42105263157896"/>
      <point x="173.4736842105263" y="143.68421052631578"/>
      <point x="160.0" y="0.0" type="curve"/>
      <point x="464.7368421052631" y="0.0" type="line"/>
      <point x="449.2631578947368" y="143.68421052631578"/>
      <point x="442.9473684210526" y="268.42105263157896"/>
      <point x="442.9473684210526" y="433.57894736842104" type="curve"/>
      <point x="442.9473684210526" y="1029.3684210526314" type="line" smooth="yes"/>
      <point x="442.9473684210526" y="1189.8947368421052"/>
      <point x="513.8947368421052" y="1269.3684210526317"/>
      <point x="634.1052631578947" y="1274.5263157894738" type="curve"/>
      <point x="752.0" y="1269.3684210526317"/>
      <point x="820.9473684210526" y="1192.6315789473683"/>
      <point x="820.9473684210526" y="1076.2105263157896" type="curve" smooth="yes"/>
      <point x="820.9473684210526" y="946.8421052631579"/>
      <point x="727.3684210526316" y="870.2105263157895"/>
      <point x="616.5263157894736" y="861.8947368421053" type="curve"/>
      <point x="616.5263157894736" y="666.1052631578948" type="line"/>
      <point x="764.9473684210526" y="659.8947368421053"/>
      <point x="873.8947368421052" y="579.578947368421"/>
      <point x="873.8947368421052" y="419.2631578947368" type="curve" smooth="yes"/>
      <point x="873.8947368421052" y="286.8421052631579"/>
      <point x="800.8421052631579" y="188.73684210526315"/>
      <point x="654.9473684210526" y="184.52631578947367" type="curve"/>
      <point x="632.0" y="184.52631578947367"/>
      <point x="611.0526315789474" y="188.3157894736842"/>
      <point x="595.6842105263158" y="191.15789473684208" type="curve"/>
      <point x="595.6842105263158" y="0.9473684210526316" type="line"/>
      <point x="629.8947368421052" y="-6.105263157894736"/>
      <point x="677.0526315789474" y="-10.105263157894736"/>
    </contour>
    <contour>
      <point x="40.10526315789474" y="776.5263157894736" type="line"/>
      <point x="255.68421052631578" y="800.2105263157895" type="line"/>
      <point x="255.68421052631578" y="996.421052631579" type="line"/>
      <point x="40.10526315789474" y="996.421052631579" type="line"/>
    </contour>
  </outline>
</glyph>
<glyph name="ae" format="2">
  <advance width="1612.7184466019419"/>
  <unicode hex="00E6"/>
  <anchor x="799.495145631068" y="0.0" name="bottom"/>
  <anchor x="799.495145631068" y="997.009708737864" name="top"/>
  <outline>
    <contour>
      <point x="1195.4563106796118" y="-25.009708737864077" type="curve" smooth="yes"/>
      <point x="1340.990291262136" y="-25.009708737864077"/>
      <point x="1454.9902912621362" y="14.485436893203884"/>
      <point x="1536.0000000000002" y="37.980582524271846" type="curve"/>
      <point x="1527.242718446602" y="266.17475728155335" type="line"/>
      <point x="1424.252427184466" y="225.68932038834953"/>
      <point x="1299.7281553398057" y="193.18446601941747"/>
      <point x="1225.495145631068" y="193.18446601941747" type="curve" smooth="yes"/>
      <point x="1010.5631067961166" y="193.18446601941747"/>
      <point x="911.3592233009709" y="306.8543689320388"/>
      <point x="911.3592233009709" y="497.747572815534" type="curve"/>
      <point x="911.3592233009709" y="529.5339805825242" type="line"/>
      <point x="911.3592233009709" y="701.4757281553399"/>
      <point x="1001.3009708737864" y="819.3980582524272"/>
      <point x="1129.9417475728155" y="827.3980582524272" type="curve"/>
      <point x="1236.8543689320388" y="821.6504854368932"/>
      <point x="1316.5436893203882" y="740.9320388349515"/>
      <point x="1316.5436893203882" y="596.757281553398" type="curve" smooth="yes"/>
      <point x="1316.5436893203882" y="579.2621359223301"/>
      <point x="1316.5436893203885" y="561.7669902912621"/>
      <point x="1314.5436893203885" y="544.0194174757281" type="curve"/>
      <point x="1545.242718446602" y="453.4757281553398" type="line"/>
      <point x="1551.242718446602" y="493.7281553398058"/>
      <point x="1553.495145631068" y="531.9805825242719"/>
      <point x="1553.495145631068" y="584.73786407767" type="curve" smooth="yes"/>
      <point x="1553.495145631068" y="877.0291262135922"/>
      <point x="1394.2330097087379" y="1022.0194174757281"/>
      <point x="1127.9417475728155" y="1022.0194174757281" type="curve" smooth="yes"/>
      <point x="851.378640776699" y="1022.0194174757281"/>
      <point x="685.6504854368932" y="807.2621359223301"/>
      <point x="685.6504854368932" y="502.0" type="curve" smooth="yes"/>
      <point x="685.6504854368932" y="194.9902912621359"/>
      <point x="851.3980582524271" y="-25.009708737864077"/>
    </contour>
    <contour>
      <point x="453.06796116504853" y="181.92233009708735" type="curve" smooth="yes"/>
      <point x="386.62135922330094" y="181.92233009708735"/>
      <point x="326.66019417475724" y="212.40776699029126"/>
      <point x="326.66019417475724" y="296.8543689320388" type="curve" smooth="yes"/>
      <point x="326.66019417475724" y="374.56310679611653"/>
      <point x="374.64077669902906" y="424.2718446601942"/>
      <point x="457.0679611650485" y="439.7669902912622" type="curve" smooth="yes"/>
      <point x="604.1747572815534" y="466.50485436893206"/>
      <point x="641.1456310679612" y="476.75728155339806"/>
      <point x="667.6310679611651" y="494.75728155339806" type="curve"/>
      <point x="667.6310679611651" y="338.77669902912623" type="line"/>
      <point x="614.1747572815533" y="244.11650485436897"/>
      <point x="514.2718446601942" y="181.92233009708735"/>
    </contour>
    <contour>
      <point x="380.9708737864077" y="-22.75728155339806" type="curve" smooth="yes"/>
      <point x="565.747572815534" y="-22.75728155339806"/>
      <point x="706.4854368932039" y="79.49514563106797"/>
      <point x="833.2815533980581" y="229.2233009708738" type="curve"/>
      <point x="829.7864077669904" y="506.75728155339806" type="line"/>
      <point x="872.0582524271844" y="667.747572815534" type="line"/>
      <point x="872.0582524271844" y="917.514563106796"/>
      <point x="734.2912621359222" y="1022.0194174757281"/>
      <point x="503.78640776699024" y="1022.0194174757281" type="curve" smooth="yes"/>
      <point x="364.0" y="1022.0194174757281"/>
      <point x="198.71844660194176" y="977.26213592233"/>
      <point x="109.45631067961165" y="951.5145631067961" type="curve"/>
      <point x="120.2135922330097" y="711.0679611650486" type="line"/>
      <point x="253.43689320388344" y="764.8155339805825"/>
      <point x="414.2135922330097" y="805.5728155339806"/>
      <point x="465.2038834951456" y="805.5728155339806" type="curve" smooth="yes"/>
      <point x="579.7087378640776" y="805.5728155339806"/>
      <point x="679.8834951456311" y="765.3398058252426"/>
      <point x="674.3883495145631" y="635.2233009708738" type="curve"/>
      <point x="390.42718446601936" y="592.4660194174756" type="line" smooth="yes"/>
      <point x="237.49514563106797" y="568.9708737864078"/>
      <point x="65.20388349514562" y="496.7378640776699"/>
      <point x="65.20388349514562" y="272.97087378640776" type="curve" smooth="yes"/>
      <point x="65.20388349514562" y="86.52427184466019"/>
      <point x="187.3980582524272" y="-22.75728155339806"/>
    </contour>
    <contour>
      <point x="756.5048543689321" y="453.4757281553398" type="line"/>
      <point x="1545.242718446602" y="453.4757281553398" type="line"/>
      <point x="1545.242718446602" y="568.0388349514564" type="line"/>
      <point x="1390.8543689320388" y="626.9902912621359" type="line"/>
      <point x="756.5048543689321" y="615.7281553398058" type="line"/>
    </contour>
  </outline>
</glyph>
<glyph name="eth" format="2">
  <advance width="1187.2621359223301"/>
  <unicode hex="00F0"/>
  <outline>
    <contour>
      <point x="598.7572815533981" y="-25.009708737864077" type="curve" smooth="yes"/>
      <point x="954.5825242718446" y="-25.009708737864077"/>
      <point x="1109.3203883495144" y="222.75728155339806"/>
      <point x="1109.3203883495144" y="604.252427184466" type="curve" smooth="yes"/>
      <point x="1109.3203883495144" y="895.747572815534"/>
      <point x="998.0582524271845" y="1121.2621359223301"/>
      <point x="818.0388349514564" y="1301.514563106796" type="curve"/>
      <point x="739.0291262135922" y="1381.514563106796"/>
      <point x="652.5242718446602" y="1454.2718446601941"/>
      <point x="571.0291262135923" y="1518.2718446601941" type="curve"/>
      <point x="319.55339805825247" y="1421.2038834951459" type="line"/>
      <point x="445.0873786407767" y="1351.6893203883496"/>
      <point x="536.3495145631067" y="1282.6796116504856"/>
      <point x="609.3592233009708" y="1203.1650485436894" type="curve"/>
      <point x="760.3300970873787" y="1039.4368932038835"/>
      <point x="840.8155339805826" y="851.4757281553398"/>
      <point x="840.8155339805826" y="631.7864077669904" type="curve" smooth="yes"/>
      <point x="840.8155339805826" y="343.61165048543694"/>
      <point x="763.1262135922331" y="198.93203883495144"/>
      <point x="596.7572815533981" y="190.93203883495144" type="curve"/>
      <point x="430.3883495145631" y="198.93203883495144"/>
      <point x="344.6990291262136" y="330.83495145631065"/>
      <point x="344.6990291262136" y="471.9805825242718" type="curve" smooth="yes"/>
      <point x="344.6990291262136" y="611.1262135922331"/>
      <point x="426.6407766990291" y="733.7864077669902"/>
      <point x="593.009708737864" y="740.0388349514562" type="curve"/>
      <point x="648.9708737864078" y="737.7864077669902"/>
      <point x="757.3980582524272" y="717.3009708737865"/>
      <point x="860.0776699029126" y="605.6310679611651" type="curve"/>
      <point x="908.3883495145631" y="682.9320388349514"/>
      <point x="891.1262135922331" y="785.2038834951456"/>
      <point x="833.8058252427185" y="866.0" type="curve"/>
      <point x="791.8058252427185" y="843.7281553398058" type="line"/>
      <point x="708.8543689320388" y="911.1844660194175"/>
      <point x="582.873786407767" y="949.9223300970873"/>
      <point x="486.13592233009706" y="949.9223300970873" type="curve" smooth="yes"/>
      <point x="244.93203883495147" y="949.9223300970873"/>
      <point x="77.94174757281553" y="755.4951456310679"/>
      <point x="77.94174757281553" y="483.24271844660194" type="curve" smooth="yes"/>
      <point x="77.94174757281553" y="215.24271844660194"/>
      <point x="247.1844660194175" y="-25.009708737864077"/>
    </contour>
    <contour>
      <point x="328.44660194174753" y="1028.6019417475727" type="line"/>
      <point x="445.45631067961165" y="1080.6213592233012"/>
      <point x="558.4660194174758" y="1117.883495145631"/>
      <point x="656.2330097087379" y="1150.8932038834953" type="curve"/>
      <point x="750.73786407767" y="1181.6504854368932" type="line"/>
      <point x="848.5048543689321" y="1214.6601941747572"/>
      <point x="966.2718446601941" y="1249.6699029126214"/>
      <point x="1089.7864077669904" y="1281.6699029126214" type="curve"/>
      <point x="1027.9805825242718" y="1466.0582524271845" type="line"/>
      <point x="909.4757281553398" y="1416.0388349514562"/>
      <point x="796.2135922330096" y="1377.0291262135922"/>
      <point x="698.4466019417475" y="1345.7669902912621" type="curve"/>
      <point x="601.4368932038835" y="1313.0097087378642" type="line"/>
      <point x="503.6699029126214" y="1280.0"/>
      <point x="388.6601941747573" y="1243.242718446602"/>
      <point x="262.8932038834951" y="1214.990291262136" type="curve"/>
    </contour>
  </outline>
</glyph>
<glyph name="oslash" format="2">
  <advance width="1194.2524271844661"/>
  <unicode hex="00F8"/>
  <anchor x="596.252427184466" y="997.009708737864" name="top"/>
  <outline>
    <contour>
      <point x="602.252427184466" y="-25.009708737864077" type="curve" smooth="yes"/>
      <point x="928.0582524271845" y="-25.009708737864077"/>
      <point x="1118.0582524271845" y="202.7378640776699"/>
      <point x="1118.0582524271845" y="502.0" type="curve" smooth="yes"/>
      <point x="1118.0582524271845" y="794.7572815533981"/>
      <point x="938.8155339805825" y="1022.0194174757281"/>
      <point x="597.495145631068" y="1022.0194174757281" type="curve" smooth="yes"/>
      <point x="262.6796116504854" y="1022.0194174757281"/>
      <point x="77.94174757281553" y="800.252427184466"/>
      <point x="77.94174757281553" y="502.0" type="curve" smooth="yes"/>
      <point x="77.94174757281553" y="223.747572815534"/>
      <point x="247.1844660194175" y="-25.009708737864077"/>
    </contour>
    <contour>
      <point x="600.504854368932" y="185.88349514563106" type="curve"/>
      <point x="427.8640776699029" y="194.13592233009706"/>
      <point x="339.6504854368932" y="336.31067961165047"/>
      <point x="339.6504854368932" y="502.0" type="curve" smooth="yes"/>
      <point x="339.6504854368932" y="675.4368932038834"/>
      <point x="429.1067961165048" y="802.621359223301"/>
      <point x="600.504854368932" y="811.1262135922331" type="curve"/>
      <point x="764.6601941747573" y="800.1165048543689"/>
      <point x="854.6019417475728" y="684.1747572815534"/>
      <point x="854.6019417475728" y="502.0" type="curve" smooth="yes"/>
      <point x="854.6019417475728" y="331.80582524271847"/>
      <point x="772.6407766990292" y="194.13592233009706"/>
    </contour>
    <contour>
      <point x="218.27184466019418" y="-151.28155339805826" type="line"/>
      <point x="307.5145631067961" y="-14.776699029126213"/>
      <point x="394.2718446601942" y="99.98058252427184"/>
      <point x="502.2718446601942" y="239.98058252427185" type="curve"/>
      <point x="795.0291262135922" y="623.2427184466019" type="line"/>
      <point x="903.0291262135922" y="763.495145631068"/>
      <point x="992.7766990291262" y="878.9902912621359"/>
      <point x="1104.0388349514562" y="1002.9902912621359" type="curve"/>
      <point x="960.2135922330098" y="1109.3009708737864" type="line"/>
      <point x="872.7184466019418" y="974.0388349514562"/>
      <point x="786.4660194174758" y="857.7864077669902"/>
      <point x="676.4660194174758" y="713.7864077669902" type="curve"/>
      <point x="387.9611650485437" y="335.28155339805824" type="line"/>
      <point x="283.7087378640777" y="198.7766990291262"/>
      <point x="194.21359223300973" y="87.02912621359224"/>
      <point x="83.20388349514563" y="-40.71844660194174" type="curve"/>
    </contour>
  </outline>
</glyph>
<glyph name="thorn" format="2">
  <advance width="1188.421052631579"/>
  <unicode hex="00FE"/>
  <outline>
    <contour>
      <point x="118.8421052631579" y="-392.2105263157895" type="curve"/>
      <point x="429.7894736842105" y="-384.0" type="line"/>
      <point x="410.10526315789474" y="-240.31578947368422"/>
      <point x="402.7368421052632" y="-115.57894736842105"/>
      <point x="402.7368421052632" y="35.89473684210526" type="curve"/>
      <point x="402.7368421052632" y="114.63157894736841" type="line"/>
      <point x="422.10526315789474" y="114.63157894736841" type="line"/>
      <point x="505.36842105263156" y="20.10526315789474"/>
      <point x="606.421052631579" y="-25.36842105263158"/>
      <point x="701.3684210526316" y="-25.36842105263158" type="curve" smooth="yes"/>
      <point x="977.578947368421" y="-25.36842105263158"/>
      <point x="1108.6315789473683" y="222.10526315789474"/>
      <point x="1108.6315789473683" y="500.10526315789474" type="curve" smooth="yes"/>
      <point x="1108.6315789473683" y="796.2105263157895"/>
      <point x="964.8421052631578" y="1022.7368421052631"/>
      <point x="705.7894736842105" y="1022.7368421052631" type="curve" smooth="yes"/>
      <point x="590.2105263157895" y="1022.7368421052631"/>
      <point x="494.8421052631579" y="960.2105263157895"/>
      <point x="426.3157894736842" y="880.7368421052631" type="curve"/>
      <point x="402.7368421052632" y="880.7368421052631" type="line"/>
      <point x="402.7368421052632" y="986.9473684210526" type="line"/>
      <point x="402.7368421052632" y="1168.5263157894738"/>
      <point x="414.3157894736842" y="1333.8947368421054"/>
      <point x="432.94736842105266" y="1492.6315789473683" type="curve"/>
      <point x="98.10526315789474" y="1461.157894736842" type="line"/>
      <point x="129.26315789473685" y="1305.578947368421"/>
      <point x="140.63157894736844" y="1150.6315789473683"/>
      <point x="140.63157894736844" y="986.9473684210526" type="curve"/>
      <point x="140.63157894736844" y="49.578947368421055" type="line"/>
      <point x="140.63157894736844" y="-115.57894736842105"/>
      <point x="133.26315789473685" y="-248.52631578947367"/>
    </contour>
    <contour>
      <point x="605.578947368421" y="199.68421052631578" type="curve"/>
      <point x="524.0" y="202.8421052631579"/>
      <point x="455.57894736842104" y="246.52631578947367"/>
      <point x="402.7368421052632" y="324.8421052631579" type="curve"/>
      <point x="402.7368421052632" y="692.2105263157895" type="line"/>
      <point x="458.6315789473684" y="758.6315789473684"/>
      <point x="534.8421052631578" y="792.5263157894738"/>
      <point x="603.6842105263157" y="794.5263157894738" type="curve"/>
      <point x="763.578947368421" y="788.5263157894738"/>
      <point x="840.3157894736842" y="659.7894736842105"/>
      <point x="840.3157894736842" y="498.0" type="curve" smooth="yes"/>
      <point x="840.3157894736842" y="344.10526315789474"/>
      <point x="767.2631578947368" y="205.68421052631578"/>
    </contour>
  </outline>
</glyph>
<glyph name="idotless" format="2">
  <advance width="545.4736842105264"/>
  <unicode hex="0131"/>
  <anchor x="272.7368421052632" y="0.0" name="bottom"/>
  <anchor x="419.2631578947368" y="0.0" name="ogonek"/>
  <anchor x="272.7368421052632" y="996.421052631579" name="top"/>
  <outline>
    <contour>
      <point x="120.84210526315789" y="0.0" type="curve"/>
      <point x="425.57894736842104" y="0.0" type="line"/>
      <point x="410.10526315789474" y="143.68421052631578"/>
      <point x="403.7894736842105" y="268.42105263157896"/>
      <point x="403.7894736842105" y="433.57894736842104" type="curve"/>
      <point x="403.7894736842105" y="533.578947368421" type="line"/>
      <point x="403.7894736842105" y="726.1052631578947"/>
      <point x="412.2105263157895" y="852.7368421052631"/>
      <point x="427.6842105263158" y="996.421052631579" type="curve"/>
      <point x="117.78947368421052" y="996.421052631579" type="line"/>
      <point x="132.21052631578945" y="852.7368421052631"/>
      <point x="141.68421052631578" y="726.1052631578947"/>
      <point x="141.68421052631578" y="533.578947368421" type="curve"/>
      <point x="141.68421052631578" y="433.57894736842104" type="line"/>
      <point x="141.68421052631578" y="268.42105263157896"/>
      <point x="134.3157894736842" y="143.68421052631578"/>
    </contour>
  </outline>
</glyph>
<glyph name="Lslash" format="2">
  <advance width="1177.2631578947369"/>
  <unicode hex="0141"/>
  <outline>
    <contour>
      <point x="167.57894736842107" y="0.0" type="curve"/>
      <point x="501.57894736842104" y="0.0" type="line"/>
      <point x="501.57894736842104" y="45.89473684210526" type="line"/>
      <point x="485.05263157894734" y="200.52631578947367"/>
      <point x="478.7368421052631" y="334.2105263157895"/>
      <point x="478.7368421052631" y="512.421052631579" type="curve"/>
      <point x="478.7368421052631" y="948.9473684210526" type="line"/>
      <point x="478.7368421052631" y="1131.3684210526317"/>
      <point x="485.05263157894734" y="1268.2105263157894"/>
      <point x="501.57894736842104" y="1426.0" type="curve"/>
      <point x="167.57894736842107" y="1426.0" type="line"/>
      <point x="182.10526315789474" y="1268.2105263157894"/>
      <point x="189.47368421052633" y="1131.3684210526317"/>
      <point x="189.47368421052633" y="948.9473684210526" type="curve"/>
      <point x="189.47368421052633" y="466.5263157894737" type="line"/>
      <point x="189.47368421052633" y="288.3157894736842"/>
      <point x="182.10526315789474" y="154.6315789473684"/>
    </contour>
    <contour>
      <point x="33.68421052631579" y="503.8947368421053" type="line"/>
      <point x="166.10526315789474" y="553.3684210526317"/>
      <point x="290.7368421052632" y="592.6315789473684"/>
      <point x="403.36842105263156" y="625.7894736842105" type="curve"/>
      <point x="504.7368421052632" y="655.8947368421053" type="line"/>
      <point x="617.3684210526316" y="689.0526315789474"/>
      <point x="745.0526315789473" y="725.1578947368422"/>
      <point x="881.6842105263158" y="755.0526315789474" type="curve"/>
      <point x="818.5263157894736" y="968.421052631579" type="line"/>
      <point x="687.0526315789473" y="920.0"/>
      <point x="561.3684210526316" y="878.6315789473684"/>
      <point x="448.8421052631579" y="845.4736842105264" type="curve"/>
      <point x="347.36842105263156" y="815.3684210526316" type="line"/>
      <point x="234.8421052631579" y="782.2105263157895"/>
      <point x="108.10526315789474" y="749.1578947368421"/>
      <point x="-29.473684210526315" y="717.2631578947369" type="curve"/>
    </contour>
    <contour>
      <point x="439.36842105263156" y="0.0" type="line"/>
      <point x="1116.0" y="0.0" type="line"/>
      <point x="1116.0" y="282.6315789473684" type="line"/>
      <point x="971.1578947368421" y="261.89473684210526"/>
      <point x="848.1052631578948" y="252.52631578947367"/>
      <point x="635.7894736842105" y="252.52631578947367" type="curve"/>
      <point x="439.36842105263156" y="252.52631578947367" type="line"/>
    </contour>
  </outline>
</glyph>
